<?xml version="1.0" encoding="UTF-8"?>
<svg id="_图层_2" data-name="图层 2" xmlns="http://www.w3.org/2000/svg" viewBox="0 0 172.57 172.57">
  <defs>
    <style>
      .cls-1, .cls-2 {
        fill: #000000;
      }

      .cls-2 {
        fill-rule: evenodd;
      }
    </style>
  </defs>
  <g id="_图层_1-2" data-name="图层 1">
    <g>
      <path class="cls-1" d="M86.28,0c47.52,0,86.28,38.76,86.28,86.28s-38.76,86.28-86.28,86.28S0,133.8,0,86.28,38.76,0,86.28,0M86.28,3.44C40.65,3.44,3.44,40.65,3.44,86.28s37.21,82.84,82.84,82.84,82.84-37.22,82.84-82.84S131.91,3.44,86.28,3.44"/>
      <path class="cls-1" d="M55.98,123.06c-5.4-4.47-9.81-10.09-12.84-16.49-2.91-6.17-4.54-13.04-4.54-20.29,0-26.27,21.43-47.69,47.69-47.69s47.69,21.42,47.69,47.69c0,7.25-1.63,14.12-4.55,20.29-3.03,6.4-7.44,12.02-12.84,16.49l-1.09-1.32c5.21-4.3,9.46-9.73,12.38-15.9,2.8-5.93,4.38-12.56,4.38-19.55,0-25.32-20.65-45.97-45.97-45.97s-45.97,20.65-45.97,45.97c0,6.99,1.57,13.62,4.37,19.55,2.92,6.17,7.17,11.6,12.38,15.9l-1.1,1.32Z"/>
      <polygon class="cls-2" points="12.4 115.09 9.14 106.36 10.92 105.74 25.84 108.01 23.56 101.89 25.33 101.27 28.31 109.27 26.53 109.88 11.62 107.61 14.17 114.46 12.4 115.09"/>
      <polygon class="cls-2" points="18.07 126.99 17.18 125.25 24.19 121.64 21.97 117.32 14.95 120.92 14.06 119.18 29.05 111.47 29.94 113.21 23.63 116.46 25.85 120.78 32.17 117.54 33.07 119.28 18.07 126.99"/>
      <polygon class="cls-2" points="25.19 136.49 19.86 129.05 33.91 120.31 38.99 127.39 37.43 128.36 33.56 122.96 29.2 125.67 32.75 130.63 31.19 131.6 27.64 126.64 22.62 129.76 26.75 135.52 25.19 136.49"/>
      <polygon class="cls-2" points="37.14 148.18 35.36 146.67 45.7 133.96 47.49 135.47 37.14 148.18"/>
      <path class="cls-2" d="M45.15,153.78l2.12-4.5-2.57-1.86-3.82,3.72-1.76-1.35,12.14-11.98,2.43,1.48-6.46,15.67-2.08-1.17ZM48.25,147.07l2.53-5.82-.23-.19-4.37,4.46,2.08,1.55Z"/>
      <polygon class="cls-2" points="57.32 159.66 55.13 158.64 56.4 146.95 51.61 156.78 49.42 155.77 57.03 140.72 59.01 141.63 58.09 152.74 63.03 143.57 64.87 144.33 57.32 159.66"/>
      <path class="cls-2" d="M68.63,163.04l-1.41-.47.13-1.33c-.33.29-.77.47-1.31.55-.55.09-1.1.04-1.65-.15-1.17-.38-2.03-1.29-2.59-2.75-.56-1.45-.45-3.46.34-6,.86-2.78,1.92-4.72,3.17-5.81,1.25-1.08,3.15-1.69,4.84-1.15,1.81.58,2.99,2.81,2.47,5.9l-2.16-.18c.37-1.32.18-3.38-1.11-3.8-1.05-.34-2.22-.02-2.96.82-.74.83-1.47,2.4-2.18,4.71-.68,2.19-.87,3.79-.57,4.8.3,1.01.81,1.64,1.53,1.87.72.23,1.37.14,1.96-.29.59-.42,1.07-1.23,1.43-2.41l.3-.98-2.59-.84.53-1.69,4.25,1.38-2.41,7.82Z"/>
      <path class="cls-2" d="M91.07,159.32c-.05,1.52-.46,2.71-1.22,3.57-.76.85-1.93,1.25-3.52,1.19-1.58-.05-2.73-.54-3.44-1.46-.7-.91-1.03-2.13-.98-3.65l.38-11.49,2.02.08-.37,11.48c-.04,1.08.18,1.88.63,2.4.45.53,1.06.8,1.82.83.76.03,1.39-.21,1.87-.7.48-.49.75-1.27.78-2.35l.37-11.48,2.02.07-.37,11.49Z"/>
      <polygon class="cls-2" points="102.58 162.39 100.78 162.67 95.09 151.7 95.95 163.47 93.81 163.78 92.55 147.27 95.02 147.05 99.71 154.73 98.84 146.46 100.63 146.15 102.58 162.39"/>
      <polygon class="cls-2" points="108.74 160.66 106.63 161.3 102.23 145.69 104.34 145.04 108.74 160.66"/>
      <polygon class="cls-2" points="114.45 140.86 117.12 158.11 115.04 159.14 105.9 144.5 107.91 143.65 114.26 153.64 112.5 141.71 114.45 140.86"/>
      <polygon class="cls-2" points="131.42 150.64 123.71 154.81 115.32 140.39 122.65 136.44 123.58 138.03 117.98 141.06 120.59 145.52 125.73 142.75 126.66 144.35 121.52 147.13 124.51 152.27 130.48 149.04 131.42 150.64"/>
      <path class="cls-2" d="M140.2,144.48l-1.7,1.45-5.97-4.95-1.55,1.4,4.04,5.49-1.7,1.77-9.88-13.88,3.15-2.26c1-.72,2.33-1.24,3.53-1.1,3.08.37,4.39,2.44,4.25,4.85-.05.77-.09,1.5-.39,2.26l6.21,4.96ZM129.55,134.71c-1.25-.34-2.25.63-3.15,1.33l3.29,4.34c1.01-.72,1.47-.88,2.23-2.19.33-1.58-.38-2.94-2.37-3.48"/>
      <path class="cls-2" d="M145.53,131.08c3.45,2.08,2.64,7.95-1.88,8.64-1.22.18-2.65-.19-3.27-.57l.77-1.76c.75.17,1.5.43,2.22.3,2.94-.56,2.81-3.61,1.1-4.87-.6-.44-1.45-.5-2.16-.41-1.98.21-3.25,1.69-5.45,1.83-2.41.15-4.09-1.32-4.48-3.67-.21-1.24.09-2.44.71-3.41,1.27-2,3.98-2.27,5.95-1.1l-.77,1.81c-1.07-.57-2.96-.57-3.67.55-.38.58-.5,1.17-.39,1.79.25,1.33,1.15,2.1,2.43,1.94,2.14-.26,3.58-2.02,5.69-1.95,1,.03,2.19.28,3.2.89"/>
      <polygon class="cls-2" points="152.8 128.94 151.57 130.46 137.35 121.55 138.59 120.03 152.8 128.94"/>
      <polygon class="cls-2" points="145.63 110.96 144.06 113.88 157.48 121.77 156.58 123.45 143.15 115.55 141.58 118.47 139.91 117.48 143.95 109.97 145.63 110.96"/>
      <polygon class="cls-2" points="148.09 99.87 156.28 107.19 161.75 109.53 161.08 111.38 156.02 109.41 144.35 109.14 144.92 107.27 153.06 107.4 147.29 102.11 148.09 99.87"/>
      <path class="cls-2" d="M35.88,140.84c-1.45,1.44-2.8,2.19-4.06,2.23-1.25.04-2.39-.46-3.41-1.5-.93-.95-1.39-2.05-1.38-3.31,0-.64.19-1.3.56-1.97l1.85,1.13c-.16.32-.24.62-.25.91-.02.68.19,1.26.63,1.71.62.63,1.28.92,1.96.86.69-.06,1.52-.57,2.5-1.55l8.2-8.12,1.53,1.55-8.13,8.05Z"/>
      <path class="cls-2" d="M63.77,137.99l-5.74-3.56.52-.9,2.13,1.32,3.42-5.95-2.14-1.32.46-.8c.81.5,1.45.78,1.93.84.48.07.88-.12,1.21-.57l1.23.76-4.59,8,2.08,1.29-.52.9ZM80.9,134.37c.09-.46-.06-.87-.48-1.24-.41-.37-1.05-.61-1.88-.73-.77-.11-1.43-.06-1.97.14-.55.2-.87.54-.96,1.01-.07.33,0,.64.21.9.2.27.53.53,1,.79.2.11.51.27.93.46.43.2.81.36,1.17.49.67-.22,1.15-.48,1.44-.77.29-.29.47-.64.55-1.05M80.15,139.51c.08-.42.03-.77-.17-1.05-.21-.29-.65-.6-1.32-.96-.22-.12-.52-.25-.9-.41-.38-.16-.81-.34-1.28-.54-.64.17-1.15.41-1.53.74-.38.32-.62.72-.72,1.19-.13.62.06,1.16.56,1.64.49.48,1.17.78,2.04.91.89.12,1.64.05,2.24-.22.61-.27.97-.7,1.09-1.29M76.59,142.04c-.78-.11-1.48-.28-2.09-.52-.61-.24-1.12-.53-1.51-.87-.39-.34-.65-.71-.82-1.12-.14-.41-.18-.82-.1-1.24.11-.55.45-1.02,1-1.43.54-.4,1.28-.67,2.2-.83v-.04c-.71-.4-1.21-.8-1.52-1.2-.3-.4-.4-.86-.29-1.38.15-.77.73-1.34,1.73-1.73,1-.39,2.19-.48,3.56-.29,1.44.2,2.54.6,3.3,1.21.77.6,1.07,1.29.92,2.04-.09.46-.39.88-.9,1.27-.5.39-1.17.65-2,.79v.04c.85.41,1.48.84,1.87,1.31.39.46.53,1.01.4,1.63-.18.87-.82,1.53-1.91,1.99-1.1.45-2.38.58-3.85.37M96.47,135.74c0-.7-.09-1.28-.29-1.72-.2-.44-.46-.78-.81-1.02-.3-.22-.61-.37-.93-.46-.31-.08-.65-.12-1.03-.12-.86,0-1.53.2-2.03.61-.51.41-.76.99-.76,1.77,0,.43.08.8.24,1.08.17.28.44.52.82.72.26.14.56.24.9.29.33.05.69.07,1.07.07.45,0,.92-.05,1.44-.15.52-.11.96-.25,1.34-.41,0-.07.02-.16.03-.27,0-.11.02-.24.02-.38M88.51,134.85c0-.53.13-1.02.39-1.45.26-.44.62-.82,1.07-1.14.43-.3.95-.54,1.57-.71.62-.17,1.25-.26,1.89-.26.71,0,1.36.09,1.94.24.58.16,1.08.39,1.5.69.54.38.95.87,1.24,1.48.29.62.44,1.4.44,2.34,0,.85-.15,1.66-.43,2.43-.29.77-.71,1.4-1.27,1.91-.6.54-1.32.94-2.15,1.23-.84.28-1.87.42-3.1.42-.28,0-.57-.01-.88-.03-.31-.03-.61-.07-.88-.12v-1.33h.11c.17.07.44.13.81.19.36.06.74.09,1.12.09,1.36,0,2.43-.29,3.21-.89.77-.6,1.21-1.45,1.32-2.56-.55.25-1.08.43-1.58.55-.5.11-1.05.17-1.64.17s-1.09-.04-1.57-.12c-.47-.08-.95-.24-1.42-.49-.56-.28-.98-.64-1.26-1.07-.28-.43-.43-.95-.43-1.56M111.04,126.03l-.38,10.65-1.63,1.03.14-10.07-6.22,3.02-.55-1.2,7.82-4.06.81.63Z"/>
      <g>
        <path class="cls-2" d="M114.43,39.85c-1.25-.6-.37-.82-.3-2,.06-1.01-.59-2.18-.39-2.89.55-1.92,3-1.19,4.36-.2.24.17.46.65.64,1.12.44,1.17.9,2.81-.44,3.64-1.15.72-2.79.86-3.87.33"/>
        <path class="cls-2" d="M99.95,34.19s-.08-.06-.11-.09c.04-.15.09-.29.13-.42.45-.05,4.6-1.52,4.61-1.62,1.26-.57,2.41-1.27,3.03-2.54-2.77.2-5.66,1.49-8.36,1.04-1.17-.61-1.84-1.48-2.62-2.07.01-.06.02-.1.03-.15-1.18-1.26-1.02-2.47.65-2.61,2.52,1.25,7.09.34,9.84,0,.63-.12,2.39-.3,2.96-.71,1.45-3.38,1.93-7.02,2.96-10.35,1.46-2.23,2.57-.2,3.79,1.39.05.22.34.53.54,1.07.04,0,.08.02.14.03.39,1.17.46,1.68-.77,2.39-1.07,1.49-1.84,3.24-2.23,5.19,1.9.19,3.41-1.15,5.54-.66.27,1.12,0,1.94-1.13,2.53-1.74.37-3.59.62-5.54,1-.84,1.68-2.09,3.69-3.69,4.83-.23.17-1.35.79-1.6.87-1.3.38-2.52.94-3.86.98-3.69.12-3.69-.05-4.33-.11"/>
      </g>
      <g>
        <path class="cls-2" d="M57.92,46.47c-1.53-.09-3.32-1.19-4.41-1.89-.02-.39-.04-.79-.03-1.17,2.15-3.49,4.34-6.81,6.04-10.62.33-1.62.89-3.4,1.29-5.03.03-.04.08-.09.13-.12-.03-.06-.05-.09-.06-.13.54-.91.81-1.21,1.86-.47.38.82-.77,2.3-.93,3.27,0,1.73-.07,3.51-.23,5.33q-.13.37-.48,2.36c-.58.95-1.01,3.06-1.08,4.24-.74.94-.48,2.81-1.42,3.85-.25.12-.48.25-.7.38"/>
        <path class="cls-2" d="M71.74,28.66c-1.91.65-2.92-.34-4.38-1.03-.23-.49-.04-.9-.14-1.26q.43-.3.64-.59c.75-.41,1.05-.49,1.89-.88.98-.67,3.01-3.68,4.27-3.22,1.04,2.23-.55,5.53-2.28,6.98"/>
        <path class="cls-2" d="M55.84,30.74c-.97-.35-2.25-3.2-2.67-4.1-.11-1.84,1.5-2.54,3.29-2.02,1.65,1,2.62,1.3,2.14,3.42-.84,1.62-1.39,1.93-2.75,2.7"/>
        <path class="cls-2" d="M69.25,23.83c-.54-.81-.07-3.18-.59-3.5-.43.25-.83.61-1.3.82-1.35-.1-3.14-.99-3.1-2.24.46-1.28.24-.91,1.51-1.51,1.02-1.04,2.06-2.07,3.11-3.11,1.96-1.22,3.39-.45,4.33,1.58.15,1.49-.33,2.89-.79,4.29-.88,1.05-1.63,2.13-2.39,3.2-.28.16-.54.32-.79.48"/>
        <path class="cls-2" d="M55.32,22.39c-.6-.21-.49-.5-.41-.99-.4-.85-1.2-1.35-1.58-2.17-.32-1.65-.84-2.09.14-3.33,1.16.04,5.3.45,5.24,2.71-.47,1.57-2.08,3.08-3.39,3.78"/>
      </g>
      <path class="cls-2" d="M34.11,79.27c-1.79,1.23-6.1.42-5.53-2.16-.25-.25-.38-.7-.3-1-.05-.04-.1-.06-.13-.07-.45-2.7-1.92-5.27-2.71-7.82-.42-.8-.92-1.42-.6-2.3.6-.15,1.25.49,1.75.99.26-.06.56-.71.68-1.14-.2-1.79-.05-3.85-.3-5.67-.46-.39-.92-.8-1.35-1.21-.35.92-1.52,3.91-2.54,2.3.28-1.23.45-3.27-.23-4.51-.89-.97-2.16-1.64-2.55-2.7.18-1.47,2.43-1.82,3.75-1.23,1.07.09,1.05-1.92,2.26,1.4.03.54.55.88,1.14,1.18.1-.12.19-.23.29-.36-.03-1.41-.05-2.95.07-4.46-1.32-1.33-2.43-2.45-3.21-4.06,0-1.55,1.76-2.44,3.28-2.9.49-.83.5-1.55.47-2.62q.1-.34.47-.87c.53.04.96.23,1.55.58,1.21,1.58-1.34,6.37,1.05,6.75.48-.81-.18-1.66-.55-2.33.14-1.19,1.98-2.68,3.27-3.14,1.92-.17,1.8.91,1.81,2.56.09.23.18.46.28.67q2.43,1.77,5.81,4.05c.64,1.01.9,1.59,1.15,2.79.04.02.08.04.11.06-.03.06-.05.09-.08.13.46.95.47,2.51-.66,2.65-2.77-1.88-5.52-4.01-8.22-5.72-.03.06-.05.12-.05.17,1.21,1.12,2.81,4.2,2.85,5.92-.66,1.11-1.89,1.56-3,1.26-.2-.3-.12-.55-.16-.9-.82-1.44-3.19-2.81-4.4-3.63-.46.95.48,3.74.77,4.89.05.67.09,1.36.15,2.01.82,1.01,1.66,1.94,2.58,2.96.33.57.67,1.15,1.03,1.74-.03.05-.06.09-.07.13.4.86,1.28,3.4-.37,3.4-.16-.1-.31-.19-.45-.29-.52-1.31-1.52-2.73-2.6-3.5-.38,1.29.11,2.66-.55,3.76-.54.53-1.15,1.01-1.63,1.27-.05-.04-.09-.06-.13-.07-.34.14-.75.24-.79.44.47.6.95,1.22,1.44,1.81,1.53,2.66,3.22,5,5.24,7.43.12.67.09.85-.1,1.34"/>
      <path class="cls-2" d="M22.4,68.16c-.7,0-1.05-.83-1.59-1.23-1.92-.55-3.36-.94-3.99-2.84.08-.18.18-.34.28-.51,1-.37,2.86-.6,4.11-.65,2.39.53,1.57,3.52,1.19,5.23"/>
      <path class="cls-2" d="M17.39,62.52c-.41.3-.48.23-.68.21-.26-.45-.35-.78-.8-.97-2.12-.05-4.31-1.64-3.92-3.8.38-.44.8-.17,1.61.07,1.79-.35,4.45-1.47,4.56,1.4-.19,1.04-.51,2.1-.78,3.09"/>
      <path class="cls-1" d="M126.79,65.24l-20.98-.02c-6.12,0-9.26,6-11.58,11.43l-3.54-7.96,5.94-2.19c-3.48-3.29-14.31-5.09-15.74-.13l-2.55,10.28c-2.02-4.63-4.86-11.4-11.28-11.41h-21.29c2.77,4.9,5.41,6.66,15.2,6.24l1.28,3.37-10.74.05c3.17,5.84,5,6.09,13.64,5.84l1.83,4.04-8.44.3c1.82,4.13,3.72,5.9,10.97,5.57l1.41,3.58-6.72.04c2.52,4.16,3.77,6.07,9.09,5.6l1.43,3.9h-4.66c2.01,4.49,4.35,4.68,7.21,5.13,2.57.4,2.94,5.21-.06,6.76l9.03,14.66,9.04-14.66c-3.01-1.55-2.63-6.36-.06-6.76,2.86-.45,5.2-.63,7.21-5.13h-4.65l1.43-3.9c5.32.47,6.57-1.44,9.09-5.59l-6.71-.04,1.41-3.58c7.25.34,9.16-1.44,10.97-5.57l-8.44-.3,1.83-4.04c8.64.24,10.47,0,13.64-5.85l-10.74-.04,1.29-3.38c9.78.42,12.43-1.34,15.21-6.23"/>
      <path class="cls-1" d="M158.74,55.2l.08-.18c.3-.75.29-1.07.22-1.19-.09-.18-.42-.27-.95-.41-.14-.04-.3-.06-.48-.09l-.29-.04-.09-.21c-.1-.11-.21-.22-.34-.31l-.41-.14-.09-.05.52-.4c.37-.28.79-.42,1.26-.57l.05-.12.2.08c.74-.64,1.23-1.58,1.3-2.56-.23-.31-.6-.45-1.18-.45-.74.01-1.63.29-2.43.54-.49.15-1.1.35-1.63.45l-.19-.09c-1.34-.65-1.4-.67-4.2-2.15-.2.13-.36.33-.45.56-.17.4-.14.86.08,1.29l.26.21.02.02h0s-.66.36-.66.36c-.15.08-.19.1-.17.1h0l-.19.18c.02.07.06.2.16.38l.05.3c-.01.26-.06.37-.27.61l-.08.32-.02.04h0s-.41-.32-.41-.32c-.53-.42-.58-.46-.98-.83-.11-.02-.21-.03-.34-.03-.3.01-.55.11-.66.26-.11.16-.1.38.02.67l-.04.16c-.09.4-.43,1.08-1.68,1.1h-.64c-.12-.01-.24,0-.44.09,0,.85.36.91,1.26,1.05.33.05.7.11,1.17.22.09-.03.17-.05.25-.05.19,0,.34.08.52.16l.67.26.23.07.11.05-.81.4c-.31.15-.51.26-.82.58-.06.23-.18.46-.37.68l-.03.18-.34-.08c-.6-.15-1.2-.3-1.81-.45l-.93-.24c-1.65-.43-3.69-.97-5.62-1.3-.46-.16-.9-.25-1.34-.33l-.91-.11-.04.26c.22.18.52.4.98.69l.06.15c.26.63.69,1.42,1.69,1.98.66.11,1.35.19,2.17.29,2.4.28,4.88.56,6.83,2.02l.51.26h.13s.02,0,.02,0h0s-.72.36-.72.36c-.18.09-.35.19-.57.39l-.22-.05q-2.32-.51-3.15-.78c-.83-.53-1.24-.7-1.68-.7-.33,0-.73.15-1.39.54-.04.02-.06.03-.1.05l-.03.03s-.04.02-.06.04l-.23-.09c-.25-.09-.27-.1-.96-.2-.64-.23-1.3-.44-2.01-.68-2-.65-4.06-1.33-5.78-2.47-.51-.42-.84-.81-1.12-1.14-.09-.11-.15-.18-.21-.18,0,0-.02,0-.02,0l-.17-.21c-.13.04-.34.23-.69.61-.37,1.14.66,3.85,1.58,4.64.65.28,1.34.41,2.07.55,1.22.23,2.47.47,3.67,1.47l.32.08h.03s0,.02,0,.02l-.31.41c-.4.52-.85.94-1.37,1.42l-.23.2c-.16.12-.31.25-.41.39l-.23.02c-.17.03-.32.04-.53.05-.89,0-1.66-.43-2.34-.81-.22-.12-.44-.24-.75-.31l-.12.23c.93,1.6,2.21,3.06,3.89,4.46l.14.23c.21.11.41.16.63.16h.03c1.21-.02,2.53-1.69,3.49-2.91.21-.27.4-.51.62-.74l.24-.18c.91-.67.98-.73.95-.74l.23.06c.77.21,1.27.51,2,.92.72-.31,1.46-1.05,1.39-1.83l-.3-.27c-.43-.4-.86-.8-1.31-1.19l-.23-.05.15-.37c.16-.39.4-.62.71-.94l.03-.15.31.07c1.3.3,2.46.65,3.89,1.1l1.24.41.31.23c.72.53,1.23.92,2.04.92.13,0,.25-.01.46-.08.77-.79,1.2-1.32,1.51-1.93h0s.02-.04.03-.05c-.24-.35-.34-.45-.39-.45l.23-.27c.07-.09.15-.15.37-.28,2.11-.67,4.4-1.5,6.08-2.1,1.01-.64,1.12-.7.76-1.64-.06-.15-.14-.34-.26-.6M150.54,56.45l.34-.31c.47-.43.68-.64.73-.85-.02-.08-.12-.19-.33-.34l-.11-.02c-.07,0-.13.02-.23.02-.38,0-.61-.18-.74-.33l-.16-.12v-.18s.15-.43.15-.43l-.08-.03.46-.15q1.54-.51,1.8-.66l.12-.2.3.25c.32.27,1.4,1.26,1.57,2.51l-.15.18c-.83.98-1.94,1.16-3.02,1.19l-.29.07-.15-.46-.2-.13h-.02Z"/>
      <path class="cls-1" d="M141.58,52.75c-.47,0-.91-.14-1.3-.43-.25-1,.49-2.07,1.03-2.87.19-.27.33-.47.44-.66l.09-.23.18-.35c.22-.42.43-.84.63-1.31.08-.24.14-.47.2-.7.33-1.3.58-2.13,1.24-2.36.51.08.76.16.88.34.13.19.08.46-.02.95l-.09.18c.07.17.1.39.13.62.15.77.18,1.57.1,2.3l-.04.29c-.04.28-.12.52-.2.77-.3.93-.64,1.99-1.32,2.6l-.28.26-.18.11c-.47.3-.97.46-1.46.47h-.04Z"/>
      <path class="cls-1" d="M141.58,52.71h.04c.48-.01.97-.17,1.43-.47l.18-.11.28-.25c.67-.61,1.01-1.65,1.31-2.58.08-.25.16-.49.2-.77l.04-.29c.09-.8.03-1.59-.1-2.3-.03-.22-.06-.44-.09-.65h-.04s.09-.16.09-.16c.09-.47.14-.74.03-.92-.11-.17-.35-.24-.84-.33-.63.23-.88,1.02-1.18,2.25-.07.25-.13.51-.22.79-.21.48-.42.89-.64,1.32l-.18.34-.09.24c-.11.19-.25.4-.44.66-.54.78-1.28,1.85-1.05,2.81.39.28.82.42,1.28.42"/>
      <path class="cls-1" d="M136.95,51.56c-.23,0-.52-.13-1.06-.47-.71-1.6,1.83-3.41,2.12-3.61.42.1.65.32.79.71.29.81.08,1.95-.47,2.61-.77.53-1.09.75-1.38.76h0Z"/>
      <path class="cls-1" d="M136.95,51.51h0c.28,0,.6-.22,1.34-.74.54-.64.74-1.77.46-2.56-.13-.38-.35-.6-.72-.7-.29.2-2.8,2-2.12,3.54.52.33.81.46,1.03.46"/>
    </g>
  </g>
</svg>