<?xml version="1.0" encoding="UTF-8"?>
<svg id="_图层_2" data-name="图层 2" xmlns="http://www.w3.org/2000/svg" viewBox="0 0 258.6 72.16">
  <defs>
    <style>
      .cls-1 {
        fill: #231815;
        fill-rule: evenodd;
      }
    </style>
  </defs>
  <g id="_图层_1-2" data-name="图层 1">
    <g>
      <path class="cls-1" d="M185.22,60.82c-2.76-.59-1.12-1.46-1.56-3.82-.37-2.03-2.21-4.03-2.16-5.53.16-4.07,5.37-3.81,8.53-2.51.57.23,1.23,1.08,1.8,1.92,1.45,2.09,3.15,5.12.91,7.42-1.94,1.98-5.12,3.04-7.52,2.53"/>
      <path class="cls-1" d="M153.82,56.59c-.09-.04-.18-.07-.27-.11.02-.31.04-.61.07-.88.86-.33,8.37-5.23,8.36-5.43,2.19-1.74,4.15-3.68,4.77-6.49-5.39,1.77-10.48,5.68-16.06,6.1-2.58-.64-4.35-2.04-6.16-2.83-.01-.13-.02-.22-.02-.3-2.95-1.93-3.21-4.4.03-5.47,5.61,1.24,14.2-2.76,19.48-4.78,1.18-.52,4.6-1.74,5.52-2.82,1.24-7.4.43-14.83.87-21.91,1.81-5.12,5-1.64,8.16.92.21.43.94.89,1.58,1.86.09,0,.17-.01.31-.02,1.34,2.13,1.72,3.11-.37,5.1-1.41,3.47-2.09,7.34-1.91,11.35,3.85-.55,6.18-3.92,10.65-3.99,1.07,2.07.93,3.83-1.04,5.55-3.25,1.56-6.78,2.96-10.47,4.63-.86,3.74-2.35,8.32-4.98,11.36-.39.44-2.29,2.21-2.75,2.48-2.39,1.39-4.54,3.08-7.16,3.82-7.24,2.01-7.32,1.68-8.62,1.86"/>
      <path class="cls-1" d="M84.65,69.22c-2.66-1.23-5.08-4.43-6.52-6.44.24-.71.49-1.42.77-2.1,6.27-4.7,12.49-9.06,18.17-14.66,1.72-2.65,3.97-5.41,5.82-8.03.08-.04.2-.1.32-.1,0-.12-.01-.2-.02-.28,1.61-1.25,2.28-1.58,3.64.47.1,1.71-2.98,3.55-3.95,5.16-1.2,3.07-2.57,6.18-4.14,9.32q-.5.56-2.51,3.85c-1.68,1.3-3.93,4.71-4.88,6.78-1.98,1.15-2.83,4.65-5.21,5.87-.53.03-1.02.1-1.51.17"/>
      <path class="cls-1" d="M121.69,47.23c-3.87-.17-4.97-2.64-7.08-4.89-.06-1.02.55-1.63.63-2.33q.97-.23,1.56-.59c1.63-.23,2.21-.14,3.96-.25,2.23-.5,7.93-4.43,9.85-2.75.29,4.7-4.83,9.45-8.93,10.81"/>
      <path class="cls-1" d="M91.97,39.81c-1.48-1.3-1.77-7.27-1.89-9.15,1.1-3.35,4.46-3.47,7.27-1.31,2.23,2.93,3.74,4.15,1.41,7.58-2.65,2.3-3.82,2.45-6.79,2.88"/>
      <path class="cls-1" d="M120.64,36.92c-.4-1.82,2.1-5.71,1.39-6.65-.93.14-1.9.49-2.88.55-2.33-1.12-4.88-3.96-3.95-6.15,1.72-1.95,1.06-1.46,3.75-1.63,2.56-1.14,5.11-2.25,7.71-3.35,4.35-.81,6.34,1.57,6.61,5.82-.77,2.75-2.61,4.92-4.4,7.08-2.3,1.25-4.39,2.65-6.48,4.01-.61.08-1.18.19-1.74.31"/>
      <path class="cls-1" d="M96.89,24.62c-.92-.81-.53-1.24-.05-2.05-.11-1.8-1.19-3.25-1.29-4.96.58-3.15-.02-4.3,2.59-5.82,2.03.9,9.11,4.52,7.42,8.47-1.94,2.46-5.87,4.02-8.67,4.36"/>
      <path class="cls-1" d="M5.27,72.16c-4.2-1.62-7.89-9.95-2.8-12,.14-.73.76-1.47,1.37-1.69,0-.13-.01-.22-.02-.31,4.08-3.95,6.77-9.47,10.2-13.83.88-1.66,1.36-3.25,3.24-3.73.94.84.62,2.73.35,4.17.42.37,1.88.1,2.75-.17,2.84-2.45,6.54-4.6,9.36-7.18.15-1.26.29-2.52.48-3.73-1.98.48-8.48,2-6.93-1.66,2.44-.96,6.14-3.06,7.45-5.69.63-2.66.27-5.63,1.62-7.54,2.72-1.42,5.97,2.03,6.51,4.99,1.1,1.94,4.52-.47.25,5.52-.9.67-.86,1.96-.68,3.34.31.02.62.05.94.07,2.39-1.71,5-3.57,7.71-5.12.74-3.84,1.35-7.04,3.2-10.28,2.65-1.81,6.25.15,8.83,2.22,2-.12,3.24-.96,5.03-2.28q.7-.22,2.04-.21c.54.95.74,1.91.83,3.33-1.27,3.91-12.47,5.19-10.32,9.74,1.96-.12,2.63-2.26,3.34-3.69,2.2-1.16,6.92.24,9.21,1.92,2.56,3.1.57,4.16-2.25,6.11-.29.42-.57.84-.81,1.25q-.19,6.26-.11,14.72c-.97,2.29-1.66,3.4-3.42,5.25,0,.09.01.18.02.27-.14,0-.22.01-.31.02-1.09,1.89-3.73,3.75-5.32,1.98-.03-6.95.37-14.16.13-20.78-.13.01-.26.06-.35.11-.5,3.38-3.9,9.74-6.8,11.83-2.67.16-4.91-1.39-5.67-3.66.27-.68.79-.85,1.34-1.33,1.5-3.08,1.06-8.76,1.05-11.79-2.17.31-5.83,5.23-7.45,7.06-1.11.87-2.21,1.75-3.27,2.61-.77,2.58-1.38,5.12-2.05,7.88-.59,1.24-1.18,2.53-1.77,3.81-.14.01-.22.01-.31.02-1.01,1.71-4.3,6.2-6.26,3.38-.02-.4-.05-.75-.02-1.11,1.63-2.42,2.89-5.8,2.94-8.56-2.67.88-4.43,3.31-7.1,3.47-1.53-.31-3.08-.79-4.09-1.31-.01-.13-.01-.22-.02-.31-.65-.41-1.31-.99-1.7-.83-.49,1.5-.97,3.05-1.41,4.59-2.76,5.74-4.77,11.39-6.57,17.7-1.01,1-1.35,1.16-2.41,1.4"/>
      <path class="cls-1" d="M10.52,39.06c-.83-1.2.18-2.78.23-4.16-1.31-3.93-2.34-6.85.17-10.18.4-.07.8-.09,1.2-.12,1.82,1.27,4.41,4.18,5.97,6.28,1.9,4.7-4.17,6.81-7.56,8.18"/>
      <path class="cls-1" d="M14.3,23.84c-1-.33-.97-.56-1.17-.91.47-.96.93-1.52.73-2.5-2.41-3.68-2.27-9.31,1.89-11.17,1.21.15,1.23,1.18,1.78,2.83,2.71,2.64,7.75,5.9,2.97,9.46-2.01.89-4.2,1.58-6.21,2.28"/>
      <path class="cls-1" d="M215.18,38.27c-3.77-1.17-3.06-7.36-2.42-9.86,2.75-1.75,6.36,1.89,6.56,5.12-.7,3.56-.67,4.08-4.14,4.74"/>
      <path class="cls-1" d="M235.56,66.81c-.14-.08-.23-.17-.32-.2-4.82.3-9.42-.16-13.74-1.69q-.2-.38-.23-.95c2.54-1.47,6.13-1.08,8.07-3.75.31-2.08.55-3.86.35-5.64-4.78.29-7.33,3.67-11.12,5.04-3.24.21-9-2.73-9.95-5.3,0-4.17.87-2.29,5.33-2.57,5.31-.94,10.61-3.99,15.75-6.24q1.08-.82,1.69-1.08c1.14-3.45,1.94-4.07,5.55-4.78q1.4-.7,5.51-3.2c.11-.4.21-.81.37-1.21-6.24.74-11.29,5.8-16.27,9.13-2.46.68-4.34.27-6.05-.5-1.09.15-7.31,1.25-4.3-1.23,1.85-.72,3.26-2.05,5.23-2.91,4.68-3.15,10.1-5.85,15.15-8.76-.05-.79-.34-1.21-.49-1.42.02-1.06.21-1.59.51-2.41-.95.33-1.21.26-1.39.97-3,1.32-4.27,4.04-6.78,1.17-.68,2.63-2.54,4.46-5.16,4.62-2.68-1.37-2.74-5.85-3.22-7.92-.19-.25-.56-1.98-1.31-4-1.21-2.46-3.45-5.23-1.96-7.47,1.9-1.17,2.66-1.61,4.28.97,1.39,1.05,3.15,2.48,4.53,4.33.09,0,.18-.01.31-.02.85,2.28,2.93,5.27,2.71,8.17,1.4-.83,3.41-2.45,2.37-4.23-2.32-1.26-1-3.4.62-4.21q1.14.06,2.63-.08c-.03-.56-.08-.56-.36-.9-1.93-.67-1.57-1.13-1.04-2.7-2.25-.82-3.1-3.18-2.24-4.86q6.53-1.63,9.6-2.62c2.04-2.54,4.24-9.48,8.19-8.2,1.23,1.47,2.09,3.91,1.85,6.34-.5,1.04-1.2,1.92-1.39,3.07.39-.03.79,0,1.18.01,2.73-1.35,3.99-2.97,5.61,1.1,2.64,1.42,3.58,1.05,2.59,4.89-1.92,3.85-3.99,7.98-6.12,11.84-.03.18-.07.36-.05.53.49.1.98.21,1.47.35.29,1.74.33,3.89.29,6-1.65,2.43-3.72,2.42-6.33,2.76-3.32,1.65-6.31,3.03-9.45,4.89,0,.62-.1,1.24.22,2.05,1.58-.05,3.2-.06,4.83-.08,1.79,1.16,1.64,4.42.53,6.33-1.83.25-2.92.49-4.32,1.24-.17.89-.33,1.78-.49,2.71.13,3.46,1.92,11.82-3.21,12.63M245.78,24.12c1.61-1.64,2.74-3.24,2.6-5.48-1.34-1.18-3.69-1.35-5.09-1.26q-.18.63-1.8,3.63c.14.08.32.15.5.23-.17.05-.35.11-.47.21,0,.09.06.17.11.3.71.09,1.11-.46,1.43-.96,2.53-.42,2.58.5,2.4,3.19.09.04.18.08.32.16"/>
    </g>
  </g>
</svg>