<?xml version="1.0" encoding="utf-8" standalone="no"?>
<!DOCTYPE svg PUBLIC "-//W3C//DTD SVG 1.1//EN"
  "http://www.w3.org/Graphics/SVG/1.1/DTD/svg11.dtd">
<svg xmlns:xlink="http://www.w3.org/1999/xlink" width="720pt" height="432pt" viewBox="0 0 720 432" xmlns="http://www.w3.org/2000/svg" version="1.1">
 <metadata>
  <rdf:RDF xmlns:dc="http://purl.org/dc/elements/1.1/" xmlns:cc="http://creativecommons.org/ns#" xmlns:rdf="http://www.w3.org/1999/02/22-rdf-syntax-ns#">
   <cc:Work>
    <dc:type rdf:resource="http://purl.org/dc/dcmitype/StillImage"/>
    <dc:date>2025-04-12T16:48:52.832289</dc:date>
    <dc:format>image/svg+xml</dc:format>
    <dc:creator>
     <cc:Agent>
      <dc:title>Matplotlib v3.10.1, https://matplotlib.org/</dc:title>
     </cc:Agent>
    </dc:creator>
   </cc:Work>
  </rdf:RDF>
 </metadata>
 <defs>
  <style type="text/css">*{stroke-linejoin: round; stroke-linecap: butt}</style>
 </defs>
 <g id="figure_1">
  <g id="patch_1">
   <path d="M 0 432 
L 720 432 
L 720 0 
L 0 0 
z
" style="fill: #ffffff"/>
  </g>
  <g id="axes_1">
   <g id="patch_2">
    <path d="M 51.831875 389.213125 
L 709.2 389.213125 
L 709.2 10.8 
L 51.831875 10.8 
z
" style="fill: #ffffff"/>
   </g>
   <g id="PathCollection_1">
    <defs>
     <path id="m00f9282bee" d="M 0 3.535534 
C 0.937635 3.535534 1.836992 3.163008 2.5 2.5 
C 3.163008 1.836992 3.535534 0.937635 3.535534 0 
C 3.535534 -0.937635 3.163008 -1.836992 2.5 -2.5 
C 1.836992 -3.163008 0.937635 -3.535534 0 -3.535534 
C -0.937635 -3.535534 -1.836992 -3.163008 -2.5 -2.5 
C -3.163008 -1.836992 -3.535534 -0.937635 -3.535534 0 
C -3.535534 0.937635 -3.163008 1.836992 -2.5 2.5 
C -1.836992 3.163008 -0.937635 3.535534 0 3.535534 
z
" style="stroke: #0000ff; stroke-opacity: 0.7"/>
    </defs>
    <g clip-path="url(#pe7a486c733)">
     <use xlink:href="#m00f9282bee" x="81.712244" y="370.321622" style="fill: #0000ff; fill-opacity: 0.7; stroke: #0000ff; stroke-opacity: 0.7"/>
     <use xlink:href="#m00f9282bee" x="83.738032" y="368.968897" style="fill: #0000ff; fill-opacity: 0.7; stroke: #0000ff; stroke-opacity: 0.7"/>
     <use xlink:href="#m00f9282bee" x="85.76382" y="367.394606" style="fill: #0000ff; fill-opacity: 0.7; stroke: #0000ff; stroke-opacity: 0.7"/>
     <use xlink:href="#m00f9282bee" x="87.789608" y="366.181818" style="fill: #0000ff; fill-opacity: 0.7; stroke: #0000ff; stroke-opacity: 0.7"/>
     <use xlink:href="#m00f9282bee" x="89.815395" y="365.015676" style="fill: #0000ff; fill-opacity: 0.7; stroke: #0000ff; stroke-opacity: 0.7"/>
     <use xlink:href="#m00f9282bee" x="91.841183" y="363.849533" style="fill: #0000ff; fill-opacity: 0.7; stroke: #0000ff; stroke-opacity: 0.7"/>
     <use xlink:href="#m00f9282bee" x="101.970122" y="361.517249" style="fill: #0000ff; fill-opacity: 0.7; stroke: #0000ff; stroke-opacity: 0.7"/>
     <use xlink:href="#m00f9282bee" x="112.099061" y="355.686538" style="fill: #0000ff; fill-opacity: 0.7; stroke: #0000ff; stroke-opacity: 0.7"/>
     <use xlink:href="#m00f9282bee" x="122.227999" y="350.438899" style="fill: #0000ff; fill-opacity: 0.7; stroke: #0000ff; stroke-opacity: 0.7"/>
     <use xlink:href="#m00f9282bee" x="132.356938" y="345.191259" style="fill: #0000ff; fill-opacity: 0.7; stroke: #0000ff; stroke-opacity: 0.7"/>
     <use xlink:href="#m00f9282bee" x="152.614816" y="332.946767" style="fill: #0000ff; fill-opacity: 0.7; stroke: #0000ff; stroke-opacity: 0.7"/>
     <use xlink:href="#m00f9282bee" x="172.872693" y="322.451487" style="fill: #0000ff; fill-opacity: 0.7; stroke: #0000ff; stroke-opacity: 0.7"/>
     <use xlink:href="#m00f9282bee" x="213.388448" y="300.294787" style="fill: #0000ff; fill-opacity: 0.7; stroke: #0000ff; stroke-opacity: 0.7"/>
     <use xlink:href="#m00f9282bee" x="253.904203" y="275.805802" style="fill: #0000ff; fill-opacity: 0.7; stroke: #0000ff; stroke-opacity: 0.7"/>
     <use xlink:href="#m00f9282bee" x="294.419958" y="253.06603" style="fill: #0000ff; fill-opacity: 0.7; stroke: #0000ff; stroke-opacity: 0.7"/>
     <use xlink:href="#m00f9282bee" x="334.935713" y="234.407756" style="fill: #0000ff; fill-opacity: 0.7; stroke: #0000ff; stroke-opacity: 0.7"/>
     <use xlink:href="#m00f9282bee" x="375.451468" y="206.420344" style="fill: #0000ff; fill-opacity: 0.7; stroke: #0000ff; stroke-opacity: 0.7"/>
     <use xlink:href="#m00f9282bee" x="415.967223" y="187.76207" style="fill: #0000ff; fill-opacity: 0.7; stroke: #0000ff; stroke-opacity: 0.7"/>
     <use xlink:href="#m00f9282bee" x="456.482978" y="160.940801" style="fill: #0000ff; fill-opacity: 0.7; stroke: #0000ff; stroke-opacity: 0.7"/>
     <use xlink:href="#m00f9282bee" x="496.998733" y="139.950242" style="fill: #0000ff; fill-opacity: 0.7; stroke: #0000ff; stroke-opacity: 0.7"/>
     <use xlink:href="#m00f9282bee" x="537.514488" y="118.959684" style="fill: #0000ff; fill-opacity: 0.7; stroke: #0000ff; stroke-opacity: 0.7"/>
     <use xlink:href="#m00f9282bee" x="578.030243" y="100.301409" style="fill: #0000ff; fill-opacity: 0.7; stroke: #0000ff; stroke-opacity: 0.7"/>
     <use xlink:href="#m00f9282bee" x="679.319631" y="144.614811" style="fill: #0000ff; fill-opacity: 0.7; stroke: #0000ff; stroke-opacity: 0.7"/>
    </g>
   </g>
   <g id="matplotlib.axis_1">
    <g id="xtick_1">
     <g id="line2d_1">
      <path d="M 71.583306 389.213125 
L 71.583306 10.8 
" clip-path="url(#pe7a486c733)" style="fill: none; stroke: #b0b0b0; stroke-opacity: 0.3; stroke-width: 0.8; stroke-linecap: square"/>
     </g>
     <g id="line2d_2">
      <defs>
       <path id="m26ef6419e3" d="M 0 0 
L 0 3.5 
" style="stroke: #000000; stroke-width: 0.8"/>
      </defs>
      <g>
       <use xlink:href="#m26ef6419e3" x="71.583306" y="389.213125" style="stroke: #000000; stroke-width: 0.8"/>
      </g>
     </g>
     <g id="text_1">
      <!-- 0 -->
      <g transform="translate(68.551274 403.258438) scale(0.1 -0.1)">
       <defs>
        <path id="SFProDisplay-Regular-30" d="M 1938 -75 
C 2975 -75 3597 822 3597 2253 
L 3597 2259 
C 3597 3691 2975 4584 1938 4584 
C 900 4584 284 3691 284 2259 
L 284 2253 
C 284 822 900 -75 1938 -75 
z
M 1938 416 
C 1250 416 850 1122 850 2253 
L 850 2259 
C 850 3391 1250 4091 1938 4091 
C 2625 4091 3031 3391 3031 2259 
L 3031 2253 
C 3031 1122 2625 416 1938 416 
z
" transform="scale(0.015625)"/>
       </defs>
       <use xlink:href="#SFProDisplay-Regular-30"/>
      </g>
     </g>
    </g>
    <g id="xtick_2">
     <g id="line2d_3">
      <path d="M 172.872693 389.213125 
L 172.872693 10.8 
" clip-path="url(#pe7a486c733)" style="fill: none; stroke: #b0b0b0; stroke-opacity: 0.3; stroke-width: 0.8; stroke-linecap: square"/>
     </g>
     <g id="line2d_4">
      <g>
       <use xlink:href="#m26ef6419e3" x="172.872693" y="389.213125" style="stroke: #000000; stroke-width: 0.8"/>
      </g>
     </g>
     <g id="text_2">
      <!-- 50 -->
      <g transform="translate(166.915662 403.258438) scale(0.1 -0.1)">
       <defs>
        <path id="SFProDisplay-Regular-35" d="M 1916 -75 
C 2853 -75 3519 556 3522 1459 
L 3522 1466 
C 3522 2331 2897 2959 2031 2959 
C 1594 2959 1219 2797 1006 2494 
L 994 2494 
L 1147 4009 
L 3266 4009 
L 3266 4509 
L 684 4509 
L 453 1938 
L 950 1938 
C 1009 2041 1081 2128 1163 2203 
C 1363 2384 1625 2475 1931 2475 
C 2528 2475 2956 2050 2959 1456 
L 2959 1450 
C 2959 844 2534 419 1922 419 
C 1381 419 981 759 925 1206 
L 922 1231 
L 369 1231 
L 372 1197 
C 438 463 1053 -75 1916 -75 
z
" transform="scale(0.015625)"/>
       </defs>
       <use xlink:href="#SFProDisplay-Regular-35"/>
       <use xlink:href="#SFProDisplay-Regular-30" transform="translate(58.496094 0)"/>
      </g>
     </g>
    </g>
    <g id="xtick_3">
     <g id="line2d_5">
      <path d="M 274.162081 389.213125 
L 274.162081 10.8 
" clip-path="url(#pe7a486c733)" style="fill: none; stroke: #b0b0b0; stroke-opacity: 0.3; stroke-width: 0.8; stroke-linecap: square"/>
     </g>
     <g id="line2d_6">
      <g>
       <use xlink:href="#m26ef6419e3" x="274.162081" y="389.213125" style="stroke: #000000; stroke-width: 0.8"/>
      </g>
     </g>
     <g id="text_3">
      <!-- 100 -->
      <g transform="translate(265.880831 403.258438) scale(0.1 -0.1)">
       <defs>
        <path id="SFProDisplay-Regular-31" d="M 1516 0 
L 2059 0 
L 2059 4509 
L 1509 4509 
L 309 3647 
L 309 3081 
L 1503 3913 
L 1516 3913 
L 1516 0 
z
" transform="scale(0.015625)"/>
       </defs>
       <use xlink:href="#SFProDisplay-Regular-31"/>
       <use xlink:href="#SFProDisplay-Regular-30" transform="translate(44.335938 0)"/>
       <use xlink:href="#SFProDisplay-Regular-30" transform="translate(104.980469 0)"/>
      </g>
     </g>
    </g>
    <g id="xtick_4">
     <g id="line2d_7">
      <path d="M 375.451468 389.213125 
L 375.451468 10.8 
" clip-path="url(#pe7a486c733)" style="fill: none; stroke: #b0b0b0; stroke-opacity: 0.3; stroke-width: 0.8; stroke-linecap: square"/>
     </g>
     <g id="line2d_8">
      <g>
       <use xlink:href="#m26ef6419e3" x="375.451468" y="389.213125" style="stroke: #000000; stroke-width: 0.8"/>
      </g>
     </g>
     <g id="text_4">
      <!-- 150 -->
      <g transform="translate(367.277249 403.258438) scale(0.1 -0.1)">
       <use xlink:href="#SFProDisplay-Regular-31"/>
       <use xlink:href="#SFProDisplay-Regular-35" transform="translate(44.335938 0)"/>
       <use xlink:href="#SFProDisplay-Regular-30" transform="translate(102.832031 0)"/>
      </g>
     </g>
    </g>
    <g id="xtick_5">
     <g id="line2d_9">
      <path d="M 476.740856 389.213125 
L 476.740856 10.8 
" clip-path="url(#pe7a486c733)" style="fill: none; stroke: #b0b0b0; stroke-opacity: 0.3; stroke-width: 0.8; stroke-linecap: square"/>
     </g>
     <g id="line2d_10">
      <g>
       <use xlink:href="#m26ef6419e3" x="476.740856" y="389.213125" style="stroke: #000000; stroke-width: 0.8"/>
      </g>
     </g>
     <g id="text_5">
      <!-- 200 -->
      <g transform="translate(467.847106 403.258438) scale(0.1 -0.1)">
       <defs>
        <path id="SFProDisplay-Regular-32" d="M 366 0 
L 3341 0 
L 3341 500 
L 1138 500 
L 1138 513 
L 2209 1613 
C 3038 2459 3266 2831 3266 3325 
L 3266 3331 
C 3266 4038 2669 4584 1853 4584 
C 1013 4584 338 4006 338 3225 
L 338 3206 
L 881 3206 
L 881 3222 
C 881 3706 1300 4094 1863 4094 
C 2353 4094 2700 3763 2703 3303 
L 2703 3297 
C 2703 2922 2563 2678 1953 2044 
L 366 388 
L 366 0 
z
" transform="scale(0.015625)"/>
       </defs>
       <use xlink:href="#SFProDisplay-Regular-32"/>
       <use xlink:href="#SFProDisplay-Regular-30" transform="translate(56.591797 0)"/>
       <use xlink:href="#SFProDisplay-Regular-30" transform="translate(117.236328 0)"/>
      </g>
     </g>
    </g>
    <g id="xtick_6">
     <g id="line2d_11">
      <path d="M 578.030243 389.213125 
L 578.030243 10.8 
" clip-path="url(#pe7a486c733)" style="fill: none; stroke: #b0b0b0; stroke-opacity: 0.3; stroke-width: 0.8; stroke-linecap: square"/>
     </g>
     <g id="line2d_12">
      <g>
       <use xlink:href="#m26ef6419e3" x="578.030243" y="389.213125" style="stroke: #000000; stroke-width: 0.8"/>
      </g>
     </g>
     <g id="text_6">
      <!-- 250 -->
      <g transform="translate(569.243524 403.258438) scale(0.1 -0.1)">
       <use xlink:href="#SFProDisplay-Regular-32"/>
       <use xlink:href="#SFProDisplay-Regular-35" transform="translate(56.591797 0)"/>
       <use xlink:href="#SFProDisplay-Regular-30" transform="translate(115.087891 0)"/>
      </g>
     </g>
    </g>
    <g id="xtick_7">
     <g id="line2d_13">
      <path d="M 679.319631 389.213125 
L 679.319631 10.8 
" clip-path="url(#pe7a486c733)" style="fill: none; stroke: #b0b0b0; stroke-opacity: 0.3; stroke-width: 0.8; stroke-linecap: square"/>
     </g>
     <g id="line2d_14">
      <g>
       <use xlink:href="#m26ef6419e3" x="679.319631" y="389.213125" style="stroke: #000000; stroke-width: 0.8"/>
      </g>
     </g>
     <g id="text_7">
      <!-- 300 -->
      <g transform="translate(670.296193 403.258438) scale(0.1 -0.1)">
       <defs>
        <path id="SFProDisplay-Regular-33" d="M 1884 -75 
C 2788 -75 3450 481 3450 1234 
L 3450 1241 
C 3450 1881 3003 2291 2347 2347 
L 2347 2359 
C 2909 2478 3303 2859 3303 3416 
L 3303 3422 
C 3303 4106 2738 4584 1878 4584 
C 1034 4584 453 4094 381 3359 
L 378 3328 
L 919 3328 
L 922 3359 
C 969 3816 1347 4097 1878 4097 
C 2428 4097 2738 3825 2738 3353 
L 2738 3347 
C 2738 2897 2363 2566 1825 2566 
L 1284 2566 
L 1284 2091 
L 1850 2091 
C 2481 2091 2878 1781 2878 1228 
L 2878 1222 
C 2878 744 2475 413 1884 413 
C 1284 413 878 719 831 1163 
L 828 1194 
L 288 1194 
L 291 1156 
C 350 444 953 -75 1884 -75 
z
" transform="scale(0.015625)"/>
       </defs>
       <use xlink:href="#SFProDisplay-Regular-33"/>
       <use xlink:href="#SFProDisplay-Regular-30" transform="translate(59.179688 0)"/>
       <use xlink:href="#SFProDisplay-Regular-30" transform="translate(119.824219 0)"/>
      </g>
     </g>
    </g>
    <g id="text_8">
     <!-- 实际频率 (Hz) -->
     <g transform="translate(344.414688 418.624063) scale(0.12 -0.12)">
      <defs>
       <path id="FZHTK--GBK1-0-5b9e" d="M 3325 3725 
Q 3975 3725 4025 3600 
Q 4050 3550 3975 3475 
Q 3900 3375 3900 3325 
Q 3800 2150 3750 1725 
L 4800 1725 
Q 5525 1750 5925 1800 
L 5925 1225 
Q 5425 1275 4825 1275 
L 3650 1275 
Q 3175 125 975 -550 
Q 925 -475 875 -375 
Q 750 -125 475 50 
Q 2350 200 3125 1275 
L 1750 1275 
Q 1300 1275 525 1225 
L 525 1775 
Q 1200 1725 1725 1725 
L 3250 1725 
Q 3375 2225 3325 3725 
z
M 2025 3625 
Q 2675 3325 3050 2975 
L 2700 2575 
Q 2325 2950 1700 3250 
L 2025 3625 
z
M 1500 2825 
Q 2025 2600 2575 2200 
L 2175 1875 
Q 1800 2150 1125 2475 
L 1500 2825 
z
M 3875 1025 
Q 5100 450 5750 -50 
L 5275 -575 
Q 4625 75 3550 575 
L 3875 1025 
z
M 3525 5050 
Q 3600 4775 3625 4675 
Q 3650 4550 3675 4475 
Q 3700 4450 3700 4425 
L 5175 4425 
Q 5350 4425 5750 4475 
Q 5750 4475 5700 3975 
L 5700 3700 
Q 5700 3425 5750 3225 
L 5125 3225 
Q 5175 3375 5175 3700 
L 5175 3950 
L 1225 3950 
L 1225 3750 
Q 1225 3475 1275 3275 
L 650 3275 
Q 700 3400 700 3750 
L 700 3950 
Q 700 4300 650 4475 
Q 875 4425 1225 4425 
L 3125 4425 
Q 3100 4550 3000 4800 
Q 2950 4925 2925 4975 
L 3525 5050 
z
" transform="scale(0.015625)"/>
       <path id="FZHTK--GBK1-0-9645" d="M 675 4825 
Q 825 4825 1225 4800 
Q 1500 4775 1575 4775 
L 1725 4775 
Q 2075 4775 2625 4825 
Q 2675 4850 2650 4775 
Q 2625 4675 2400 4075 
Q 2000 2925 2000 2900 
Q 2000 2875 2075 2800 
Q 2350 2450 2450 2100 
Q 2725 975 1450 775 
Q 1450 1150 1275 1400 
Q 1850 1275 1975 1650 
Q 2100 2125 1500 2800 
Q 1450 2850 1450 2850 
Q 1450 2875 1525 3050 
Q 1800 3725 2000 4350 
L 1200 4350 
L 1200 975 
Q 1225 75 1250 -350 
L 625 -350 
Q 675 100 675 950 
L 675 3725 
Q 675 4500 650 4775 
Q 650 4850 675 4825 
z
M 2950 4700 
Q 3050 4700 3325 4675 
Q 3700 4650 3925 4650 
L 4500 4650 
Q 5225 4675 5575 4700 
L 5575 4175 
Q 5150 4200 4550 4225 
L 3925 4225 
Q 3425 4225 2950 4175 
L 2950 4700 
z
M 2500 3350 
Q 2900 3300 3400 3300 
L 4750 3300 
Q 5400 3325 5900 3350 
L 5900 2800 
Q 5450 2825 4825 2850 
L 4350 2850 
Q 4375 1800 4375 850 
Q 4400 25 4375 -75 
Q 4275 -375 3325 -450 
Q 3325 -125 3000 225 
Q 3675 125 3825 200 
Q 3875 300 3850 2850 
L 3425 2850 
Q 2925 2850 2500 2800 
L 2500 3350 
z
M 2950 2225 
L 3550 2025 
Q 3200 1000 2600 100 
Q 2375 300 2000 350 
Q 2725 1275 2950 2225 
z
M 5100 2200 
Q 5550 1500 6125 475 
L 5525 225 
Q 5150 1225 4625 1975 
L 5100 2200 
z
" transform="scale(0.015625)"/>
       <path id="FZHTK--GBK1-0-9891" d="M 1675 5125 
Q 2250 5125 2275 5025 
Q 2275 5000 2225 4925 
Q 2150 4800 2150 4675 
L 2150 4150 
Q 2775 4175 3075 4175 
L 3075 3725 
Q 2875 3750 2150 3750 
L 2150 3075 
L 2325 3075 
Q 2500 3075 3150 3125 
L 3150 2625 
Q 2525 2650 2350 2650 
L 2125 2650 
L 2125 1025 
Q 2475 1675 2575 2225 
Q 2625 2200 2750 2175 
Q 3125 2050 3100 2000 
Q 3100 1975 3075 1925 
Q 2950 1775 2875 1550 
Q 2400 175 600 -425 
Q 500 -200 175 75 
Q 1275 350 1700 650 
L 1700 2650 
L 850 2650 
Q 625 2650 275 2600 
L 275 3100 
Q 325 3100 450 3100 
Q 600 3075 675 3075 
L 775 3075 
L 775 4150 
Q 775 4375 725 4625 
Q 1275 4625 1300 4550 
Q 1300 4500 1275 4425 
Q 1200 4300 1200 4175 
L 1200 3075 
L 1725 3075 
L 1725 4650 
Q 1725 4950 1675 5125 
z
M 3050 4850 
Q 3550 4800 3900 4800 
L 5125 4800 
Q 5675 4800 6050 4850 
L 6050 4325 
Q 5675 4375 5150 4375 
L 4725 4375 
L 4600 3600 
L 5025 3600 
Q 5650 3600 5875 3625 
Q 5825 3350 5800 2825 
L 5800 1750 
Q 5800 1225 5850 875 
L 5325 875 
Q 5350 1050 5350 1775 
L 5350 3150 
L 3800 3150 
L 3800 1725 
Q 3800 1150 3825 875 
L 3325 875 
Q 3350 1025 3350 1750 
L 3350 2875 
Q 3350 3400 3325 3625 
Q 3450 3600 4000 3600 
L 4200 3600 
L 4250 4375 
L 3900 4375 
Q 3325 4375 3050 4350 
L 3050 4850 
z
M 4900 2700 
Q 4925 2675 4875 2575 
Q 4800 2400 4775 2200 
Q 4675 825 4375 475 
Q 3850 -150 2975 -550 
Q 2825 -350 2450 -125 
Q 3450 200 3750 500 
Q 4400 1025 4300 2800 
Q 4325 2800 4400 2800 
Q 4900 2750 4900 2700 
z
M 925 2375 
L 1400 2225 
Q 1375 2150 1275 1900 
Q 1025 1200 900 950 
Q 725 1075 400 1100 
Q 775 1725 925 2375 
z
M 4975 725 
Q 5575 350 6100 -250 
L 5650 -600 
Q 5100 50 4600 400 
L 4975 725 
z
" transform="scale(0.015625)"/>
       <path id="FZHTK--GBK1-0-7387" d="M 3450 5150 
Q 3525 4925 3600 4525 
L 4775 4525 
Q 5200 4525 5750 4575 
L 5750 4075 
Q 5400 4125 4775 4125 
L 2950 4125 
Q 3400 3875 3375 3800 
Q 3350 3775 3300 3750 
Q 3000 3525 2550 3000 
L 3400 3100 
Q 3575 3325 3825 3675 
Q 4350 3325 4325 3225 
Q 4325 3225 4300 3200 
Q 4125 3175 3925 3000 
Q 3825 2925 3350 2500 
Q 2900 2100 2650 1875 
L 3850 1925 
Q 3700 2150 3575 2300 
L 4025 2525 
Q 4475 1975 4650 1475 
L 4150 1275 
Q 4025 1550 3975 1625 
L 3450 1600 
L 3450 900 
L 5025 900 
Q 5525 900 6000 950 
L 6000 425 
Q 5600 475 5025 475 
L 3450 475 
L 3450 300 
Q 3450 -250 3500 -625 
L 2950 -625 
Q 3000 -125 3000 300 
L 3000 475 
L 1300 475 
Q 850 475 400 425 
L 400 950 
Q 900 900 1300 900 
L 3000 900 
L 3000 1550 
Q 2425 1475 2100 1350 
Q 2000 1700 1925 1900 
Q 2150 1950 3100 2725 
Q 3125 2750 3150 2775 
Q 2400 2675 2125 2550 
Q 2100 2525 2075 2525 
Q 2025 2825 1925 3000 
Q 2525 3275 2825 4125 
L 1550 4125 
Q 1225 4125 725 4075 
Q 775 4075 625 4075 
L 625 4575 
Q 750 4575 1100 4550 
Q 1425 4525 1525 4525 
L 3050 4525 
Q 3075 4575 2925 4875 
Q 2875 5000 2850 5075 
L 3450 5150 
z
M 5175 3850 
L 5550 3450 
Q 5150 3075 4700 2700 
Q 4600 2850 4325 3025 
Q 4775 3300 5175 3850 
z
M 1125 3775 
Q 1700 3375 1900 3175 
L 1550 2875 
Q 1150 3250 750 3425 
L 1125 3775 
z
M 1750 2600 
Q 1775 2350 1950 2125 
Q 1575 1800 925 1325 
L 575 1800 
Q 1050 2025 1750 2600 
z
M 4775 2575 
Q 5125 2375 5825 1875 
L 5425 1425 
Q 5175 1750 4425 2200 
L 4775 2575 
z
" transform="scale(0.015625)"/>
       <path id="SFProDisplay-Regular-20" transform="scale(0.015625)"/>
       <path id="SFProDisplay-Regular-28" d="M 1481 -1094 
L 1938 -1094 
C 1488 -572 1147 666 1147 1709 
C 1147 2753 1488 3988 1938 4509 
L 1481 4509 
C 872 3734 594 2822 594 1709 
C 594 597 872 -322 1481 -1094 
z
" transform="scale(0.015625)"/>
       <path id="SFProDisplay-Regular-48" d="M 438 0 
L 1000 0 
L 1000 2053 
L 3475 2053 
L 3475 0 
L 4038 0 
L 4038 4509 
L 3475 4509 
L 3475 2559 
L 1000 2559 
L 1000 4509 
L 438 4509 
L 438 0 
z
" transform="scale(0.015625)"/>
       <path id="SFProDisplay-Regular-7a" d="M 284 0 
L 2709 0 
L 2709 450 
L 916 450 
L 916 459 
L 2700 2853 
L 2700 3250 
L 288 3250 
L 288 2800 
L 2081 2800 
L 2081 2791 
L 284 388 
L 284 0 
z
" transform="scale(0.015625)"/>
       <path id="SFProDisplay-Regular-29" d="M 581 -1094 
C 1191 -322 1469 597 1469 1709 
C 1469 2822 1191 3734 581 4509 
L 125 4509 
C 575 3988 916 2753 916 1709 
C 916 666 575 -572 125 -1094 
L 581 -1094 
z
" transform="scale(0.015625)"/>
      </defs>
      <use xlink:href="#FZHTK--GBK1-0-5b9e"/>
      <use xlink:href="#FZHTK--GBK1-0-9645" transform="translate(100 0)"/>
      <use xlink:href="#FZHTK--GBK1-0-9891" transform="translate(200 0)"/>
      <use xlink:href="#FZHTK--GBK1-0-7387" transform="translate(300 0)"/>
      <use xlink:href="#SFProDisplay-Regular-20" transform="translate(400 0)"/>
      <use xlink:href="#SFProDisplay-Regular-28" transform="translate(420.507812 0)"/>
      <use xlink:href="#SFProDisplay-Regular-48" transform="translate(452.734375 0)"/>
      <use xlink:href="#SFProDisplay-Regular-7a" transform="translate(522.65625 0)"/>
      <use xlink:href="#SFProDisplay-Regular-29" transform="translate(569.433594 0)"/>
     </g>
    </g>
   </g>
   <g id="matplotlib.axis_2">
    <g id="ytick_1">
     <g id="line2d_15">
      <path d="M 51.831875 377.843239 
L 709.2 377.843239 
" clip-path="url(#pe7a486c733)" style="fill: none; stroke: #b0b0b0; stroke-opacity: 0.3; stroke-width: 0.8; stroke-linecap: square"/>
     </g>
     <g id="line2d_16">
      <defs>
       <path id="m05075b7705" d="M 0 0 
L -3.5 0 
" style="stroke: #000000; stroke-width: 0.8"/>
      </defs>
      <g>
       <use xlink:href="#m05075b7705" x="51.831875" y="377.843239" style="stroke: #000000; stroke-width: 0.8"/>
      </g>
     </g>
     <g id="text_9">
      <!-- 0 -->
      <g transform="translate(38.767813 381.365895) scale(0.1 -0.1)">
       <use xlink:href="#SFProDisplay-Regular-30"/>
      </g>
     </g>
    </g>
    <g id="ytick_2">
     <g id="line2d_17">
      <path d="M 51.831875 319.536132 
L 709.2 319.536132 
" clip-path="url(#pe7a486c733)" style="fill: none; stroke: #b0b0b0; stroke-opacity: 0.3; stroke-width: 0.8; stroke-linecap: square"/>
     </g>
     <g id="line2d_18">
      <g>
       <use xlink:href="#m05075b7705" x="51.831875" y="319.536132" style="stroke: #000000; stroke-width: 0.8"/>
      </g>
     </g>
     <g id="text_10">
      <!-- 50 -->
      <g transform="translate(32.917813 323.058788) scale(0.1 -0.1)">
       <use xlink:href="#SFProDisplay-Regular-35"/>
       <use xlink:href="#SFProDisplay-Regular-30" transform="translate(58.496094 0)"/>
      </g>
     </g>
    </g>
    <g id="ytick_3">
     <g id="line2d_19">
      <path d="M 51.831875 261.229025 
L 709.2 261.229025 
" clip-path="url(#pe7a486c733)" style="fill: none; stroke: #b0b0b0; stroke-opacity: 0.3; stroke-width: 0.8; stroke-linecap: square"/>
     </g>
     <g id="line2d_20">
      <g>
       <use xlink:href="#m05075b7705" x="51.831875" y="261.229025" style="stroke: #000000; stroke-width: 0.8"/>
      </g>
     </g>
     <g id="text_11">
      <!-- 100 -->
      <g transform="translate(28.269375 264.751681) scale(0.1 -0.1)">
       <use xlink:href="#SFProDisplay-Regular-31"/>
       <use xlink:href="#SFProDisplay-Regular-30" transform="translate(44.335938 0)"/>
       <use xlink:href="#SFProDisplay-Regular-30" transform="translate(104.980469 0)"/>
      </g>
     </g>
    </g>
    <g id="ytick_4">
     <g id="line2d_21">
      <path d="M 51.831875 202.921918 
L 709.2 202.921918 
" clip-path="url(#pe7a486c733)" style="fill: none; stroke: #b0b0b0; stroke-opacity: 0.3; stroke-width: 0.8; stroke-linecap: square"/>
     </g>
     <g id="line2d_22">
      <g>
       <use xlink:href="#m05075b7705" x="51.831875" y="202.921918" style="stroke: #000000; stroke-width: 0.8"/>
      </g>
     </g>
     <g id="text_12">
      <!-- 150 -->
      <g transform="translate(28.483438 206.444574) scale(0.1 -0.1)">
       <use xlink:href="#SFProDisplay-Regular-31"/>
       <use xlink:href="#SFProDisplay-Regular-35" transform="translate(44.335938 0)"/>
       <use xlink:href="#SFProDisplay-Regular-30" transform="translate(102.832031 0)"/>
      </g>
     </g>
    </g>
    <g id="ytick_5">
     <g id="line2d_23">
      <path d="M 51.831875 144.614811 
L 709.2 144.614811 
" clip-path="url(#pe7a486c733)" style="fill: none; stroke: #b0b0b0; stroke-opacity: 0.3; stroke-width: 0.8; stroke-linecap: square"/>
     </g>
     <g id="line2d_24">
      <g>
       <use xlink:href="#m05075b7705" x="51.831875" y="144.614811" style="stroke: #000000; stroke-width: 0.8"/>
      </g>
     </g>
     <g id="text_13">
      <!-- 200 -->
      <g transform="translate(27.044375 148.137467) scale(0.1 -0.1)">
       <use xlink:href="#SFProDisplay-Regular-32"/>
       <use xlink:href="#SFProDisplay-Regular-30" transform="translate(56.591797 0)"/>
       <use xlink:href="#SFProDisplay-Regular-30" transform="translate(117.236328 0)"/>
      </g>
     </g>
    </g>
    <g id="ytick_6">
     <g id="line2d_25">
      <path d="M 51.831875 86.307704 
L 709.2 86.307704 
" clip-path="url(#pe7a486c733)" style="fill: none; stroke: #b0b0b0; stroke-opacity: 0.3; stroke-width: 0.8; stroke-linecap: square"/>
     </g>
     <g id="line2d_26">
      <g>
       <use xlink:href="#m05075b7705" x="51.831875" y="86.307704" style="stroke: #000000; stroke-width: 0.8"/>
      </g>
     </g>
     <g id="text_14">
      <!-- 250 -->
      <g transform="translate(27.258438 89.83036) scale(0.1 -0.1)">
       <use xlink:href="#SFProDisplay-Regular-32"/>
       <use xlink:href="#SFProDisplay-Regular-35" transform="translate(56.591797 0)"/>
       <use xlink:href="#SFProDisplay-Regular-30" transform="translate(115.087891 0)"/>
      </g>
     </g>
    </g>
    <g id="ytick_7">
     <g id="line2d_27">
      <path d="M 51.831875 28.000597 
L 709.2 28.000597 
" clip-path="url(#pe7a486c733)" style="fill: none; stroke: #b0b0b0; stroke-opacity: 0.3; stroke-width: 0.8; stroke-linecap: square"/>
     </g>
     <g id="line2d_28">
      <g>
       <use xlink:href="#m05075b7705" x="51.831875" y="28.000597" style="stroke: #000000; stroke-width: 0.8"/>
      </g>
     </g>
     <g id="text_15">
      <!-- 300 -->
      <g transform="translate(26.785 31.523253) scale(0.1 -0.1)">
       <use xlink:href="#SFProDisplay-Regular-33"/>
       <use xlink:href="#SFProDisplay-Regular-30" transform="translate(59.179688 0)"/>
       <use xlink:href="#SFProDisplay-Regular-30" transform="translate(119.824219 0)"/>
      </g>
     </g>
    </g>
    <g id="text_16">
     <!-- 测量频率 (Hz) -->
     <g transform="translate(20.73375 236.107813) rotate(-90) scale(0.12 -0.12)">
      <defs>
       <path id="FZHTK--GBK1-0-6d4b" d="M 5300 5075 
Q 5900 5075 5925 5000 
Q 5925 4975 5900 4925 
Q 5850 4650 5850 4200 
L 5850 275 
Q 5875 -250 5700 -350 
Q 5600 -475 4850 -550 
Q 4825 -250 4600 125 
Q 5400 -100 5350 325 
L 5350 4200 
Q 5350 4600 5300 4975 
Q 5300 5050 5300 5075 
z
M 825 4975 
Q 1275 4725 1750 4350 
L 1425 3925 
Q 1100 4200 475 4525 
L 825 4975 
z
M 2450 4700 
L 3400 4700 
Q 3750 4700 4025 4750 
Q 3975 4525 3975 4075 
L 3975 2000 
Q 3975 1600 4025 1300 
Q 4025 1225 4025 1225 
L 3475 1225 
Q 3525 1425 3525 2025 
L 3525 4250 
L 2275 4250 
L 2275 1975 
Q 2275 1275 2325 1150 
L 1775 1150 
Q 1775 1175 1775 1250 
Q 1825 1575 1825 1900 
L 1825 4100 
Q 1825 4575 1800 4750 
Q 1975 4700 2450 4700 
z
M 4400 4450 
Q 4975 4450 4950 4400 
Q 4950 4375 4925 4325 
Q 4875 4200 4875 4025 
L 4875 1725 
Q 4875 1350 4925 1025 
Q 4925 975 4925 975 
L 4400 975 
Q 4400 1000 4400 1100 
Q 4450 1425 4450 1725 
L 4450 4050 
Q 4450 4200 4400 4400 
Q 4425 4400 4400 4450 
z
M 2650 3800 
Q 3150 3775 3225 3700 
Q 3225 3675 3200 3650 
Q 3125 3550 3125 3475 
Q 3150 1400 2925 875 
Q 2750 225 1775 -550 
Q 1575 -325 1300 -175 
Q 2725 525 2650 2025 
L 2650 3800 
z
M 575 3450 
Q 1050 3275 1650 2900 
L 1300 2400 
Q 900 2725 250 2975 
L 575 3450 
z
M 950 2100 
L 1500 1775 
Q 1200 650 1050 -300 
Q 1025 -475 1025 -475 
Q 750 -375 400 -75 
Q 700 675 950 2100 
z
M 3375 1025 
Q 3875 700 4350 125 
L 3875 -275 
Q 3475 300 2975 725 
L 3375 1025 
z
" transform="scale(0.015625)"/>
       <path id="FZHTK--GBK1-0-91cf" d="M 1925 5025 
L 4600 5025 
Q 5075 5025 5300 5075 
Q 5275 5000 5275 4400 
L 5275 4075 
Q 5275 3500 5300 3350 
Q 5175 3400 4600 3400 
L 1850 3400 
Q 1300 3400 1150 3375 
Q 1150 3400 1150 3550 
Q 1175 3875 1175 4075 
L 1175 4450 
Q 1175 4850 1125 5075 
Q 1325 5025 1925 5025 
z
M 1650 4650 
L 1650 4400 
L 4775 4400 
L 4775 4650 
L 1650 4650 
z
M 4775 4050 
L 1650 4050 
L 1650 3750 
L 4775 3750 
L 4775 4050 
z
M 350 3175 
Q 350 3175 425 3175 
Q 875 3125 1325 3125 
L 5225 3125 
Q 5650 3125 5975 3175 
Q 6050 3175 6075 3175 
L 6075 2700 
Q 6050 2700 6000 2700 
Q 5675 2750 5250 2750 
L 1325 2750 
Q 875 2750 400 2700 
Q 350 2700 350 2700 
L 350 3175 
z
M 1850 2475 
L 4650 2475 
Q 5125 2475 5350 2525 
Q 5325 2400 5325 1875 
L 5325 1375 
Q 5325 875 5350 825 
Q 5175 875 4775 875 
L 3400 875 
L 3400 575 
L 4725 575 
Q 5075 575 5375 625 
Q 5450 625 5450 625 
L 5450 175 
Q 5425 175 5375 175 
Q 5100 225 4725 225 
L 3400 225 
L 3400 -100 
L 5200 -100 
Q 5575 -100 5900 -50 
Q 6000 -50 6025 -50 
L 6025 -550 
Q 6000 -550 5950 -550 
Q 5625 -500 5200 -500 
L 1025 -500 
Q 675 -500 375 -550 
Q 300 -550 300 -550 
L 300 -50 
Q 300 -50 375 -50 
Q 675 -100 1050 -100 
L 2900 -100 
L 2900 225 
L 1625 225 
Q 1300 225 1000 175 
Q 950 175 925 175 
L 925 625 
Q 950 625 1050 625 
Q 1350 575 1600 575 
L 2900 575 
L 2900 875 
L 1650 875 
Q 1525 875 1325 850 
Q 1050 850 1025 825 
Q 1075 1125 1075 1425 
L 1075 1825 
Q 1075 2300 1025 2525 
Q 1250 2475 1850 2475 
z
M 4850 2125 
L 3400 2125 
L 3400 1850 
L 4850 1850 
L 4850 2125 
z
M 2900 2125 
L 1525 2125 
L 1525 1850 
L 2900 1850 
L 2900 2125 
z
M 3400 1500 
L 3400 1225 
L 4850 1225 
L 4850 1500 
L 3400 1500 
z
M 2900 1500 
L 1525 1500 
L 1525 1225 
L 2900 1225 
L 2900 1500 
z
" transform="scale(0.015625)"/>
      </defs>
      <use xlink:href="#FZHTK--GBK1-0-6d4b"/>
      <use xlink:href="#FZHTK--GBK1-0-91cf" transform="translate(100 0)"/>
      <use xlink:href="#FZHTK--GBK1-0-9891" transform="translate(200 0)"/>
      <use xlink:href="#FZHTK--GBK1-0-7387" transform="translate(300 0)"/>
      <use xlink:href="#SFProDisplay-Regular-20" transform="translate(400 0)"/>
      <use xlink:href="#SFProDisplay-Regular-28" transform="translate(420.507812 0)"/>
      <use xlink:href="#SFProDisplay-Regular-48" transform="translate(452.734375 0)"/>
      <use xlink:href="#SFProDisplay-Regular-7a" transform="translate(522.65625 0)"/>
      <use xlink:href="#SFProDisplay-Regular-29" transform="translate(569.433594 0)"/>
     </g>
    </g>
   </g>
   <g id="line2d_29">
    <path d="M 81.712244 372.012528 
L 83.738032 370.846386 
L 85.76382 369.680244 
L 87.789608 368.514102 
L 89.815395 367.34796 
L 91.841183 366.181818 
L 101.970122 360.351107 
L 112.099061 354.520396 
L 122.227999 348.689686 
L 132.356938 342.858975 
L 152.614816 331.197553 
L 172.872693 319.536132 
L 213.388448 296.213289 
L 253.904203 272.890446 
L 294.419958 249.567604 
L 334.935713 226.244761 
L 375.451468 202.921918 
L 415.967223 179.599075 
L 456.482978 156.276232 
L 496.998733 132.953389 
L 537.514488 109.630547 
L 578.030243 86.307704 
L 679.319631 28.000597 
" clip-path="url(#pe7a486c733)" style="fill: none; stroke-dasharray: 1.5,2.475; stroke-dashoffset: 0; stroke: #ff0000; stroke-width: 1.5"/>
   </g>
   <g id="patch_3">
    <path d="M 51.831875 389.213125 
L 51.831875 10.8 
" style="fill: none; stroke: #000000; stroke-width: 0.8; stroke-linejoin: miter; stroke-linecap: square"/>
   </g>
   <g id="patch_4">
    <path d="M 709.2 389.213125 
L 709.2 10.8 
" style="fill: none; stroke: #000000; stroke-width: 0.8; stroke-linejoin: miter; stroke-linecap: square"/>
   </g>
   <g id="patch_5">
    <path d="M 51.831875 389.213125 
L 709.2 389.213125 
" style="fill: none; stroke: #000000; stroke-width: 0.8; stroke-linejoin: miter; stroke-linecap: square"/>
   </g>
   <g id="patch_6">
    <path d="M 51.831875 10.8 
L 709.2 10.8 
" style="fill: none; stroke: #000000; stroke-width: 0.8; stroke-linejoin: miter; stroke-linecap: square"/>
   </g>
   <g id="legend_1">
    <g id="patch_7">
     <path d="M 58.831875 33.55625 
L 154.9225 33.55625 
Q 156.9225 33.55625 156.9225 31.55625 
L 156.9225 17.8 
Q 156.9225 15.8 154.9225 15.8 
L 58.831875 15.8 
Q 56.831875 15.8 56.831875 17.8 
L 56.831875 31.55625 
Q 56.831875 33.55625 58.831875 33.55625 
z
" style="fill: #ffffff; opacity: 0.8; stroke: #cccccc; stroke-linejoin: miter"/>
    </g>
    <g id="line2d_30">
     <path d="M 60.831875 24.346875 
L 70.831875 24.346875 
L 80.831875 24.346875 
" style="fill: none; stroke-dasharray: 1.5,2.475; stroke-dashoffset: 0; stroke: #ff0000; stroke-width: 1.5"/>
    </g>
    <g id="text_17">
     <!-- 理想关系 (y=x) -->
     <g transform="translate(88.831875 27.846875) scale(0.1 -0.1)">
      <defs>
       <path id="FZHTK--GBK1-0-7406" d="M 3350 4750 
L 4975 4750 
Q 5725 4775 5725 4775 
Q 5675 4650 5675 4175 
L 5675 2625 
Q 5675 2150 5725 1900 
Q 5700 1900 5650 1900 
Q 5400 1925 5050 1925 
L 4400 1925 
L 4400 1250 
L 4875 1250 
Q 5675 1275 5675 1275 
L 5675 775 
Q 5425 825 4900 825 
L 4400 825 
L 4400 150 
L 5450 150 
Q 5850 150 6025 200 
L 6025 -300 
Q 5900 -275 5450 -275 
L 2900 -275 
Q 2375 -275 2075 -300 
L 2075 175 
Q 2325 150 2875 150 
L 3900 150 
L 3900 825 
L 3425 825 
Q 2925 825 2675 775 
L 2675 1275 
Q 2875 1250 3400 1250 
L 3900 1250 
L 3900 1925 
L 3275 1925 
Q 2950 1925 2675 1900 
Q 2650 1900 2625 1900 
Q 2650 1900 2650 2625 
L 2650 4175 
Q 2650 4400 2625 4700 
Q 2625 4750 2625 4775 
Q 3075 4750 3350 4750 
z
M 375 4550 
Q 525 4525 950 4525 
L 1750 4525 
Q 2375 4550 2375 4550 
L 2375 4050 
Q 2225 4075 1825 4075 
L 1600 4075 
L 1600 2775 
L 1750 2775 
Q 2050 2775 2275 2800 
L 2275 2300 
Q 2050 2325 1775 2325 
L 1600 2325 
L 1600 900 
Q 1875 975 2275 1175 
L 2300 600 
Q 1625 450 425 -75 
L 275 550 
Q 625 600 1125 750 
L 1125 2325 
L 900 2325 
Q 650 2325 400 2300 
L 400 2800 
Q 625 2775 900 2775 
L 1125 2775 
L 1125 4075 
L 875 4075 
Q 525 4075 375 4050 
L 375 4550 
z
M 3900 4325 
L 3125 4325 
L 3125 3525 
L 3900 3525 
L 3900 4325 
z
M 4400 4325 
L 4400 3525 
L 5200 3525 
L 5200 4325 
L 4400 4325 
z
M 3900 3150 
L 3125 3150 
L 3125 2350 
L 3900 2350 
L 3900 3150 
z
M 4400 3150 
L 4400 2350 
L 5200 2350 
L 5200 3150 
L 4400 3150 
z
" transform="scale(0.015625)"/>
       <path id="FZHTK--GBK1-0-60f3" d="M 5125 4325 
L 3600 4325 
L 3600 3825 
L 5125 3825 
L 5125 4325 
z
M 5125 3425 
L 3600 3425 
L 3600 2925 
L 5125 2925 
L 5125 3425 
z
M 5125 2525 
L 3625 2525 
L 3625 1950 
L 5125 1950 
L 5125 2525 
z
M 3350 1425 
Q 3725 900 3875 550 
L 3300 325 
Q 3050 950 2825 1225 
L 3350 1425 
z
M 5100 1225 
Q 5650 750 6150 150 
L 5575 -275 
Q 5150 425 4625 925 
L 5100 1225 
z
M 875 1175 
L 1525 1025 
Q 1525 1000 1500 925 
Q 1200 0 975 -425 
Q 725 -250 375 -250 
Q 775 500 875 1175 
z
M 1875 1125 
Q 2525 1150 2575 1050 
Q 2575 1025 2550 950 
Q 2450 725 2450 450 
Q 2275 -250 3300 -125 
Q 4000 -125 4075 0 
Q 4225 75 4275 625 
Q 4575 425 4900 350 
Q 4775 -325 4475 -425 
Q 4250 -600 3000 -575 
Q 1825 -625 1925 -50 
L 1925 625 
Q 1925 900 1875 1125 
z
M 1450 5100 
Q 2200 5100 2200 5025 
Q 2200 5000 2175 4975 
Q 2050 4750 2050 4125 
Q 2425 4125 2825 4175 
L 2825 3650 
Q 2725 3675 2050 3675 
L 2050 3100 
L 2475 3325 
Q 2550 3250 2800 2950 
Q 3025 2650 3100 2550 
L 3100 3900 
Q 3100 4575 3050 4825 
Q 3325 4750 3950 4750 
L 5000 4750 
Q 5425 4750 5675 4825 
Q 5625 4400 5625 3950 
L 5625 2175 
Q 5625 1800 5700 1450 
Q 5325 1525 4850 1525 
L 3925 1525 
Q 3300 1525 3025 1450 
Q 3075 1875 3075 2475 
L 2575 2175 
Q 2400 2600 2050 2975 
L 2050 2075 
Q 2050 1700 2100 1400 
L 1525 1400 
Q 1575 1550 1575 2100 
L 1575 3250 
Q 1550 3225 1525 3125 
Q 1250 2550 750 1725 
Q 575 1950 250 2075 
Q 800 2450 1350 3675 
Q 1050 3675 750 3650 
Q 600 3650 525 3650 
L 525 4175 
Q 850 4100 1525 4100 
Q 1550 4925 1450 5100 
z
" transform="scale(0.015625)"/>
       <path id="FZHTK--GBK1-0-5173" d="M 4075 5150 
Q 4650 4975 4750 4800 
Q 4750 4750 4650 4675 
Q 4525 4575 4450 4500 
Q 4275 4350 3975 3875 
L 4475 3875 
Q 4975 3875 5575 3925 
L 5575 3350 
Q 5125 3400 4475 3400 
L 3375 3400 
L 3375 2200 
L 4600 2200 
Q 5350 2225 5825 2275 
L 5825 1700 
Q 5300 1750 4600 1750 
L 3450 1750 
Q 4275 250 6100 150 
Q 5675 -150 5500 -525 
Q 3975 -75 3200 1325 
Q 2575 50 825 -650 
Q 550 -275 225 -100 
Q 2375 400 2775 1750 
L 1575 1750 
Q 975 1750 525 1700 
L 525 2275 
Q 1050 2250 1575 2225 
L 2850 2225 
L 2850 3400 
L 1875 3400 
Q 1300 3400 775 3350 
L 775 3925 
Q 1375 3875 1875 3875 
L 3450 3875 
Q 3850 4550 4075 5150 
z
M 2150 5100 
Q 2350 4850 2750 4275 
Q 2800 4250 2800 4225 
L 2225 3925 
Q 2050 4300 1600 4850 
L 2150 5100 
z
" transform="scale(0.015625)"/>
       <path id="FZHTK--GBK1-0-7cfb" d="M 5225 4925 
Q 5250 4875 5325 4775 
Q 5625 4325 5575 4325 
Q 4900 4325 3050 4150 
Q 3425 4000 3500 3925 
Q 3500 3900 3350 3850 
Q 3125 3775 3000 3675 
Q 2850 3575 2425 3300 
Q 2150 3125 1975 3025 
L 3625 3125 
Q 4225 3575 4500 3875 
Q 4975 3575 5050 3475 
Q 5050 3450 4950 3400 
Q 4725 3300 4525 3175 
Q 4500 3150 4425 3100 
Q 3150 2275 2125 1875 
L 4700 1975 
Q 4150 2350 4125 2350 
L 4525 2725 
Q 5425 2050 5875 1600 
L 5450 1200 
Q 5300 1425 5075 1600 
L 3600 1525 
L 3600 75 
Q 3800 -500 2600 -525 
Q 2550 -225 2450 0 
Q 2425 75 2425 75 
Q 3150 -25 3075 325 
L 3075 1500 
L 1925 1450 
Q 1850 1450 1725 1425 
Q 1325 1400 1125 1350 
L 950 1900 
Q 1525 1925 3050 2750 
Q 1800 2675 1475 2550 
L 1175 3075 
Q 2050 3450 2750 4125 
L 1025 3925 
Q 975 4100 875 4300 
Q 800 4425 750 4500 
Q 3075 4500 5225 4925 
z
M 4550 1175 
Q 4850 975 5625 375 
Q 5800 225 5875 175 
L 5400 -275 
Q 4800 450 4150 800 
L 4550 1175 
z
M 1925 1175 
L 2400 850 
Q 1425 -125 1175 -300 
Q 975 -50 675 75 
Q 1400 550 1925 1175 
z
" transform="scale(0.015625)"/>
       <path id="SFProDisplay-Regular-79" d="M 666 -1094 
C 1253 -1094 1538 -825 1769 -203 
L 3038 3250 
L 2466 3250 
L 1566 544 
L 1553 544 
L 656 3250 
L 75 3250 
L 1281 -3 
L 1216 -188 
C 1084 -556 894 -644 550 -644 
C 484 -644 422 -634 375 -625 
L 375 -1069 
C 444 -1081 559 -1094 666 -1094 
z
" transform="scale(0.015625)"/>
       <path id="SFProDisplay-Regular-3d" d="M 388 2350 
L 3481 2350 
L 3481 2856 
L 388 2856 
L 388 2350 
z
M 388 803 
L 3481 803 
L 3481 1309 
L 388 1309 
L 388 803 
z
" transform="scale(0.015625)"/>
       <path id="SFProDisplay-Regular-78" d="M 100 0 
L 703 0 
L 1488 1238 
L 1500 1238 
L 2278 0 
L 2881 0 
L 1800 1647 
L 2897 3250 
L 2291 3250 
L 1519 2031 
L 1506 2031 
L 725 3250 
L 119 3250 
L 1206 1625 
L 100 0 
z
" transform="scale(0.015625)"/>
      </defs>
      <use xlink:href="#FZHTK--GBK1-0-7406"/>
      <use xlink:href="#FZHTK--GBK1-0-60f3" transform="translate(100 0)"/>
      <use xlink:href="#FZHTK--GBK1-0-5173" transform="translate(200 0)"/>
      <use xlink:href="#FZHTK--GBK1-0-7cfb" transform="translate(300 0)"/>
      <use xlink:href="#SFProDisplay-Regular-20" transform="translate(400 0)"/>
      <use xlink:href="#SFProDisplay-Regular-28" transform="translate(420.507812 0)"/>
      <use xlink:href="#SFProDisplay-Regular-79" transform="translate(452.734375 0)"/>
      <use xlink:href="#SFProDisplay-Regular-3d" transform="translate(501.367188 0)"/>
      <use xlink:href="#SFProDisplay-Regular-78" transform="translate(561.816406 0)"/>
      <use xlink:href="#SFProDisplay-Regular-29" transform="translate(608.642578 0)"/>
     </g>
    </g>
   </g>
  </g>
 </g>
 <defs>
  <clipPath id="pe7a486c733">
   <rect x="51.831875" y="10.8" width="657.368125" height="378.413125"/>
  </clipPath>
 </defs>
</svg>
