<?xml version="1.0" encoding="utf-8" standalone="no"?>
<!DOCTYPE svg PUBLIC "-//W3C//DTD SVG 1.1//EN"
  "http://www.w3.org/Graphics/SVG/1.1/DTD/svg11.dtd">
<svg xmlns:xlink="http://www.w3.org/1999/xlink" width="720pt" height="432pt" viewBox="0 0 720 432" xmlns="http://www.w3.org/2000/svg" version="1.1">
 <metadata>
  <rdf:RDF xmlns:dc="http://purl.org/dc/elements/1.1/" xmlns:cc="http://creativecommons.org/ns#" xmlns:rdf="http://www.w3.org/1999/02/22-rdf-syntax-ns#">
   <cc:Work>
    <dc:type rdf:resource="http://purl.org/dc/dcmitype/StillImage"/>
    <dc:date>2025-04-12T16:48:52.955497</dc:date>
    <dc:format>image/svg+xml</dc:format>
    <dc:creator>
     <cc:Agent>
      <dc:title>Matplotlib v3.10.1, https://matplotlib.org/</dc:title>
     </cc:Agent>
    </dc:creator>
   </cc:Work>
  </rdf:RDF>
 </metadata>
 <defs>
  <style type="text/css">*{stroke-linejoin: round; stroke-linecap: butt}</style>
 </defs>
 <g id="figure_1">
  <g id="patch_1">
   <path d="M 0 432 
L 720 432 
L 720 0 
L 0 0 
z
" style="fill: #ffffff"/>
  </g>
  <g id="axes_1">
   <g id="patch_2">
    <path d="M 56.084375 389.213125 
L 709.2 389.213125 
L 709.2 10.8 
L 56.084375 10.8 
z
" style="fill: #ffffff"/>
   </g>
   <g id="patch_3">
    <path d="M 85.771449 34.745929 
L 87.377241 34.745929 
L 87.377241 29.855563 
L 85.771449 29.855563 
z
" clip-path="url(#p0aa837882e)" style="fill: #0000ff; opacity: 0.7"/>
   </g>
   <g id="patch_4">
    <path d="M 87.778688 34.745929 
L 89.38448 34.745929 
L 89.38448 29.315936 
L 87.778688 29.315936 
z
" clip-path="url(#p0aa837882e)" style="fill: #0000ff; opacity: 0.7"/>
   </g>
   <g id="patch_5">
    <path d="M 89.785928 34.745929 
L 91.39172 34.745929 
L 91.39172 28.135503 
L 89.785928 28.135503 
z
" clip-path="url(#p0aa837882e)" style="fill: #0000ff; opacity: 0.7"/>
   </g>
   <g id="patch_6">
    <path d="M 91.793168 34.745929 
L 93.398959 34.745929 
L 93.398959 28.000597 
L 91.793168 28.000597 
z
" clip-path="url(#p0aa837882e)" style="fill: #0000ff; opacity: 0.7"/>
   </g>
   <g id="patch_7">
    <path d="M 93.800407 34.745929 
L 95.406199 34.745929 
L 95.406199 28.000597 
L 93.800407 28.000597 
z
" clip-path="url(#p0aa837882e)" style="fill: #0000ff; opacity: 0.7"/>
   </g>
   <g id="patch_8">
    <path d="M 95.807647 34.745929 
L 97.413439 34.745929 
L 97.413439 28.000597 
L 95.807647 28.000597 
z
" clip-path="url(#p0aa837882e)" style="fill: #0000ff; opacity: 0.7"/>
   </g>
   <g id="patch_9">
    <path d="M 105.843845 34.745929 
L 107.449637 34.745929 
L 107.449637 38.118595 
L 105.843845 38.118595 
z
" clip-path="url(#p0aa837882e)" style="fill: #0000ff; opacity: 0.7"/>
   </g>
   <g id="patch_10">
    <path d="M 115.880043 34.745929 
L 117.485835 34.745929 
L 117.485835 38.118595 
L 115.880043 38.118595 
z
" clip-path="url(#p0aa837882e)" style="fill: #0000ff; opacity: 0.7"/>
   </g>
   <g id="patch_11">
    <path d="M 125.916241 34.745929 
L 127.522033 34.745929 
L 127.522033 39.804928 
L 125.916241 39.804928 
z
" clip-path="url(#p0aa837882e)" style="fill: #0000ff; opacity: 0.7"/>
   </g>
   <g id="patch_12">
    <path d="M 135.952439 34.745929 
L 137.558231 34.745929 
L 137.558231 41.491261 
L 135.952439 41.491261 
z
" clip-path="url(#p0aa837882e)" style="fill: #0000ff; opacity: 0.7"/>
   </g>
   <g id="patch_13">
    <path d="M 156.024835 34.745929 
L 157.630627 34.745929 
L 157.630627 39.804928 
L 156.024835 39.804928 
z
" clip-path="url(#p0aa837882e)" style="fill: #0000ff; opacity: 0.7"/>
   </g>
   <g id="patch_14">
    <path d="M 176.097231 34.745929 
L 177.703023 34.745929 
L 177.703023 43.177594 
L 176.097231 43.177594 
z
" clip-path="url(#p0aa837882e)" style="fill: #0000ff; opacity: 0.7"/>
   </g>
   <g id="patch_15">
    <path d="M 216.242024 34.745929 
L 217.847815 34.745929 
L 217.847815 46.55026 
L 216.242024 46.55026 
z
" clip-path="url(#p0aa837882e)" style="fill: #0000ff; opacity: 0.7"/>
   </g>
   <g id="patch_16">
    <path d="M 256.386816 34.745929 
L 257.992608 34.745929 
L 257.992608 43.177594 
L 256.386816 43.177594 
z
" clip-path="url(#p0aa837882e)" style="fill: #0000ff; opacity: 0.7"/>
   </g>
   <g id="patch_17">
    <path d="M 296.531608 34.745929 
L 298.1374 34.745929 
L 298.1374 44.863927 
L 296.531608 44.863927 
z
" clip-path="url(#p0aa837882e)" style="fill: #0000ff; opacity: 0.7"/>
   </g>
   <g id="patch_18">
    <path d="M 336.6764 34.745929 
L 338.282192 34.745929 
L 338.282192 58.354591 
L 336.6764 58.354591 
z
" clip-path="url(#p0aa837882e)" style="fill: #0000ff; opacity: 0.7"/>
   </g>
   <g id="patch_19">
    <path d="M 376.821193 34.745929 
L 378.426984 34.745929 
L 378.426984 44.863927 
L 376.821193 44.863927 
z
" clip-path="url(#p0aa837882e)" style="fill: #0000ff; opacity: 0.7"/>
   </g>
   <g id="patch_20">
    <path d="M 416.965985 34.745929 
L 418.571777 34.745929 
L 418.571777 58.354591 
L 416.965985 58.354591 
z
" clip-path="url(#p0aa837882e)" style="fill: #0000ff; opacity: 0.7"/>
   </g>
   <g id="patch_21">
    <path d="M 457.110777 34.745929 
L 458.716569 34.745929 
L 458.716569 48.236593 
L 457.110777 48.236593 
z
" clip-path="url(#p0aa837882e)" style="fill: #0000ff; opacity: 0.7"/>
   </g>
   <g id="patch_22">
    <path d="M 497.255569 34.745929 
L 498.861361 34.745929 
L 498.861361 54.981925 
L 497.255569 54.981925 
z
" clip-path="url(#p0aa837882e)" style="fill: #0000ff; opacity: 0.7"/>
   </g>
   <g id="patch_23">
    <path d="M 537.400362 34.745929 
L 539.006153 34.745929 
L 539.006153 61.727257 
L 537.400362 61.727257 
z
" clip-path="url(#p0aa837882e)" style="fill: #0000ff; opacity: 0.7"/>
   </g>
   <g id="patch_24">
    <path d="M 577.545154 34.745929 
L 579.150946 34.745929 
L 579.150946 75.217921 
L 577.545154 75.217921 
z
" clip-path="url(#p0aa837882e)" style="fill: #0000ff; opacity: 0.7"/>
   </g>
   <g id="patch_25">
    <path d="M 677.907134 34.745929 
L 679.512926 34.745929 
L 679.512926 372.012528 
L 677.907134 372.012528 
z
" clip-path="url(#p0aa837882e)" style="fill: #0000ff; opacity: 0.7"/>
   </g>
   <g id="matplotlib.axis_1">
    <g id="xtick_1">
     <g id="line2d_1">
      <path d="M 76.538147 389.213125 
L 76.538147 10.8 
" clip-path="url(#p0aa837882e)" style="fill: none; stroke: #b0b0b0; stroke-opacity: 0.3; stroke-width: 0.8; stroke-linecap: square"/>
     </g>
     <g id="line2d_2">
      <defs>
       <path id="m2b84ec5e35" d="M 0 0 
L 0 3.5 
" style="stroke: #000000; stroke-width: 0.8"/>
      </defs>
      <g>
       <use xlink:href="#m2b84ec5e35" x="76.538147" y="389.213125" style="stroke: #000000; stroke-width: 0.8"/>
      </g>
     </g>
     <g id="text_1">
      <!-- 0 -->
      <g transform="translate(73.506115 403.258438) scale(0.1 -0.1)">
       <defs>
        <path id="SFProDisplay-Regular-30" d="M 1938 -75 
C 2975 -75 3597 822 3597 2253 
L 3597 2259 
C 3597 3691 2975 4584 1938 4584 
C 900 4584 284 3691 284 2259 
L 284 2253 
C 284 822 900 -75 1938 -75 
z
M 1938 416 
C 1250 416 850 1122 850 2253 
L 850 2259 
C 850 3391 1250 4091 1938 4091 
C 2625 4091 3031 3391 3031 2259 
L 3031 2253 
C 3031 1122 2625 416 1938 416 
z
" transform="scale(0.015625)"/>
       </defs>
       <use xlink:href="#SFProDisplay-Regular-30"/>
      </g>
     </g>
    </g>
    <g id="xtick_2">
     <g id="line2d_3">
      <path d="M 176.900127 389.213125 
L 176.900127 10.8 
" clip-path="url(#p0aa837882e)" style="fill: none; stroke: #b0b0b0; stroke-opacity: 0.3; stroke-width: 0.8; stroke-linecap: square"/>
     </g>
     <g id="line2d_4">
      <g>
       <use xlink:href="#m2b84ec5e35" x="176.900127" y="389.213125" style="stroke: #000000; stroke-width: 0.8"/>
      </g>
     </g>
     <g id="text_2">
      <!-- 50 -->
      <g transform="translate(170.943096 403.258438) scale(0.1 -0.1)">
       <defs>
        <path id="SFProDisplay-Regular-35" d="M 1916 -75 
C 2853 -75 3519 556 3522 1459 
L 3522 1466 
C 3522 2331 2897 2959 2031 2959 
C 1594 2959 1219 2797 1006 2494 
L 994 2494 
L 1147 4009 
L 3266 4009 
L 3266 4509 
L 684 4509 
L 453 1938 
L 950 1938 
C 1009 2041 1081 2128 1163 2203 
C 1363 2384 1625 2475 1931 2475 
C 2528 2475 2956 2050 2959 1456 
L 2959 1450 
C 2959 844 2534 419 1922 419 
C 1381 419 981 759 925 1206 
L 922 1231 
L 369 1231 
L 372 1197 
C 438 463 1053 -75 1916 -75 
z
" transform="scale(0.015625)"/>
       </defs>
       <use xlink:href="#SFProDisplay-Regular-35"/>
       <use xlink:href="#SFProDisplay-Regular-30" transform="translate(58.496094 0)"/>
      </g>
     </g>
    </g>
    <g id="xtick_3">
     <g id="line2d_5">
      <path d="M 277.262108 389.213125 
L 277.262108 10.8 
" clip-path="url(#p0aa837882e)" style="fill: none; stroke: #b0b0b0; stroke-opacity: 0.3; stroke-width: 0.8; stroke-linecap: square"/>
     </g>
     <g id="line2d_6">
      <g>
       <use xlink:href="#m2b84ec5e35" x="277.262108" y="389.213125" style="stroke: #000000; stroke-width: 0.8"/>
      </g>
     </g>
     <g id="text_3">
      <!-- 100 -->
      <g transform="translate(268.980858 403.258438) scale(0.1 -0.1)">
       <defs>
        <path id="SFProDisplay-Regular-31" d="M 1516 0 
L 2059 0 
L 2059 4509 
L 1509 4509 
L 309 3647 
L 309 3081 
L 1503 3913 
L 1516 3913 
L 1516 0 
z
" transform="scale(0.015625)"/>
       </defs>
       <use xlink:href="#SFProDisplay-Regular-31"/>
       <use xlink:href="#SFProDisplay-Regular-30" transform="translate(44.335938 0)"/>
       <use xlink:href="#SFProDisplay-Regular-30" transform="translate(104.980469 0)"/>
      </g>
     </g>
    </g>
    <g id="xtick_4">
     <g id="line2d_7">
      <path d="M 377.624088 389.213125 
L 377.624088 10.8 
" clip-path="url(#p0aa837882e)" style="fill: none; stroke: #b0b0b0; stroke-opacity: 0.3; stroke-width: 0.8; stroke-linecap: square"/>
     </g>
     <g id="line2d_8">
      <g>
       <use xlink:href="#m2b84ec5e35" x="377.624088" y="389.213125" style="stroke: #000000; stroke-width: 0.8"/>
      </g>
     </g>
     <g id="text_4">
      <!-- 150 -->
      <g transform="translate(369.44987 403.258438) scale(0.1 -0.1)">
       <use xlink:href="#SFProDisplay-Regular-31"/>
       <use xlink:href="#SFProDisplay-Regular-35" transform="translate(44.335938 0)"/>
       <use xlink:href="#SFProDisplay-Regular-30" transform="translate(102.832031 0)"/>
      </g>
     </g>
    </g>
    <g id="xtick_5">
     <g id="line2d_9">
      <path d="M 477.986069 389.213125 
L 477.986069 10.8 
" clip-path="url(#p0aa837882e)" style="fill: none; stroke: #b0b0b0; stroke-opacity: 0.3; stroke-width: 0.8; stroke-linecap: square"/>
     </g>
     <g id="line2d_10">
      <g>
       <use xlink:href="#m2b84ec5e35" x="477.986069" y="389.213125" style="stroke: #000000; stroke-width: 0.8"/>
      </g>
     </g>
     <g id="text_5">
      <!-- 200 -->
      <g transform="translate(469.092319 403.258438) scale(0.1 -0.1)">
       <defs>
        <path id="SFProDisplay-Regular-32" d="M 366 0 
L 3341 0 
L 3341 500 
L 1138 500 
L 1138 513 
L 2209 1613 
C 3038 2459 3266 2831 3266 3325 
L 3266 3331 
C 3266 4038 2669 4584 1853 4584 
C 1013 4584 338 4006 338 3225 
L 338 3206 
L 881 3206 
L 881 3222 
C 881 3706 1300 4094 1863 4094 
C 2353 4094 2700 3763 2703 3303 
L 2703 3297 
C 2703 2922 2563 2678 1953 2044 
L 366 388 
L 366 0 
z
" transform="scale(0.015625)"/>
       </defs>
       <use xlink:href="#SFProDisplay-Regular-32"/>
       <use xlink:href="#SFProDisplay-Regular-30" transform="translate(56.591797 0)"/>
       <use xlink:href="#SFProDisplay-Regular-30" transform="translate(117.236328 0)"/>
      </g>
     </g>
    </g>
    <g id="xtick_6">
     <g id="line2d_11">
      <path d="M 578.34805 389.213125 
L 578.34805 10.8 
" clip-path="url(#p0aa837882e)" style="fill: none; stroke: #b0b0b0; stroke-opacity: 0.3; stroke-width: 0.8; stroke-linecap: square"/>
     </g>
     <g id="line2d_12">
      <g>
       <use xlink:href="#m2b84ec5e35" x="578.34805" y="389.213125" style="stroke: #000000; stroke-width: 0.8"/>
      </g>
     </g>
     <g id="text_6">
      <!-- 250 -->
      <g transform="translate(569.561331 403.258438) scale(0.1 -0.1)">
       <use xlink:href="#SFProDisplay-Regular-32"/>
       <use xlink:href="#SFProDisplay-Regular-35" transform="translate(56.591797 0)"/>
       <use xlink:href="#SFProDisplay-Regular-30" transform="translate(115.087891 0)"/>
      </g>
     </g>
    </g>
    <g id="xtick_7">
     <g id="line2d_13">
      <path d="M 678.71003 389.213125 
L 678.71003 10.8 
" clip-path="url(#p0aa837882e)" style="fill: none; stroke: #b0b0b0; stroke-opacity: 0.3; stroke-width: 0.8; stroke-linecap: square"/>
     </g>
     <g id="line2d_14">
      <g>
       <use xlink:href="#m2b84ec5e35" x="678.71003" y="389.213125" style="stroke: #000000; stroke-width: 0.8"/>
      </g>
     </g>
     <g id="text_7">
      <!-- 300 -->
      <g transform="translate(669.686593 403.258438) scale(0.1 -0.1)">
       <defs>
        <path id="SFProDisplay-Regular-33" d="M 1884 -75 
C 2788 -75 3450 481 3450 1234 
L 3450 1241 
C 3450 1881 3003 2291 2347 2347 
L 2347 2359 
C 2909 2478 3303 2859 3303 3416 
L 3303 3422 
C 3303 4106 2738 4584 1878 4584 
C 1034 4584 453 4094 381 3359 
L 378 3328 
L 919 3328 
L 922 3359 
C 969 3816 1347 4097 1878 4097 
C 2428 4097 2738 3825 2738 3353 
L 2738 3347 
C 2738 2897 2363 2566 1825 2566 
L 1284 2566 
L 1284 2091 
L 1850 2091 
C 2481 2091 2878 1781 2878 1228 
L 2878 1222 
C 2878 744 2475 413 1884 413 
C 1284 413 878 719 831 1163 
L 828 1194 
L 288 1194 
L 291 1156 
C 350 444 953 -75 1884 -75 
z
" transform="scale(0.015625)"/>
       </defs>
       <use xlink:href="#SFProDisplay-Regular-33"/>
       <use xlink:href="#SFProDisplay-Regular-30" transform="translate(59.179688 0)"/>
       <use xlink:href="#SFProDisplay-Regular-30" transform="translate(119.824219 0)"/>
      </g>
     </g>
    </g>
    <g id="text_8">
     <!-- 实际频率 (Hz) -->
     <g transform="translate(346.540938 418.624063) scale(0.12 -0.12)">
      <defs>
       <path id="FZHTK--GBK1-0-5b9e" d="M 3325 3725 
Q 3975 3725 4025 3600 
Q 4050 3550 3975 3475 
Q 3900 3375 3900 3325 
Q 3800 2150 3750 1725 
L 4800 1725 
Q 5525 1750 5925 1800 
L 5925 1225 
Q 5425 1275 4825 1275 
L 3650 1275 
Q 3175 125 975 -550 
Q 925 -475 875 -375 
Q 750 -125 475 50 
Q 2350 200 3125 1275 
L 1750 1275 
Q 1300 1275 525 1225 
L 525 1775 
Q 1200 1725 1725 1725 
L 3250 1725 
Q 3375 2225 3325 3725 
z
M 2025 3625 
Q 2675 3325 3050 2975 
L 2700 2575 
Q 2325 2950 1700 3250 
L 2025 3625 
z
M 1500 2825 
Q 2025 2600 2575 2200 
L 2175 1875 
Q 1800 2150 1125 2475 
L 1500 2825 
z
M 3875 1025 
Q 5100 450 5750 -50 
L 5275 -575 
Q 4625 75 3550 575 
L 3875 1025 
z
M 3525 5050 
Q 3600 4775 3625 4675 
Q 3650 4550 3675 4475 
Q 3700 4450 3700 4425 
L 5175 4425 
Q 5350 4425 5750 4475 
Q 5750 4475 5700 3975 
L 5700 3700 
Q 5700 3425 5750 3225 
L 5125 3225 
Q 5175 3375 5175 3700 
L 5175 3950 
L 1225 3950 
L 1225 3750 
Q 1225 3475 1275 3275 
L 650 3275 
Q 700 3400 700 3750 
L 700 3950 
Q 700 4300 650 4475 
Q 875 4425 1225 4425 
L 3125 4425 
Q 3100 4550 3000 4800 
Q 2950 4925 2925 4975 
L 3525 5050 
z
" transform="scale(0.015625)"/>
       <path id="FZHTK--GBK1-0-9645" d="M 675 4825 
Q 825 4825 1225 4800 
Q 1500 4775 1575 4775 
L 1725 4775 
Q 2075 4775 2625 4825 
Q 2675 4850 2650 4775 
Q 2625 4675 2400 4075 
Q 2000 2925 2000 2900 
Q 2000 2875 2075 2800 
Q 2350 2450 2450 2100 
Q 2725 975 1450 775 
Q 1450 1150 1275 1400 
Q 1850 1275 1975 1650 
Q 2100 2125 1500 2800 
Q 1450 2850 1450 2850 
Q 1450 2875 1525 3050 
Q 1800 3725 2000 4350 
L 1200 4350 
L 1200 975 
Q 1225 75 1250 -350 
L 625 -350 
Q 675 100 675 950 
L 675 3725 
Q 675 4500 650 4775 
Q 650 4850 675 4825 
z
M 2950 4700 
Q 3050 4700 3325 4675 
Q 3700 4650 3925 4650 
L 4500 4650 
Q 5225 4675 5575 4700 
L 5575 4175 
Q 5150 4200 4550 4225 
L 3925 4225 
Q 3425 4225 2950 4175 
L 2950 4700 
z
M 2500 3350 
Q 2900 3300 3400 3300 
L 4750 3300 
Q 5400 3325 5900 3350 
L 5900 2800 
Q 5450 2825 4825 2850 
L 4350 2850 
Q 4375 1800 4375 850 
Q 4400 25 4375 -75 
Q 4275 -375 3325 -450 
Q 3325 -125 3000 225 
Q 3675 125 3825 200 
Q 3875 300 3850 2850 
L 3425 2850 
Q 2925 2850 2500 2800 
L 2500 3350 
z
M 2950 2225 
L 3550 2025 
Q 3200 1000 2600 100 
Q 2375 300 2000 350 
Q 2725 1275 2950 2225 
z
M 5100 2200 
Q 5550 1500 6125 475 
L 5525 225 
Q 5150 1225 4625 1975 
L 5100 2200 
z
" transform="scale(0.015625)"/>
       <path id="FZHTK--GBK1-0-9891" d="M 1675 5125 
Q 2250 5125 2275 5025 
Q 2275 5000 2225 4925 
Q 2150 4800 2150 4675 
L 2150 4150 
Q 2775 4175 3075 4175 
L 3075 3725 
Q 2875 3750 2150 3750 
L 2150 3075 
L 2325 3075 
Q 2500 3075 3150 3125 
L 3150 2625 
Q 2525 2650 2350 2650 
L 2125 2650 
L 2125 1025 
Q 2475 1675 2575 2225 
Q 2625 2200 2750 2175 
Q 3125 2050 3100 2000 
Q 3100 1975 3075 1925 
Q 2950 1775 2875 1550 
Q 2400 175 600 -425 
Q 500 -200 175 75 
Q 1275 350 1700 650 
L 1700 2650 
L 850 2650 
Q 625 2650 275 2600 
L 275 3100 
Q 325 3100 450 3100 
Q 600 3075 675 3075 
L 775 3075 
L 775 4150 
Q 775 4375 725 4625 
Q 1275 4625 1300 4550 
Q 1300 4500 1275 4425 
Q 1200 4300 1200 4175 
L 1200 3075 
L 1725 3075 
L 1725 4650 
Q 1725 4950 1675 5125 
z
M 3050 4850 
Q 3550 4800 3900 4800 
L 5125 4800 
Q 5675 4800 6050 4850 
L 6050 4325 
Q 5675 4375 5150 4375 
L 4725 4375 
L 4600 3600 
L 5025 3600 
Q 5650 3600 5875 3625 
Q 5825 3350 5800 2825 
L 5800 1750 
Q 5800 1225 5850 875 
L 5325 875 
Q 5350 1050 5350 1775 
L 5350 3150 
L 3800 3150 
L 3800 1725 
Q 3800 1150 3825 875 
L 3325 875 
Q 3350 1025 3350 1750 
L 3350 2875 
Q 3350 3400 3325 3625 
Q 3450 3600 4000 3600 
L 4200 3600 
L 4250 4375 
L 3900 4375 
Q 3325 4375 3050 4350 
L 3050 4850 
z
M 4900 2700 
Q 4925 2675 4875 2575 
Q 4800 2400 4775 2200 
Q 4675 825 4375 475 
Q 3850 -150 2975 -550 
Q 2825 -350 2450 -125 
Q 3450 200 3750 500 
Q 4400 1025 4300 2800 
Q 4325 2800 4400 2800 
Q 4900 2750 4900 2700 
z
M 925 2375 
L 1400 2225 
Q 1375 2150 1275 1900 
Q 1025 1200 900 950 
Q 725 1075 400 1100 
Q 775 1725 925 2375 
z
M 4975 725 
Q 5575 350 6100 -250 
L 5650 -600 
Q 5100 50 4600 400 
L 4975 725 
z
" transform="scale(0.015625)"/>
       <path id="FZHTK--GBK1-0-7387" d="M 3450 5150 
Q 3525 4925 3600 4525 
L 4775 4525 
Q 5200 4525 5750 4575 
L 5750 4075 
Q 5400 4125 4775 4125 
L 2950 4125 
Q 3400 3875 3375 3800 
Q 3350 3775 3300 3750 
Q 3000 3525 2550 3000 
L 3400 3100 
Q 3575 3325 3825 3675 
Q 4350 3325 4325 3225 
Q 4325 3225 4300 3200 
Q 4125 3175 3925 3000 
Q 3825 2925 3350 2500 
Q 2900 2100 2650 1875 
L 3850 1925 
Q 3700 2150 3575 2300 
L 4025 2525 
Q 4475 1975 4650 1475 
L 4150 1275 
Q 4025 1550 3975 1625 
L 3450 1600 
L 3450 900 
L 5025 900 
Q 5525 900 6000 950 
L 6000 425 
Q 5600 475 5025 475 
L 3450 475 
L 3450 300 
Q 3450 -250 3500 -625 
L 2950 -625 
Q 3000 -125 3000 300 
L 3000 475 
L 1300 475 
Q 850 475 400 425 
L 400 950 
Q 900 900 1300 900 
L 3000 900 
L 3000 1550 
Q 2425 1475 2100 1350 
Q 2000 1700 1925 1900 
Q 2150 1950 3100 2725 
Q 3125 2750 3150 2775 
Q 2400 2675 2125 2550 
Q 2100 2525 2075 2525 
Q 2025 2825 1925 3000 
Q 2525 3275 2825 4125 
L 1550 4125 
Q 1225 4125 725 4075 
Q 775 4075 625 4075 
L 625 4575 
Q 750 4575 1100 4550 
Q 1425 4525 1525 4525 
L 3050 4525 
Q 3075 4575 2925 4875 
Q 2875 5000 2850 5075 
L 3450 5150 
z
M 5175 3850 
L 5550 3450 
Q 5150 3075 4700 2700 
Q 4600 2850 4325 3025 
Q 4775 3300 5175 3850 
z
M 1125 3775 
Q 1700 3375 1900 3175 
L 1550 2875 
Q 1150 3250 750 3425 
L 1125 3775 
z
M 1750 2600 
Q 1775 2350 1950 2125 
Q 1575 1800 925 1325 
L 575 1800 
Q 1050 2025 1750 2600 
z
M 4775 2575 
Q 5125 2375 5825 1875 
L 5425 1425 
Q 5175 1750 4425 2200 
L 4775 2575 
z
" transform="scale(0.015625)"/>
       <path id="SFProDisplay-Regular-20" transform="scale(0.015625)"/>
       <path id="SFProDisplay-Regular-28" d="M 1481 -1094 
L 1938 -1094 
C 1488 -572 1147 666 1147 1709 
C 1147 2753 1488 3988 1938 4509 
L 1481 4509 
C 872 3734 594 2822 594 1709 
C 594 597 872 -322 1481 -1094 
z
" transform="scale(0.015625)"/>
       <path id="SFProDisplay-Regular-48" d="M 438 0 
L 1000 0 
L 1000 2053 
L 3475 2053 
L 3475 0 
L 4038 0 
L 4038 4509 
L 3475 4509 
L 3475 2559 
L 1000 2559 
L 1000 4509 
L 438 4509 
L 438 0 
z
" transform="scale(0.015625)"/>
       <path id="SFProDisplay-Regular-7a" d="M 284 0 
L 2709 0 
L 2709 450 
L 916 450 
L 916 459 
L 2700 2853 
L 2700 3250 
L 288 3250 
L 288 2800 
L 2081 2800 
L 2081 2791 
L 284 388 
L 284 0 
z
" transform="scale(0.015625)"/>
       <path id="SFProDisplay-Regular-29" d="M 581 -1094 
C 1191 -322 1469 597 1469 1709 
C 1469 2822 1191 3734 581 4509 
L 125 4509 
C 575 3988 916 2753 916 1709 
C 916 666 575 -572 125 -1094 
L 581 -1094 
z
" transform="scale(0.015625)"/>
      </defs>
      <use xlink:href="#FZHTK--GBK1-0-5b9e"/>
      <use xlink:href="#FZHTK--GBK1-0-9645" transform="translate(100 0)"/>
      <use xlink:href="#FZHTK--GBK1-0-9891" transform="translate(200 0)"/>
      <use xlink:href="#FZHTK--GBK1-0-7387" transform="translate(300 0)"/>
      <use xlink:href="#SFProDisplay-Regular-20" transform="translate(400 0)"/>
      <use xlink:href="#SFProDisplay-Regular-28" transform="translate(420.507812 0)"/>
      <use xlink:href="#SFProDisplay-Regular-48" transform="translate(452.734375 0)"/>
      <use xlink:href="#SFProDisplay-Regular-7a" transform="translate(522.65625 0)"/>
      <use xlink:href="#SFProDisplay-Regular-29" transform="translate(569.433594 0)"/>
     </g>
    </g>
   </g>
   <g id="matplotlib.axis_2">
    <g id="ytick_1">
     <g id="line2d_15">
      <path d="M 56.084375 372.012528 
L 709.2 372.012528 
" clip-path="url(#p0aa837882e)" style="fill: none; stroke: #b0b0b0; stroke-opacity: 0.3; stroke-width: 0.8; stroke-linecap: square"/>
     </g>
     <g id="line2d_16">
      <defs>
       <path id="m1967c21914" d="M 0 0 
L -3.5 0 
" style="stroke: #000000; stroke-width: 0.8"/>
      </defs>
      <g>
       <use xlink:href="#m1967c21914" x="56.084375" y="372.012528" style="stroke: #000000; stroke-width: 0.8"/>
      </g>
     </g>
     <g id="text_9">
      <!-- −100 -->
      <g transform="translate(26.476562 375.535185) scale(0.1 -0.1)">
       <defs>
        <path id="SFProDisplay-Regular-2212" d="M 388 1575 
L 3481 1575 
L 3481 2081 
L 388 2081 
L 388 1575 
z
" transform="scale(0.015625)"/>
       </defs>
       <use xlink:href="#SFProDisplay-Regular-2212"/>
       <use xlink:href="#SFProDisplay-Regular-31" transform="translate(60.449219 0)"/>
       <use xlink:href="#SFProDisplay-Regular-30" transform="translate(104.785156 0)"/>
       <use xlink:href="#SFProDisplay-Regular-30" transform="translate(165.429688 0)"/>
      </g>
     </g>
    </g>
    <g id="ytick_2">
     <g id="line2d_17">
      <path d="M 56.084375 304.559208 
L 709.2 304.559208 
" clip-path="url(#p0aa837882e)" style="fill: none; stroke: #b0b0b0; stroke-opacity: 0.3; stroke-width: 0.8; stroke-linecap: square"/>
     </g>
     <g id="line2d_18">
      <g>
       <use xlink:href="#m1967c21914" x="56.084375" y="304.559208" style="stroke: #000000; stroke-width: 0.8"/>
      </g>
     </g>
     <g id="text_10">
      <!-- −80 -->
      <g transform="translate(30.978125 308.081865) scale(0.1 -0.1)">
       <defs>
        <path id="SFProDisplay-Regular-38" d="M 1919 -75 
C 2875 -75 3556 463 3556 1219 
L 3556 1225 
C 3556 1781 3166 2244 2588 2378 
L 2588 2391 
C 3081 2544 3394 2919 3394 3394 
L 3394 3400 
C 3394 4081 2772 4584 1919 4584 
C 1066 4584 444 4081 444 3400 
L 444 3394 
C 444 2919 756 2544 1250 2391 
L 1250 2378 
C 672 2244 281 1781 281 1225 
L 281 1219 
C 281 463 963 -75 1919 -75 
z
M 1919 2600 
C 1375 2600 1003 2909 1003 3347 
L 1003 3353 
C 1003 3791 1375 4100 1919 4100 
C 2463 4100 2834 3791 2834 3353 
L 2834 3347 
C 2834 2909 2463 2600 1919 2600 
z
M 1919 416 
C 1297 416 853 766 853 1253 
L 853 1259 
C 853 1753 1294 2106 1919 2106 
C 2544 2106 2984 1753 2984 1259 
L 2984 1253 
C 2984 766 2541 416 1919 416 
z
" transform="scale(0.015625)"/>
       </defs>
       <use xlink:href="#SFProDisplay-Regular-2212"/>
       <use xlink:href="#SFProDisplay-Regular-38" transform="translate(60.449219 0)"/>
       <use xlink:href="#SFProDisplay-Regular-30" transform="translate(120.410156 0)"/>
      </g>
     </g>
    </g>
    <g id="ytick_3">
     <g id="line2d_19">
      <path d="M 56.084375 237.105888 
L 709.2 237.105888 
" clip-path="url(#p0aa837882e)" style="fill: none; stroke: #b0b0b0; stroke-opacity: 0.3; stroke-width: 0.8; stroke-linecap: square"/>
     </g>
     <g id="line2d_20">
      <g>
       <use xlink:href="#m1967c21914" x="56.084375" y="237.105888" style="stroke: #000000; stroke-width: 0.8"/>
      </g>
     </g>
     <g id="text_11">
      <!-- −60 -->
      <g transform="translate(30.803125 240.628545) scale(0.1 -0.1)">
       <defs>
        <path id="SFProDisplay-Regular-36" d="M 1997 -75 
C 2919 -75 3594 569 3594 1456 
L 3594 1463 
C 3594 2319 2956 2953 2097 2953 
C 1484 2953 1022 2628 841 2228 
L 828 2228 
C 828 2263 828 2294 831 2325 
C 856 3272 1188 4088 2028 4088 
C 2491 4088 2813 3856 2947 3484 
L 2959 3450 
L 3531 3450 
L 3522 3491 
C 3372 4147 2800 4584 2034 4584 
C 931 4584 284 3697 284 2178 
L 284 2172 
C 284 500 1166 -75 1997 -75 
z
M 963 1463 
L 963 1466 
C 963 2041 1409 2459 2000 2459 
C 2594 2459 3022 2038 3022 1450 
L 3022 1444 
C 3022 875 2566 425 1991 425 
C 1413 425 963 884 963 1463 
z
" transform="scale(0.015625)"/>
       </defs>
       <use xlink:href="#SFProDisplay-Regular-2212"/>
       <use xlink:href="#SFProDisplay-Regular-36" transform="translate(60.449219 0)"/>
       <use xlink:href="#SFProDisplay-Regular-30" transform="translate(122.167969 0)"/>
      </g>
     </g>
    </g>
    <g id="ytick_4">
     <g id="line2d_21">
      <path d="M 56.084375 169.652569 
L 709.2 169.652569 
" clip-path="url(#p0aa837882e)" style="fill: none; stroke: #b0b0b0; stroke-opacity: 0.3; stroke-width: 0.8; stroke-linecap: square"/>
     </g>
     <g id="line2d_22">
      <g>
       <use xlink:href="#m1967c21914" x="56.084375" y="169.652569" style="stroke: #000000; stroke-width: 0.8"/>
      </g>
     </g>
     <g id="text_12">
      <!-- −40 -->
      <g transform="translate(30.929688 173.175225) scale(0.1 -0.1)">
       <defs>
        <path id="SFProDisplay-Regular-34" d="M 2509 0 
L 3053 0 
L 3053 938 
L 3691 938 
L 3691 1431 
L 3053 1431 
L 3053 4509 
L 2222 4509 
L 244 1447 
L 244 938 
L 2509 938 
L 2509 0 
z
M 800 1431 
L 800 1444 
L 2491 4028 
L 2509 4028 
L 2509 1431 
L 800 1431 
z
" transform="scale(0.015625)"/>
       </defs>
       <use xlink:href="#SFProDisplay-Regular-2212"/>
       <use xlink:href="#SFProDisplay-Regular-34" transform="translate(60.449219 0)"/>
       <use xlink:href="#SFProDisplay-Regular-30" transform="translate(120.898438 0)"/>
      </g>
     </g>
    </g>
    <g id="ytick_5">
     <g id="line2d_23">
      <path d="M 56.084375 102.199249 
L 709.2 102.199249 
" clip-path="url(#p0aa837882e)" style="fill: none; stroke: #b0b0b0; stroke-opacity: 0.3; stroke-width: 0.8; stroke-linecap: square"/>
     </g>
     <g id="line2d_24">
      <g>
       <use xlink:href="#m1967c21914" x="56.084375" y="102.199249" style="stroke: #000000; stroke-width: 0.8"/>
      </g>
     </g>
     <g id="text_13">
      <!-- −20 -->
      <g transform="translate(31.315625 105.721905) scale(0.1 -0.1)">
       <use xlink:href="#SFProDisplay-Regular-2212"/>
       <use xlink:href="#SFProDisplay-Regular-32" transform="translate(60.449219 0)"/>
       <use xlink:href="#SFProDisplay-Regular-30" transform="translate(117.041016 0)"/>
      </g>
     </g>
    </g>
    <g id="ytick_6">
     <g id="line2d_25">
      <path d="M 56.084375 34.745929 
L 709.2 34.745929 
" clip-path="url(#p0aa837882e)" style="fill: none; stroke: #b0b0b0; stroke-opacity: 0.3; stroke-width: 0.8; stroke-linecap: square"/>
     </g>
     <g id="line2d_26">
      <g>
       <use xlink:href="#m1967c21914" x="56.084375" y="34.745929" style="stroke: #000000; stroke-width: 0.8"/>
      </g>
     </g>
     <g id="text_14">
      <!-- 0 -->
      <g transform="translate(43.020313 38.268585) scale(0.1 -0.1)">
       <use xlink:href="#SFProDisplay-Regular-30"/>
      </g>
     </g>
    </g>
    <g id="text_15">
     <!-- 差值 (Hz) -->
     <g transform="translate(20.425312 224.107813) rotate(-90) scale(0.12 -0.12)">
      <defs>
       <path id="FZHTK--GBK1-0-5dee" d="M 4025 5100 
Q 4750 4950 4700 4875 
Q 4675 4825 4600 4750 
Q 4325 4550 4050 4125 
Q 5075 4125 5550 4200 
L 5550 3675 
Q 5175 3725 4500 3725 
L 3375 3725 
Q 3350 3650 3325 3525 
Q 3325 3425 3250 3225 
L 4175 3225 
Q 4750 3225 5325 3275 
L 5325 2775 
Q 5225 2775 4950 2775 
Q 4475 2800 4200 2800 
L 3125 2800 
Q 3000 2425 2900 2250 
L 4675 2250 
Q 5600 2250 5850 2300 
L 5850 1800 
Q 5450 1850 4725 1850 
L 2700 1850 
Q 2675 1825 2675 1800 
Q 2500 1500 2350 1325 
Q 2625 1300 3325 1300 
L 4150 1300 
Q 5025 1300 5200 1325 
L 5200 825 
Q 5100 825 4850 825 
Q 4250 850 3750 850 
L 3750 -25 
Q 5175 -25 5725 50 
L 5725 -500 
Q 5375 -450 4425 -450 
L 2625 -450 
Q 1725 -450 1400 -500 
L 1400 50 
Q 2200 -25 3250 -25 
L 3250 850 
Q 2575 850 2225 825 
L 2225 1150 
Q 1550 350 775 -150 
Q 675 0 350 175 
Q 275 225 250 250 
Q 1375 750 2150 1850 
Q 1100 1850 900 1850 
Q 625 1825 450 1800 
L 450 2300 
Q 675 2275 1275 2275 
L 2350 2275 
Q 2450 2425 2550 2700 
Q 2575 2775 2600 2800 
Q 1750 2800 1175 2775 
Q 1025 2775 975 2775 
L 975 3250 
Q 1150 3225 1450 3225 
Q 1650 3225 2750 3225 
Q 2750 3250 2775 3325 
Q 2825 3600 2875 3725 
L 1825 3725 
Q 1575 3725 1125 3700 
Q 875 3700 800 3700 
L 800 4175 
Q 1325 4125 2225 4125 
Q 2200 4275 1825 4825 
L 2300 5000 
Q 2625 4650 2800 4325 
L 2450 4125 
L 3525 4125 
Q 3625 4275 4025 5100 
z
" transform="scale(0.015625)"/>
       <path id="FZHTK--GBK1-0-503c" d="M 1450 5100 
Q 2175 4900 2150 4825 
Q 2150 4775 2075 4700 
Q 1975 4600 1925 4525 
Q 1875 4450 1775 4275 
Q 1600 3975 1525 3875 
L 1525 225 
Q 1525 -150 1550 -475 
Q 1550 -625 1550 -700 
L 1025 -700 
Q 1025 -625 1025 -375 
Q 1050 25 1050 225 
L 1050 3025 
Q 1025 2900 575 2275 
L 150 2650 
Q 1000 3750 1450 5100 
z
M 3575 5100 
Q 3650 5100 3850 5075 
Q 4250 5050 4225 5025 
Q 4225 5000 4200 4950 
Q 4100 4775 4075 4425 
L 4875 4425 
Q 5575 4425 5975 4475 
L 5975 3950 
Q 5675 3975 4900 3975 
L 4025 3975 
L 3975 3400 
L 4400 3400 
Q 5050 3400 5400 3450 
Q 5350 2900 5350 2425 
L 5350 0 
Q 5800 0 6100 50 
L 6100 -450 
Q 5800 -425 5150 -400 
L 2825 -400 
Q 2500 -400 2050 -425 
Q 1850 -425 1750 -425 
L 1750 50 
Q 1850 50 2025 50 
Q 2250 25 2425 25 
L 2425 2450 
Q 2425 2875 2350 3450 
Q 2650 3400 3225 3400 
L 3500 3400 
L 3525 3975 
L 2875 3975 
Q 2225 3975 2000 3950 
L 2000 4450 
Q 2100 4450 2400 4450 
Q 2750 4425 2875 4425 
L 3550 4425 
Q 3575 4775 3575 5100 
z
M 2900 3000 
L 2900 2525 
L 4875 2525 
L 4875 3000 
L 2900 3000 
z
M 2900 2175 
L 2900 1700 
L 4875 1700 
L 4875 2175 
L 2900 2175 
z
M 2900 1350 
L 2900 875 
L 4875 875 
L 4875 1350 
L 2900 1350 
z
M 2900 525 
L 2900 0 
L 4875 0 
L 4875 525 
L 2900 525 
z
" transform="scale(0.015625)"/>
      </defs>
      <use xlink:href="#FZHTK--GBK1-0-5dee"/>
      <use xlink:href="#FZHTK--GBK1-0-503c" transform="translate(100 0)"/>
      <use xlink:href="#SFProDisplay-Regular-20" transform="translate(200 0)"/>
      <use xlink:href="#SFProDisplay-Regular-28" transform="translate(220.507812 0)"/>
      <use xlink:href="#SFProDisplay-Regular-48" transform="translate(252.734375 0)"/>
      <use xlink:href="#SFProDisplay-Regular-7a" transform="translate(322.65625 0)"/>
      <use xlink:href="#SFProDisplay-Regular-29" transform="translate(369.433594 0)"/>
     </g>
    </g>
   </g>
   <g id="line2d_27">
    <path d="M 56.084375 34.745929 
L 709.2 34.745929 
" clip-path="url(#p0aa837882e)" style="fill: none; stroke-dasharray: 1.5,2.475; stroke-dashoffset: 0; stroke: #ff0000; stroke-opacity: 0.7; stroke-width: 1.5"/>
   </g>
   <g id="patch_26">
    <path d="M 56.084375 389.213125 
L 56.084375 10.8 
" style="fill: none; stroke: #000000; stroke-width: 0.8; stroke-linejoin: miter; stroke-linecap: square"/>
   </g>
   <g id="patch_27">
    <path d="M 709.2 389.213125 
L 709.2 10.8 
" style="fill: none; stroke: #000000; stroke-width: 0.8; stroke-linejoin: miter; stroke-linecap: square"/>
   </g>
   <g id="patch_28">
    <path d="M 56.084375 389.213125 
L 709.2 389.213125 
" style="fill: none; stroke: #000000; stroke-width: 0.8; stroke-linejoin: miter; stroke-linecap: square"/>
   </g>
   <g id="patch_29">
    <path d="M 56.084375 10.8 
L 709.2 10.8 
" style="fill: none; stroke: #000000; stroke-width: 0.8; stroke-linejoin: miter; stroke-linecap: square"/>
   </g>
  </g>
 </g>
 <defs>
  <clipPath id="p0aa837882e">
   <rect x="56.084375" y="10.8" width="653.115625" height="378.413125"/>
  </clipPath>
 </defs>
</svg>
