<?xml version="1.0" encoding="utf-8" standalone="no"?>
<!DOCTYPE svg PUBLIC "-//W3C//DTD SVG 1.1//EN"
  "http://www.w3.org/Graphics/SVG/1.1/DTD/svg11.dtd">
<svg xmlns:xlink="http://www.w3.org/1999/xlink" width="720pt" height="432pt" viewBox="0 0 720 432" xmlns="http://www.w3.org/2000/svg" version="1.1">
 <metadata>
  <rdf:RDF xmlns:dc="http://purl.org/dc/elements/1.1/" xmlns:cc="http://creativecommons.org/ns#" xmlns:rdf="http://www.w3.org/1999/02/22-rdf-syntax-ns#">
   <cc:Work>
    <dc:type rdf:resource="http://purl.org/dc/dcmitype/StillImage"/>
    <dc:date>2025-04-20T20:18:17.696785</dc:date>
    <dc:format>image/svg+xml</dc:format>
    <dc:creator>
     <cc:Agent>
      <dc:title>Matplotlib v3.10.1, https://matplotlib.org/</dc:title>
     </cc:Agent>
    </dc:creator>
   </cc:Work>
  </rdf:RDF>
 </metadata>
 <defs>
  <style type="text/css">*{stroke-linejoin: round; stroke-linecap: butt}</style>
 </defs>
 <g id="figure_1">
  <g id="patch_1">
   <path d="M 0 432 
L 720 432 
L 720 0 
L 0 0 
z
" style="fill: #ffffff"/>
  </g>
  <g id="axes_1">
   <g id="patch_2">
    <path d="M 47.945 389.365 
L 709.2 389.365 
L 709.2 10.8 
L 47.945 10.8 
z
" style="fill: #ffffff"/>
   </g>
   <g id="PathCollection_1">
    <defs>
     <path id="mb6a6b339b0" d="M 0 3.535534 
C 0.937635 3.535534 1.836992 3.163008 2.5 2.5 
C 3.163008 1.836992 3.535534 0.937635 3.535534 0 
C 3.535534 -0.937635 3.163008 -1.836992 2.5 -2.5 
C 1.836992 -3.163008 0.937635 -3.535534 0 -3.535534 
C -0.937635 -3.535534 -1.836992 -3.163008 -2.5 -2.5 
C -3.163008 -1.836992 -3.535534 -0.937635 -3.535534 0 
C -3.535534 0.937635 -3.163008 1.836992 -2.5 2.5 
C -1.836992 3.163008 -0.937635 3.535534 0 3.535534 
z
" style="stroke: #008000; stroke-opacity: 0.7"/>
    </defs>
    <g clip-path="url(#p77cc235e5c)">
     <use xlink:href="#mb6a6b339b0" x="78.002045" y="372.1575" style="fill: #008000; fill-opacity: 0.7; stroke: #008000; stroke-opacity: 0.7"/>
     <use xlink:href="#mb6a6b339b0" x="81.269116" y="371.224844" style="fill: #008000; fill-opacity: 0.7; stroke: #008000; stroke-opacity: 0.7"/>
     <use xlink:href="#mb6a6b339b0" x="87.803256" y="368.426877" style="fill: #008000; fill-opacity: 0.7; stroke: #008000; stroke-opacity: 0.7"/>
     <use xlink:href="#mb6a6b339b0" x="94.337396" y="364.696253" style="fill: #008000; fill-opacity: 0.7; stroke: #008000; stroke-opacity: 0.7"/>
     <use xlink:href="#mb6a6b339b0" x="102.505072" y="360.032974" style="fill: #008000; fill-opacity: 0.7; stroke: #008000; stroke-opacity: 0.7"/>
     <use xlink:href="#mb6a6b339b0" x="110.672747" y="355.369695" style="fill: #008000; fill-opacity: 0.7; stroke: #008000; stroke-opacity: 0.7"/>
     <use xlink:href="#mb6a6b339b0" x="120.473958" y="349.77376" style="fill: #008000; fill-opacity: 0.7; stroke: #008000; stroke-opacity: 0.7"/>
     <use xlink:href="#mb6a6b339b0" x="128.641633" y="345.110481" style="fill: #008000; fill-opacity: 0.7; stroke: #008000; stroke-opacity: 0.7"/>
     <use xlink:href="#mb6a6b339b0" x="138.442843" y="339.514546" style="fill: #008000; fill-opacity: 0.7; stroke: #008000; stroke-opacity: 0.7"/>
     <use xlink:href="#mb6a6b339b0" x="146.610519" y="333.918611" style="fill: #008000; fill-opacity: 0.7; stroke: #008000; stroke-opacity: 0.7"/>
     <use xlink:href="#mb6a6b339b0" x="156.411729" y="327.39002" style="fill: #008000; fill-opacity: 0.7; stroke: #008000; stroke-opacity: 0.7"/>
     <use xlink:href="#mb6a6b339b0" x="167.846475" y="321.794085" style="fill: #008000; fill-opacity: 0.7; stroke: #008000; stroke-opacity: 0.7"/>
     <use xlink:href="#mb6a6b339b0" x="180.914755" y="311.534871" style="fill: #008000; fill-opacity: 0.7; stroke: #008000; stroke-opacity: 0.7"/>
     <use xlink:href="#mb6a6b339b0" x="197.250106" y="304.073625" style="fill: #008000; fill-opacity: 0.7; stroke: #008000; stroke-opacity: 0.7"/>
     <use xlink:href="#mb6a6b339b0" x="213.585457" y="291.949099" style="fill: #008000; fill-opacity: 0.7; stroke: #008000; stroke-opacity: 0.7"/>
     <use xlink:href="#mb6a6b339b0" x="229.920808" y="285.420508" style="fill: #008000; fill-opacity: 0.7; stroke: #008000; stroke-opacity: 0.7"/>
     <use xlink:href="#mb6a6b339b0" x="254.423834" y="268.632703" style="fill: #008000; fill-opacity: 0.7; stroke: #008000; stroke-opacity: 0.7"/>
     <use xlink:href="#mb6a6b339b0" x="287.094536" y="250.912243" style="fill: #008000; fill-opacity: 0.7; stroke: #008000; stroke-opacity: 0.7"/>
     <use xlink:href="#mb6a6b339b0" x="319.765237" y="231.32647" style="fill: #008000; fill-opacity: 0.7; stroke: #008000; stroke-opacity: 0.7"/>
     <use xlink:href="#mb6a6b339b0" x="352.435939" y="225.730535" style="fill: #008000; fill-opacity: 0.7; stroke: #008000; stroke-opacity: 0.7"/>
     <use xlink:href="#mb6a6b339b0" x="385.10664" y="209.875386" style="fill: #008000; fill-opacity: 0.7; stroke: #008000; stroke-opacity: 0.7"/>
     <use xlink:href="#mb6a6b339b0" x="401.441991" y="201.481484" style="fill: #008000; fill-opacity: 0.7; stroke: #008000; stroke-opacity: 0.7"/>
     <use xlink:href="#mb6a6b339b0" x="450.448043" y="186.558991" style="fill: #008000; fill-opacity: 0.7; stroke: #008000; stroke-opacity: 0.7"/>
     <use xlink:href="#mb6a6b339b0" x="483.118745" y="177.232432" style="fill: #008000; fill-opacity: 0.7; stroke: #008000; stroke-opacity: 0.7"/>
     <use xlink:href="#mb6a6b339b0" x="515.789447" y="167.905874" style="fill: #008000; fill-opacity: 0.7; stroke: #008000; stroke-opacity: 0.7"/>
     <use xlink:href="#mb6a6b339b0" x="548.460148" y="149.252757" style="fill: #008000; fill-opacity: 0.7; stroke: #008000; stroke-opacity: 0.7"/>
     <use xlink:href="#mb6a6b339b0" x="581.13085" y="139.926199" style="fill: #008000; fill-opacity: 0.7; stroke: #008000; stroke-opacity: 0.7"/>
     <use xlink:href="#mb6a6b339b0" x="613.801551" y="121.273083" style="fill: #008000; fill-opacity: 0.7; stroke: #008000; stroke-opacity: 0.7"/>
     <use xlink:href="#mb6a6b339b0" x="646.472253" y="102.619966" style="fill: #008000; fill-opacity: 0.7; stroke: #008000; stroke-opacity: 0.7"/>
     <use xlink:href="#mb6a6b339b0" x="679.142955" y="93.293408" style="fill: #008000; fill-opacity: 0.7; stroke: #008000; stroke-opacity: 0.7"/>
    </g>
   </g>
   <g id="matplotlib.axis_1">
    <g id="xtick_1">
     <g id="line2d_1">
      <path d="M 74.734975 389.365 
L 74.734975 10.8 
" clip-path="url(#p77cc235e5c)" style="fill: none; stroke: #b0b0b0; stroke-opacity: 0.3; stroke-width: 0.8; stroke-linecap: square"/>
     </g>
     <g id="line2d_2">
      <defs>
       <path id="m8bbb986de8" d="M 0 0 
L 0 3.5 
" style="stroke: #000000; stroke-width: 0.8"/>
      </defs>
      <g>
       <use xlink:href="#m8bbb986de8" x="74.734975" y="389.365" style="stroke: #000000; stroke-width: 0.8"/>
      </g>
     </g>
     <g id="text_1">
      <!-- 0.0 -->
      <g transform="translate(67.596694 403.410312) scale(0.1 -0.1)">
       <defs>
        <path id="SFProDisplay-Regular-30" d="M 1938 -75 
C 2975 -75 3597 822 3597 2253 
L 3597 2259 
C 3597 3691 2975 4584 1938 4584 
C 900 4584 284 3691 284 2259 
L 284 2253 
C 284 822 900 -75 1938 -75 
z
M 1938 416 
C 1250 416 850 1122 850 2253 
L 850 2259 
C 850 3391 1250 4091 1938 4091 
C 2625 4091 3031 3391 3031 2259 
L 3031 2253 
C 3031 1122 2625 416 1938 416 
z
" transform="scale(0.015625)"/>
        <path id="SFProDisplay-Regular-2e" d="M 688 -44 
C 888 -44 1044 113 1044 313 
C 1044 513 888 669 688 669 
C 488 669 331 513 331 313 
C 331 113 488 -44 688 -44 
z
" transform="scale(0.015625)"/>
       </defs>
       <use xlink:href="#SFProDisplay-Regular-30"/>
       <use xlink:href="#SFProDisplay-Regular-2e" transform="translate(60.644531 0)"/>
       <use xlink:href="#SFProDisplay-Regular-30" transform="translate(82.128906 0)"/>
      </g>
     </g>
    </g>
    <g id="xtick_2">
     <g id="line2d_3">
      <path d="M 156.411729 389.365 
L 156.411729 10.8 
" clip-path="url(#p77cc235e5c)" style="fill: none; stroke: #b0b0b0; stroke-opacity: 0.3; stroke-width: 0.8; stroke-linecap: square"/>
     </g>
     <g id="line2d_4">
      <g>
       <use xlink:href="#m8bbb986de8" x="156.411729" y="389.365" style="stroke: #000000; stroke-width: 0.8"/>
      </g>
     </g>
     <g id="text_2">
      <!-- 0.5 -->
      <g transform="translate(149.380479 403.410312) scale(0.1 -0.1)">
       <defs>
        <path id="SFProDisplay-Regular-35" d="M 1916 -75 
C 2853 -75 3519 556 3522 1459 
L 3522 1466 
C 3522 2331 2897 2959 2031 2959 
C 1594 2959 1219 2797 1006 2494 
L 994 2494 
L 1147 4009 
L 3266 4009 
L 3266 4509 
L 684 4509 
L 453 1938 
L 950 1938 
C 1009 2041 1081 2128 1163 2203 
C 1363 2384 1625 2475 1931 2475 
C 2528 2475 2956 2050 2959 1456 
L 2959 1450 
C 2959 844 2534 419 1922 419 
C 1381 419 981 759 925 1206 
L 922 1231 
L 369 1231 
L 372 1197 
C 438 463 1053 -75 1916 -75 
z
" transform="scale(0.015625)"/>
       </defs>
       <use xlink:href="#SFProDisplay-Regular-30"/>
       <use xlink:href="#SFProDisplay-Regular-2e" transform="translate(60.644531 0)"/>
       <use xlink:href="#SFProDisplay-Regular-35" transform="translate(82.128906 0)"/>
      </g>
     </g>
    </g>
    <g id="xtick_3">
     <g id="line2d_5">
      <path d="M 238.088483 389.365 
L 238.088483 10.8 
" clip-path="url(#p77cc235e5c)" style="fill: none; stroke: #b0b0b0; stroke-opacity: 0.3; stroke-width: 0.8; stroke-linecap: square"/>
     </g>
     <g id="line2d_6">
      <g>
       <use xlink:href="#m8bbb986de8" x="238.088483" y="389.365" style="stroke: #000000; stroke-width: 0.8"/>
      </g>
     </g>
     <g id="text_3">
      <!-- 1.0 -->
      <g transform="translate(231.765046 403.410312) scale(0.1 -0.1)">
       <defs>
        <path id="SFProDisplay-Regular-31" d="M 1516 0 
L 2059 0 
L 2059 4509 
L 1509 4509 
L 309 3647 
L 309 3081 
L 1503 3913 
L 1516 3913 
L 1516 0 
z
" transform="scale(0.015625)"/>
       </defs>
       <use xlink:href="#SFProDisplay-Regular-31"/>
       <use xlink:href="#SFProDisplay-Regular-2e" transform="translate(44.335938 0)"/>
       <use xlink:href="#SFProDisplay-Regular-30" transform="translate(65.820312 0)"/>
      </g>
     </g>
    </g>
    <g id="xtick_4">
     <g id="line2d_7">
      <path d="M 319.765237 389.365 
L 319.765237 10.8 
" clip-path="url(#p77cc235e5c)" style="fill: none; stroke: #b0b0b0; stroke-opacity: 0.3; stroke-width: 0.8; stroke-linecap: square"/>
     </g>
     <g id="line2d_8">
      <g>
       <use xlink:href="#m8bbb986de8" x="319.765237" y="389.365" style="stroke: #000000; stroke-width: 0.8"/>
      </g>
     </g>
     <g id="text_4">
      <!-- 1.5 -->
      <g transform="translate(313.548831 403.410312) scale(0.1 -0.1)">
       <use xlink:href="#SFProDisplay-Regular-31"/>
       <use xlink:href="#SFProDisplay-Regular-2e" transform="translate(44.335938 0)"/>
       <use xlink:href="#SFProDisplay-Regular-35" transform="translate(65.820312 0)"/>
      </g>
     </g>
    </g>
    <g id="xtick_5">
     <g id="line2d_9">
      <path d="M 401.441991 389.365 
L 401.441991 10.8 
" clip-path="url(#p77cc235e5c)" style="fill: none; stroke: #b0b0b0; stroke-opacity: 0.3; stroke-width: 0.8; stroke-linecap: square"/>
     </g>
     <g id="line2d_10">
      <g>
       <use xlink:href="#m8bbb986de8" x="401.441991" y="389.365" style="stroke: #000000; stroke-width: 0.8"/>
      </g>
     </g>
     <g id="text_5">
      <!-- 2.0 -->
      <g transform="translate(394.506054 403.410312) scale(0.1 -0.1)">
       <defs>
        <path id="SFProDisplay-Regular-32" d="M 366 0 
L 3341 0 
L 3341 500 
L 1138 500 
L 1138 513 
L 2209 1613 
C 3038 2459 3266 2831 3266 3325 
L 3266 3331 
C 3266 4038 2669 4584 1853 4584 
C 1013 4584 338 4006 338 3225 
L 338 3206 
L 881 3206 
L 881 3222 
C 881 3706 1300 4094 1863 4094 
C 2353 4094 2700 3763 2703 3303 
L 2703 3297 
C 2703 2922 2563 2678 1953 2044 
L 366 388 
L 366 0 
z
" transform="scale(0.015625)"/>
       </defs>
       <use xlink:href="#SFProDisplay-Regular-32"/>
       <use xlink:href="#SFProDisplay-Regular-2e" transform="translate(56.591797 0)"/>
       <use xlink:href="#SFProDisplay-Regular-30" transform="translate(78.076172 0)"/>
      </g>
     </g>
    </g>
    <g id="xtick_6">
     <g id="line2d_11">
      <path d="M 483.118745 389.365 
L 483.118745 10.8 
" clip-path="url(#p77cc235e5c)" style="fill: none; stroke: #b0b0b0; stroke-opacity: 0.3; stroke-width: 0.8; stroke-linecap: square"/>
     </g>
     <g id="line2d_12">
      <g>
       <use xlink:href="#m8bbb986de8" x="483.118745" y="389.365" style="stroke: #000000; stroke-width: 0.8"/>
      </g>
     </g>
     <g id="text_6">
      <!-- 2.5 -->
      <g transform="translate(476.289839 403.410312) scale(0.1 -0.1)">
       <use xlink:href="#SFProDisplay-Regular-32"/>
       <use xlink:href="#SFProDisplay-Regular-2e" transform="translate(56.591797 0)"/>
       <use xlink:href="#SFProDisplay-Regular-35" transform="translate(78.076172 0)"/>
      </g>
     </g>
    </g>
    <g id="xtick_7">
     <g id="line2d_13">
      <path d="M 564.795499 389.365 
L 564.795499 10.8 
" clip-path="url(#p77cc235e5c)" style="fill: none; stroke: #b0b0b0; stroke-opacity: 0.3; stroke-width: 0.8; stroke-linecap: square"/>
     </g>
     <g id="line2d_14">
      <g>
       <use xlink:href="#m8bbb986de8" x="564.795499" y="389.365" style="stroke: #000000; stroke-width: 0.8"/>
      </g>
     </g>
     <g id="text_7">
      <!-- 3.0 -->
      <g transform="translate(557.729874 403.410312) scale(0.1 -0.1)">
       <defs>
        <path id="SFProDisplay-Regular-33" d="M 1884 -75 
C 2788 -75 3450 481 3450 1234 
L 3450 1241 
C 3450 1881 3003 2291 2347 2347 
L 2347 2359 
C 2909 2478 3303 2859 3303 3416 
L 3303 3422 
C 3303 4106 2738 4584 1878 4584 
C 1034 4584 453 4094 381 3359 
L 378 3328 
L 919 3328 
L 922 3359 
C 969 3816 1347 4097 1878 4097 
C 2428 4097 2738 3825 2738 3353 
L 2738 3347 
C 2738 2897 2363 2566 1825 2566 
L 1284 2566 
L 1284 2091 
L 1850 2091 
C 2481 2091 2878 1781 2878 1228 
L 2878 1222 
C 2878 744 2475 413 1884 413 
C 1284 413 878 719 831 1163 
L 828 1194 
L 288 1194 
L 291 1156 
C 350 444 953 -75 1884 -75 
z
" transform="scale(0.015625)"/>
       </defs>
       <use xlink:href="#SFProDisplay-Regular-33"/>
       <use xlink:href="#SFProDisplay-Regular-2e" transform="translate(59.179688 0)"/>
       <use xlink:href="#SFProDisplay-Regular-30" transform="translate(80.664062 0)"/>
      </g>
     </g>
    </g>
    <g id="xtick_8">
     <g id="line2d_15">
      <path d="M 646.472253 389.365 
L 646.472253 10.8 
" clip-path="url(#p77cc235e5c)" style="fill: none; stroke: #b0b0b0; stroke-opacity: 0.3; stroke-width: 0.8; stroke-linecap: square"/>
     </g>
     <g id="line2d_16">
      <g>
       <use xlink:href="#m8bbb986de8" x="646.472253" y="389.365" style="stroke: #000000; stroke-width: 0.8"/>
      </g>
     </g>
     <g id="text_8">
      <!-- 3.5 -->
      <g transform="translate(639.513659 403.410312) scale(0.1 -0.1)">
       <use xlink:href="#SFProDisplay-Regular-33"/>
       <use xlink:href="#SFProDisplay-Regular-2e" transform="translate(59.179688 0)"/>
       <use xlink:href="#SFProDisplay-Regular-35" transform="translate(80.664062 0)"/>
      </g>
     </g>
    </g>
    <g id="text_9">
     <!-- 实际幅度 (V) -->
     <g transform="translate(345.687813 418.775937) scale(0.12 -0.12)">
      <defs>
       <path id="FZHTK--GBK1-0-5b9e" d="M 3325 3725 
Q 3975 3725 4025 3600 
Q 4050 3550 3975 3475 
Q 3900 3375 3900 3325 
Q 3800 2150 3750 1725 
L 4800 1725 
Q 5525 1750 5925 1800 
L 5925 1225 
Q 5425 1275 4825 1275 
L 3650 1275 
Q 3175 125 975 -550 
Q 925 -475 875 -375 
Q 750 -125 475 50 
Q 2350 200 3125 1275 
L 1750 1275 
Q 1300 1275 525 1225 
L 525 1775 
Q 1200 1725 1725 1725 
L 3250 1725 
Q 3375 2225 3325 3725 
z
M 2025 3625 
Q 2675 3325 3050 2975 
L 2700 2575 
Q 2325 2950 1700 3250 
L 2025 3625 
z
M 1500 2825 
Q 2025 2600 2575 2200 
L 2175 1875 
Q 1800 2150 1125 2475 
L 1500 2825 
z
M 3875 1025 
Q 5100 450 5750 -50 
L 5275 -575 
Q 4625 75 3550 575 
L 3875 1025 
z
M 3525 5050 
Q 3600 4775 3625 4675 
Q 3650 4550 3675 4475 
Q 3700 4450 3700 4425 
L 5175 4425 
Q 5350 4425 5750 4475 
Q 5750 4475 5700 3975 
L 5700 3700 
Q 5700 3425 5750 3225 
L 5125 3225 
Q 5175 3375 5175 3700 
L 5175 3950 
L 1225 3950 
L 1225 3750 
Q 1225 3475 1275 3275 
L 650 3275 
Q 700 3400 700 3750 
L 700 3950 
Q 700 4300 650 4475 
Q 875 4425 1225 4425 
L 3125 4425 
Q 3100 4550 3000 4800 
Q 2950 4925 2925 4975 
L 3525 5050 
z
" transform="scale(0.015625)"/>
       <path id="FZHTK--GBK1-0-9645" d="M 675 4825 
Q 825 4825 1225 4800 
Q 1500 4775 1575 4775 
L 1725 4775 
Q 2075 4775 2625 4825 
Q 2675 4850 2650 4775 
Q 2625 4675 2400 4075 
Q 2000 2925 2000 2900 
Q 2000 2875 2075 2800 
Q 2350 2450 2450 2100 
Q 2725 975 1450 775 
Q 1450 1150 1275 1400 
Q 1850 1275 1975 1650 
Q 2100 2125 1500 2800 
Q 1450 2850 1450 2850 
Q 1450 2875 1525 3050 
Q 1800 3725 2000 4350 
L 1200 4350 
L 1200 975 
Q 1225 75 1250 -350 
L 625 -350 
Q 675 100 675 950 
L 675 3725 
Q 675 4500 650 4775 
Q 650 4850 675 4825 
z
M 2950 4700 
Q 3050 4700 3325 4675 
Q 3700 4650 3925 4650 
L 4500 4650 
Q 5225 4675 5575 4700 
L 5575 4175 
Q 5150 4200 4550 4225 
L 3925 4225 
Q 3425 4225 2950 4175 
L 2950 4700 
z
M 2500 3350 
Q 2900 3300 3400 3300 
L 4750 3300 
Q 5400 3325 5900 3350 
L 5900 2800 
Q 5450 2825 4825 2850 
L 4350 2850 
Q 4375 1800 4375 850 
Q 4400 25 4375 -75 
Q 4275 -375 3325 -450 
Q 3325 -125 3000 225 
Q 3675 125 3825 200 
Q 3875 300 3850 2850 
L 3425 2850 
Q 2925 2850 2500 2800 
L 2500 3350 
z
M 2950 2225 
L 3550 2025 
Q 3200 1000 2600 100 
Q 2375 300 2000 350 
Q 2725 1275 2950 2225 
z
M 5100 2200 
Q 5550 1500 6125 475 
L 5525 225 
Q 5150 1225 4625 1975 
L 5100 2200 
z
" transform="scale(0.015625)"/>
       <path id="FZHTK--GBK1-0-5e45" d="M 1300 5100 
Q 1800 5100 1875 5050 
Q 1875 5050 1850 5000 
Q 1775 4850 1775 4625 
L 1775 3975 
L 2000 3975 
Q 2325 3975 2750 4050 
Q 2700 3750 2700 3350 
L 2700 1100 
Q 2700 1075 2700 1025 
Q 2825 625 2050 475 
Q 2050 775 1900 1000 
Q 2100 950 2175 1025 
Q 2250 1075 2250 1400 
L 2250 3600 
L 1775 3600 
L 1775 250 
Q 1775 -375 1825 -575 
L 1275 -575 
Q 1325 -300 1325 225 
L 1325 3575 
L 850 3575 
L 850 1425 
Q 850 800 900 500 
L 350 500 
Q 400 725 400 1375 
L 400 3375 
Q 400 3750 350 4025 
Q 525 3975 1150 3975 
L 1325 3975 
L 1325 4575 
Q 1325 4950 1300 5100 
z
M 2925 4900 
Q 3200 4850 3875 4850 
L 5100 4850 
Q 5750 4850 6050 4900 
L 6050 4375 
Q 5750 4425 5125 4425 
L 3875 4425 
Q 3250 4425 2925 4375 
L 2925 4900 
z
M 5700 4025 
Q 5650 3775 5650 3525 
L 5650 3100 
Q 5650 2800 5700 2625 
Q 5400 2675 4825 2675 
L 4100 2675 
Q 3650 2675 3200 2625 
Q 3250 2750 3250 3150 
L 3250 3450 
Q 3250 3725 3200 4025 
Q 3400 3950 4100 3950 
L 4825 3950 
Q 5425 3950 5700 4025 
z
M 3700 3550 
L 3700 3075 
L 5175 3075 
L 5175 3550 
L 3700 3550 
z
M 2950 2300 
Q 3200 2250 3750 2250 
L 5250 2250 
Q 5825 2250 6000 2300 
Q 5925 2025 5925 1650 
L 5925 125 
Q 5950 -325 6000 -575 
L 5425 -575 
Q 5475 -450 5475 -125 
L 3475 -125 
Q 3475 -500 3525 -625 
L 2950 -625 
Q 3000 -425 3000 75 
L 3000 1575 
Q 3000 1950 2950 2300 
z
M 3475 1850 
L 3475 1275 
L 4225 1275 
L 4225 1850 
L 3475 1850 
z
M 4700 1850 
L 4700 1275 
L 5475 1275 
L 5475 1850 
L 4700 1850 
z
M 4700 875 
L 4700 275 
L 5475 275 
L 5475 875 
L 4700 875 
z
M 4225 875 
L 3475 875 
L 3475 275 
L 4225 275 
L 4225 875 
z
" transform="scale(0.015625)"/>
       <path id="FZHTK--GBK1-0-5ea6" d="M 3600 5150 
Q 3800 4700 3875 4400 
L 4800 4400 
Q 5400 4425 5825 4475 
L 5825 3950 
Q 5675 3950 5225 3975 
Q 4900 3975 4825 3975 
L 1550 3975 
Q 1550 3850 1550 3300 
L 2525 3300 
Q 2525 3625 2500 3850 
Q 3025 3875 3075 3800 
Q 3075 3775 3050 3700 
Q 3000 3625 3000 3575 
Q 3000 3425 3000 3300 
L 4300 3300 
Q 4300 3750 4275 3850 
Q 4825 3850 4850 3775 
Q 4875 3750 4825 3700 
Q 4775 3650 4775 3625 
Q 4750 3500 4750 3300 
L 5075 3300 
Q 5250 3300 5600 3325 
Q 5850 3325 5950 3325 
L 5950 2850 
Q 5675 2875 5050 2900 
L 4750 2900 
L 4750 2500 
Q 4750 2100 4800 1925 
Q 4500 1950 3975 1975 
L 3200 1975 
Q 2650 1975 2500 1950 
Q 2525 2150 2525 2550 
L 2525 2900 
L 1550 2900 
Q 1550 1775 1425 1175 
Q 1150 125 800 -525 
Q 550 -275 300 -175 
Q 850 725 975 1400 
Q 1100 2100 1025 4475 
Q 1200 4450 1675 4425 
Q 1875 4400 2000 4400 
L 3325 4400 
Q 3275 4525 3100 4850 
Q 3050 4925 3025 4975 
L 3600 5150 
z
M 3000 2900 
L 3000 2350 
L 4300 2350 
L 4300 2900 
L 3000 2900 
z
M 1925 1700 
Q 2150 1675 2750 1675 
L 4000 1675 
Q 4850 1675 5150 1700 
Q 5175 1700 5175 1650 
Q 4675 825 4025 350 
Q 4900 25 5950 -25 
Q 5650 -300 5500 -600 
Q 4675 -425 3575 75 
Q 2750 -300 1675 -550 
Q 1650 -525 1600 -450 
Q 1500 -275 1250 0 
Q 2125 -25 3200 325 
Q 2575 750 2325 1025 
L 2800 1275 
L 2700 1275 
Q 2500 1275 2250 1250 
Q 2050 1250 1925 1250 
L 1925 1700 
z
M 4350 1275 
L 2800 1275 
Q 3050 925 3600 575 
Q 4050 850 4350 1275 
z
" transform="scale(0.015625)"/>
       <path id="SFProDisplay-Regular-20" transform="scale(0.015625)"/>
       <path id="SFProDisplay-Regular-28" d="M 1481 -1094 
L 1938 -1094 
C 1488 -572 1147 666 1147 1709 
C 1147 2753 1488 3988 1938 4509 
L 1481 4509 
C 872 3734 594 2822 594 1709 
C 594 597 872 -322 1481 -1094 
z
" transform="scale(0.015625)"/>
       <path id="SFProDisplay-Regular-56" d="M 1741 0 
L 2297 0 
L 3959 4509 
L 3369 4509 
L 2025 675 
L 2013 675 
L 669 4509 
L 78 4509 
L 1741 0 
z
" transform="scale(0.015625)"/>
       <path id="SFProDisplay-Regular-29" d="M 581 -1094 
C 1191 -322 1469 597 1469 1709 
C 1469 2822 1191 3734 581 4509 
L 125 4509 
C 575 3988 916 2753 916 1709 
C 916 666 575 -572 125 -1094 
L 581 -1094 
z
" transform="scale(0.015625)"/>
      </defs>
      <use xlink:href="#FZHTK--GBK1-0-5b9e"/>
      <use xlink:href="#FZHTK--GBK1-0-9645" transform="translate(100 0)"/>
      <use xlink:href="#FZHTK--GBK1-0-5e45" transform="translate(200 0)"/>
      <use xlink:href="#FZHTK--GBK1-0-5ea6" transform="translate(300 0)"/>
      <use xlink:href="#SFProDisplay-Regular-20" transform="translate(400 0)"/>
      <use xlink:href="#SFProDisplay-Regular-28" transform="translate(420.507812 0)"/>
      <use xlink:href="#SFProDisplay-Regular-56" transform="translate(452.734375 0)"/>
      <use xlink:href="#SFProDisplay-Regular-29" transform="translate(515.820312 0)"/>
     </g>
    </g>
   </g>
   <g id="matplotlib.axis_2">
    <g id="ytick_1">
     <g id="line2d_17">
      <path d="M 47.945 373.090156 
L 709.2 373.090156 
" clip-path="url(#p77cc235e5c)" style="fill: none; stroke: #b0b0b0; stroke-opacity: 0.3; stroke-width: 0.8; stroke-linecap: square"/>
     </g>
     <g id="line2d_18">
      <defs>
       <path id="mf1fd5974a0" d="M 0 0 
L -3.5 0 
" style="stroke: #000000; stroke-width: 0.8"/>
      </defs>
      <g>
       <use xlink:href="#mf1fd5974a0" x="47.945" y="373.090156" style="stroke: #000000; stroke-width: 0.8"/>
      </g>
     </g>
     <g id="text_10">
      <!-- 0.0 -->
      <g transform="translate(26.668438 376.612812) scale(0.1 -0.1)">
       <use xlink:href="#SFProDisplay-Regular-30"/>
       <use xlink:href="#SFProDisplay-Regular-2e" transform="translate(60.644531 0)"/>
       <use xlink:href="#SFProDisplay-Regular-30" transform="translate(82.128906 0)"/>
      </g>
     </g>
    </g>
    <g id="ytick_2">
     <g id="line2d_19">
      <path d="M 47.945 326.457364 
L 709.2 326.457364 
" clip-path="url(#p77cc235e5c)" style="fill: none; stroke: #b0b0b0; stroke-opacity: 0.3; stroke-width: 0.8; stroke-linecap: square"/>
     </g>
     <g id="line2d_20">
      <g>
       <use xlink:href="#mf1fd5974a0" x="47.945" y="326.457364" style="stroke: #000000; stroke-width: 0.8"/>
      </g>
     </g>
     <g id="text_11">
      <!-- 0.5 -->
      <g transform="translate(26.8825 329.980021) scale(0.1 -0.1)">
       <use xlink:href="#SFProDisplay-Regular-30"/>
       <use xlink:href="#SFProDisplay-Regular-2e" transform="translate(60.644531 0)"/>
       <use xlink:href="#SFProDisplay-Regular-35" transform="translate(82.128906 0)"/>
      </g>
     </g>
    </g>
    <g id="ytick_3">
     <g id="line2d_21">
      <path d="M 47.945 279.824573 
L 709.2 279.824573 
" clip-path="url(#p77cc235e5c)" style="fill: none; stroke: #b0b0b0; stroke-opacity: 0.3; stroke-width: 0.8; stroke-linecap: square"/>
     </g>
     <g id="line2d_22">
      <g>
       <use xlink:href="#mf1fd5974a0" x="47.945" y="279.824573" style="stroke: #000000; stroke-width: 0.8"/>
      </g>
     </g>
     <g id="text_12">
      <!-- 1.0 -->
      <g transform="translate(28.298125 283.347229) scale(0.1 -0.1)">
       <use xlink:href="#SFProDisplay-Regular-31"/>
       <use xlink:href="#SFProDisplay-Regular-2e" transform="translate(44.335938 0)"/>
       <use xlink:href="#SFProDisplay-Regular-30" transform="translate(65.820312 0)"/>
      </g>
     </g>
    </g>
    <g id="ytick_4">
     <g id="line2d_23">
      <path d="M 47.945 233.191782 
L 709.2 233.191782 
" clip-path="url(#p77cc235e5c)" style="fill: none; stroke: #b0b0b0; stroke-opacity: 0.3; stroke-width: 0.8; stroke-linecap: square"/>
     </g>
     <g id="line2d_24">
      <g>
       <use xlink:href="#mf1fd5974a0" x="47.945" y="233.191782" style="stroke: #000000; stroke-width: 0.8"/>
      </g>
     </g>
     <g id="text_13">
      <!-- 1.5 -->
      <g transform="translate(28.512188 236.714438) scale(0.1 -0.1)">
       <use xlink:href="#SFProDisplay-Regular-31"/>
       <use xlink:href="#SFProDisplay-Regular-2e" transform="translate(44.335938 0)"/>
       <use xlink:href="#SFProDisplay-Regular-35" transform="translate(65.820312 0)"/>
      </g>
     </g>
    </g>
    <g id="ytick_5">
     <g id="line2d_25">
      <path d="M 47.945 186.558991 
L 709.2 186.558991 
" clip-path="url(#p77cc235e5c)" style="fill: none; stroke: #b0b0b0; stroke-opacity: 0.3; stroke-width: 0.8; stroke-linecap: square"/>
     </g>
     <g id="line2d_26">
      <g>
       <use xlink:href="#mf1fd5974a0" x="47.945" y="186.558991" style="stroke: #000000; stroke-width: 0.8"/>
      </g>
     </g>
     <g id="text_14">
      <!-- 2.0 -->
      <g transform="translate(27.073125 190.081647) scale(0.1 -0.1)">
       <use xlink:href="#SFProDisplay-Regular-32"/>
       <use xlink:href="#SFProDisplay-Regular-2e" transform="translate(56.591797 0)"/>
       <use xlink:href="#SFProDisplay-Regular-30" transform="translate(78.076172 0)"/>
      </g>
     </g>
    </g>
    <g id="ytick_6">
     <g id="line2d_27">
      <path d="M 47.945 139.926199 
L 709.2 139.926199 
" clip-path="url(#p77cc235e5c)" style="fill: none; stroke: #b0b0b0; stroke-opacity: 0.3; stroke-width: 0.8; stroke-linecap: square"/>
     </g>
     <g id="line2d_28">
      <g>
       <use xlink:href="#mf1fd5974a0" x="47.945" y="139.926199" style="stroke: #000000; stroke-width: 0.8"/>
      </g>
     </g>
     <g id="text_15">
      <!-- 2.5 -->
      <g transform="translate(27.287188 143.448855) scale(0.1 -0.1)">
       <use xlink:href="#SFProDisplay-Regular-32"/>
       <use xlink:href="#SFProDisplay-Regular-2e" transform="translate(56.591797 0)"/>
       <use xlink:href="#SFProDisplay-Regular-35" transform="translate(78.076172 0)"/>
      </g>
     </g>
    </g>
    <g id="ytick_7">
     <g id="line2d_29">
      <path d="M 47.945 93.293408 
L 709.2 93.293408 
" clip-path="url(#p77cc235e5c)" style="fill: none; stroke: #b0b0b0; stroke-opacity: 0.3; stroke-width: 0.8; stroke-linecap: square"/>
     </g>
     <g id="line2d_30">
      <g>
       <use xlink:href="#mf1fd5974a0" x="47.945" y="93.293408" style="stroke: #000000; stroke-width: 0.8"/>
      </g>
     </g>
     <g id="text_16">
      <!-- 3.0 -->
      <g transform="translate(26.81375 96.816064) scale(0.1 -0.1)">
       <use xlink:href="#SFProDisplay-Regular-33"/>
       <use xlink:href="#SFProDisplay-Regular-2e" transform="translate(59.179688 0)"/>
       <use xlink:href="#SFProDisplay-Regular-30" transform="translate(80.664062 0)"/>
      </g>
     </g>
    </g>
    <g id="ytick_8">
     <g id="line2d_31">
      <path d="M 47.945 46.660617 
L 709.2 46.660617 
" clip-path="url(#p77cc235e5c)" style="fill: none; stroke: #b0b0b0; stroke-opacity: 0.3; stroke-width: 0.8; stroke-linecap: square"/>
     </g>
     <g id="line2d_32">
      <g>
       <use xlink:href="#mf1fd5974a0" x="47.945" y="46.660617" style="stroke: #000000; stroke-width: 0.8"/>
      </g>
     </g>
     <g id="text_17">
      <!-- 3.5 -->
      <g transform="translate(27.027813 50.183273) scale(0.1 -0.1)">
       <use xlink:href="#SFProDisplay-Regular-33"/>
       <use xlink:href="#SFProDisplay-Regular-2e" transform="translate(59.179688 0)"/>
       <use xlink:href="#SFProDisplay-Regular-35" transform="translate(80.664062 0)"/>
      </g>
     </g>
    </g>
    <g id="text_18">
     <!-- 测量幅度 (V) -->
     <g transform="translate(20.617188 232.967187) rotate(-90) scale(0.12 -0.12)">
      <defs>
       <path id="FZHTK--GBK1-0-6d4b" d="M 5300 5075 
Q 5900 5075 5925 5000 
Q 5925 4975 5900 4925 
Q 5850 4650 5850 4200 
L 5850 275 
Q 5875 -250 5700 -350 
Q 5600 -475 4850 -550 
Q 4825 -250 4600 125 
Q 5400 -100 5350 325 
L 5350 4200 
Q 5350 4600 5300 4975 
Q 5300 5050 5300 5075 
z
M 825 4975 
Q 1275 4725 1750 4350 
L 1425 3925 
Q 1100 4200 475 4525 
L 825 4975 
z
M 2450 4700 
L 3400 4700 
Q 3750 4700 4025 4750 
Q 3975 4525 3975 4075 
L 3975 2000 
Q 3975 1600 4025 1300 
Q 4025 1225 4025 1225 
L 3475 1225 
Q 3525 1425 3525 2025 
L 3525 4250 
L 2275 4250 
L 2275 1975 
Q 2275 1275 2325 1150 
L 1775 1150 
Q 1775 1175 1775 1250 
Q 1825 1575 1825 1900 
L 1825 4100 
Q 1825 4575 1800 4750 
Q 1975 4700 2450 4700 
z
M 4400 4450 
Q 4975 4450 4950 4400 
Q 4950 4375 4925 4325 
Q 4875 4200 4875 4025 
L 4875 1725 
Q 4875 1350 4925 1025 
Q 4925 975 4925 975 
L 4400 975 
Q 4400 1000 4400 1100 
Q 4450 1425 4450 1725 
L 4450 4050 
Q 4450 4200 4400 4400 
Q 4425 4400 4400 4450 
z
M 2650 3800 
Q 3150 3775 3225 3700 
Q 3225 3675 3200 3650 
Q 3125 3550 3125 3475 
Q 3150 1400 2925 875 
Q 2750 225 1775 -550 
Q 1575 -325 1300 -175 
Q 2725 525 2650 2025 
L 2650 3800 
z
M 575 3450 
Q 1050 3275 1650 2900 
L 1300 2400 
Q 900 2725 250 2975 
L 575 3450 
z
M 950 2100 
L 1500 1775 
Q 1200 650 1050 -300 
Q 1025 -475 1025 -475 
Q 750 -375 400 -75 
Q 700 675 950 2100 
z
M 3375 1025 
Q 3875 700 4350 125 
L 3875 -275 
Q 3475 300 2975 725 
L 3375 1025 
z
" transform="scale(0.015625)"/>
       <path id="FZHTK--GBK1-0-91cf" d="M 1925 5025 
L 4600 5025 
Q 5075 5025 5300 5075 
Q 5275 5000 5275 4400 
L 5275 4075 
Q 5275 3500 5300 3350 
Q 5175 3400 4600 3400 
L 1850 3400 
Q 1300 3400 1150 3375 
Q 1150 3400 1150 3550 
Q 1175 3875 1175 4075 
L 1175 4450 
Q 1175 4850 1125 5075 
Q 1325 5025 1925 5025 
z
M 1650 4650 
L 1650 4400 
L 4775 4400 
L 4775 4650 
L 1650 4650 
z
M 4775 4050 
L 1650 4050 
L 1650 3750 
L 4775 3750 
L 4775 4050 
z
M 350 3175 
Q 350 3175 425 3175 
Q 875 3125 1325 3125 
L 5225 3125 
Q 5650 3125 5975 3175 
Q 6050 3175 6075 3175 
L 6075 2700 
Q 6050 2700 6000 2700 
Q 5675 2750 5250 2750 
L 1325 2750 
Q 875 2750 400 2700 
Q 350 2700 350 2700 
L 350 3175 
z
M 1850 2475 
L 4650 2475 
Q 5125 2475 5350 2525 
Q 5325 2400 5325 1875 
L 5325 1375 
Q 5325 875 5350 825 
Q 5175 875 4775 875 
L 3400 875 
L 3400 575 
L 4725 575 
Q 5075 575 5375 625 
Q 5450 625 5450 625 
L 5450 175 
Q 5425 175 5375 175 
Q 5100 225 4725 225 
L 3400 225 
L 3400 -100 
L 5200 -100 
Q 5575 -100 5900 -50 
Q 6000 -50 6025 -50 
L 6025 -550 
Q 6000 -550 5950 -550 
Q 5625 -500 5200 -500 
L 1025 -500 
Q 675 -500 375 -550 
Q 300 -550 300 -550 
L 300 -50 
Q 300 -50 375 -50 
Q 675 -100 1050 -100 
L 2900 -100 
L 2900 225 
L 1625 225 
Q 1300 225 1000 175 
Q 950 175 925 175 
L 925 625 
Q 950 625 1050 625 
Q 1350 575 1600 575 
L 2900 575 
L 2900 875 
L 1650 875 
Q 1525 875 1325 850 
Q 1050 850 1025 825 
Q 1075 1125 1075 1425 
L 1075 1825 
Q 1075 2300 1025 2525 
Q 1250 2475 1850 2475 
z
M 4850 2125 
L 3400 2125 
L 3400 1850 
L 4850 1850 
L 4850 2125 
z
M 2900 2125 
L 1525 2125 
L 1525 1850 
L 2900 1850 
L 2900 2125 
z
M 3400 1500 
L 3400 1225 
L 4850 1225 
L 4850 1500 
L 3400 1500 
z
M 2900 1500 
L 1525 1500 
L 1525 1225 
L 2900 1225 
L 2900 1500 
z
" transform="scale(0.015625)"/>
      </defs>
      <use xlink:href="#FZHTK--GBK1-0-6d4b"/>
      <use xlink:href="#FZHTK--GBK1-0-91cf" transform="translate(100 0)"/>
      <use xlink:href="#FZHTK--GBK1-0-5e45" transform="translate(200 0)"/>
      <use xlink:href="#FZHTK--GBK1-0-5ea6" transform="translate(300 0)"/>
      <use xlink:href="#SFProDisplay-Regular-20" transform="translate(400 0)"/>
      <use xlink:href="#SFProDisplay-Regular-28" transform="translate(420.507812 0)"/>
      <use xlink:href="#SFProDisplay-Regular-56" transform="translate(452.734375 0)"/>
      <use xlink:href="#SFProDisplay-Regular-29" transform="translate(515.820312 0)"/>
     </g>
    </g>
   </g>
   <g id="line2d_33">
    <path d="M 78.002045 371.224844 
L 81.269116 369.359533 
L 87.803256 365.628909 
L 94.337396 361.898286 
L 102.505072 357.235007 
L 110.672747 352.571728 
L 120.473958 346.975793 
L 128.641633 342.312514 
L 138.442843 336.716579 
L 146.610519 332.053299 
L 156.411729 326.457364 
L 167.846475 319.928774 
L 180.914755 312.467527 
L 197.250106 303.140969 
L 213.585457 293.814411 
L 229.920808 284.487852 
L 254.423834 270.498015 
L 287.094536 251.844898 
L 319.765237 233.191782 
L 352.435939 214.538665 
L 385.10664 195.885549 
L 401.441991 186.558991 
L 450.448043 158.579316 
L 483.118745 139.926199 
L 515.789447 121.273083 
L 548.460148 102.619966 
L 581.13085 83.96685 
L 613.801551 65.313733 
L 646.472253 46.660617 
L 679.142955 28.0075 
" clip-path="url(#p77cc235e5c)" style="fill: none; stroke-dasharray: 1.5,2.475; stroke-dashoffset: 0; stroke: #ff0000; stroke-width: 1.5"/>
   </g>
   <g id="patch_3">
    <path d="M 47.945 389.365 
L 47.945 10.8 
" style="fill: none; stroke: #000000; stroke-width: 0.8; stroke-linejoin: miter; stroke-linecap: square"/>
   </g>
   <g id="patch_4">
    <path d="M 709.2 389.365 
L 709.2 10.8 
" style="fill: none; stroke: #000000; stroke-width: 0.8; stroke-linejoin: miter; stroke-linecap: square"/>
   </g>
   <g id="patch_5">
    <path d="M 47.945 389.365 
L 709.2 389.365 
" style="fill: none; stroke: #000000; stroke-width: 0.8; stroke-linejoin: miter; stroke-linecap: square"/>
   </g>
   <g id="patch_6">
    <path d="M 47.945 10.8 
L 709.2 10.8 
" style="fill: none; stroke: #000000; stroke-width: 0.8; stroke-linejoin: miter; stroke-linecap: square"/>
   </g>
   <g id="legend_1">
    <g id="patch_7">
     <path d="M 54.945 33.55625 
L 151.035625 33.55625 
Q 153.035625 33.55625 153.035625 31.55625 
L 153.035625 17.8 
Q 153.035625 15.8 151.035625 15.8 
L 54.945 15.8 
Q 52.945 15.8 52.945 17.8 
L 52.945 31.55625 
Q 52.945 33.55625 54.945 33.55625 
z
" style="fill: #ffffff; opacity: 0.8; stroke: #cccccc; stroke-linejoin: miter"/>
    </g>
    <g id="line2d_34">
     <path d="M 56.945 24.346875 
L 66.945 24.346875 
L 76.945 24.346875 
" style="fill: none; stroke-dasharray: 1.5,2.475; stroke-dashoffset: 0; stroke: #ff0000; stroke-width: 1.5"/>
    </g>
    <g id="text_19">
     <!-- 理想关系 (y=x) -->
     <g transform="translate(84.945 27.846875) scale(0.1 -0.1)">
      <defs>
       <path id="FZHTK--GBK1-0-7406" d="M 3350 4750 
L 4975 4750 
Q 5725 4775 5725 4775 
Q 5675 4650 5675 4175 
L 5675 2625 
Q 5675 2150 5725 1900 
Q 5700 1900 5650 1900 
Q 5400 1925 5050 1925 
L 4400 1925 
L 4400 1250 
L 4875 1250 
Q 5675 1275 5675 1275 
L 5675 775 
Q 5425 825 4900 825 
L 4400 825 
L 4400 150 
L 5450 150 
Q 5850 150 6025 200 
L 6025 -300 
Q 5900 -275 5450 -275 
L 2900 -275 
Q 2375 -275 2075 -300 
L 2075 175 
Q 2325 150 2875 150 
L 3900 150 
L 3900 825 
L 3425 825 
Q 2925 825 2675 775 
L 2675 1275 
Q 2875 1250 3400 1250 
L 3900 1250 
L 3900 1925 
L 3275 1925 
Q 2950 1925 2675 1900 
Q 2650 1900 2625 1900 
Q 2650 1900 2650 2625 
L 2650 4175 
Q 2650 4400 2625 4700 
Q 2625 4750 2625 4775 
Q 3075 4750 3350 4750 
z
M 375 4550 
Q 525 4525 950 4525 
L 1750 4525 
Q 2375 4550 2375 4550 
L 2375 4050 
Q 2225 4075 1825 4075 
L 1600 4075 
L 1600 2775 
L 1750 2775 
Q 2050 2775 2275 2800 
L 2275 2300 
Q 2050 2325 1775 2325 
L 1600 2325 
L 1600 900 
Q 1875 975 2275 1175 
L 2300 600 
Q 1625 450 425 -75 
L 275 550 
Q 625 600 1125 750 
L 1125 2325 
L 900 2325 
Q 650 2325 400 2300 
L 400 2800 
Q 625 2775 900 2775 
L 1125 2775 
L 1125 4075 
L 875 4075 
Q 525 4075 375 4050 
L 375 4550 
z
M 3900 4325 
L 3125 4325 
L 3125 3525 
L 3900 3525 
L 3900 4325 
z
M 4400 4325 
L 4400 3525 
L 5200 3525 
L 5200 4325 
L 4400 4325 
z
M 3900 3150 
L 3125 3150 
L 3125 2350 
L 3900 2350 
L 3900 3150 
z
M 4400 3150 
L 4400 2350 
L 5200 2350 
L 5200 3150 
L 4400 3150 
z
" transform="scale(0.015625)"/>
       <path id="FZHTK--GBK1-0-60f3" d="M 5125 4325 
L 3600 4325 
L 3600 3825 
L 5125 3825 
L 5125 4325 
z
M 5125 3425 
L 3600 3425 
L 3600 2925 
L 5125 2925 
L 5125 3425 
z
M 5125 2525 
L 3625 2525 
L 3625 1950 
L 5125 1950 
L 5125 2525 
z
M 3350 1425 
Q 3725 900 3875 550 
L 3300 325 
Q 3050 950 2825 1225 
L 3350 1425 
z
M 5100 1225 
Q 5650 750 6150 150 
L 5575 -275 
Q 5150 425 4625 925 
L 5100 1225 
z
M 875 1175 
L 1525 1025 
Q 1525 1000 1500 925 
Q 1200 0 975 -425 
Q 725 -250 375 -250 
Q 775 500 875 1175 
z
M 1875 1125 
Q 2525 1150 2575 1050 
Q 2575 1025 2550 950 
Q 2450 725 2450 450 
Q 2275 -250 3300 -125 
Q 4000 -125 4075 0 
Q 4225 75 4275 625 
Q 4575 425 4900 350 
Q 4775 -325 4475 -425 
Q 4250 -600 3000 -575 
Q 1825 -625 1925 -50 
L 1925 625 
Q 1925 900 1875 1125 
z
M 1450 5100 
Q 2200 5100 2200 5025 
Q 2200 5000 2175 4975 
Q 2050 4750 2050 4125 
Q 2425 4125 2825 4175 
L 2825 3650 
Q 2725 3675 2050 3675 
L 2050 3100 
L 2475 3325 
Q 2550 3250 2800 2950 
Q 3025 2650 3100 2550 
L 3100 3900 
Q 3100 4575 3050 4825 
Q 3325 4750 3950 4750 
L 5000 4750 
Q 5425 4750 5675 4825 
Q 5625 4400 5625 3950 
L 5625 2175 
Q 5625 1800 5700 1450 
Q 5325 1525 4850 1525 
L 3925 1525 
Q 3300 1525 3025 1450 
Q 3075 1875 3075 2475 
L 2575 2175 
Q 2400 2600 2050 2975 
L 2050 2075 
Q 2050 1700 2100 1400 
L 1525 1400 
Q 1575 1550 1575 2100 
L 1575 3250 
Q 1550 3225 1525 3125 
Q 1250 2550 750 1725 
Q 575 1950 250 2075 
Q 800 2450 1350 3675 
Q 1050 3675 750 3650 
Q 600 3650 525 3650 
L 525 4175 
Q 850 4100 1525 4100 
Q 1550 4925 1450 5100 
z
" transform="scale(0.015625)"/>
       <path id="FZHTK--GBK1-0-5173" d="M 4075 5150 
Q 4650 4975 4750 4800 
Q 4750 4750 4650 4675 
Q 4525 4575 4450 4500 
Q 4275 4350 3975 3875 
L 4475 3875 
Q 4975 3875 5575 3925 
L 5575 3350 
Q 5125 3400 4475 3400 
L 3375 3400 
L 3375 2200 
L 4600 2200 
Q 5350 2225 5825 2275 
L 5825 1700 
Q 5300 1750 4600 1750 
L 3450 1750 
Q 4275 250 6100 150 
Q 5675 -150 5500 -525 
Q 3975 -75 3200 1325 
Q 2575 50 825 -650 
Q 550 -275 225 -100 
Q 2375 400 2775 1750 
L 1575 1750 
Q 975 1750 525 1700 
L 525 2275 
Q 1050 2250 1575 2225 
L 2850 2225 
L 2850 3400 
L 1875 3400 
Q 1300 3400 775 3350 
L 775 3925 
Q 1375 3875 1875 3875 
L 3450 3875 
Q 3850 4550 4075 5150 
z
M 2150 5100 
Q 2350 4850 2750 4275 
Q 2800 4250 2800 4225 
L 2225 3925 
Q 2050 4300 1600 4850 
L 2150 5100 
z
" transform="scale(0.015625)"/>
       <path id="FZHTK--GBK1-0-7cfb" d="M 5225 4925 
Q 5250 4875 5325 4775 
Q 5625 4325 5575 4325 
Q 4900 4325 3050 4150 
Q 3425 4000 3500 3925 
Q 3500 3900 3350 3850 
Q 3125 3775 3000 3675 
Q 2850 3575 2425 3300 
Q 2150 3125 1975 3025 
L 3625 3125 
Q 4225 3575 4500 3875 
Q 4975 3575 5050 3475 
Q 5050 3450 4950 3400 
Q 4725 3300 4525 3175 
Q 4500 3150 4425 3100 
Q 3150 2275 2125 1875 
L 4700 1975 
Q 4150 2350 4125 2350 
L 4525 2725 
Q 5425 2050 5875 1600 
L 5450 1200 
Q 5300 1425 5075 1600 
L 3600 1525 
L 3600 75 
Q 3800 -500 2600 -525 
Q 2550 -225 2450 0 
Q 2425 75 2425 75 
Q 3150 -25 3075 325 
L 3075 1500 
L 1925 1450 
Q 1850 1450 1725 1425 
Q 1325 1400 1125 1350 
L 950 1900 
Q 1525 1925 3050 2750 
Q 1800 2675 1475 2550 
L 1175 3075 
Q 2050 3450 2750 4125 
L 1025 3925 
Q 975 4100 875 4300 
Q 800 4425 750 4500 
Q 3075 4500 5225 4925 
z
M 4550 1175 
Q 4850 975 5625 375 
Q 5800 225 5875 175 
L 5400 -275 
Q 4800 450 4150 800 
L 4550 1175 
z
M 1925 1175 
L 2400 850 
Q 1425 -125 1175 -300 
Q 975 -50 675 75 
Q 1400 550 1925 1175 
z
" transform="scale(0.015625)"/>
       <path id="SFProDisplay-Regular-79" d="M 666 -1094 
C 1253 -1094 1538 -825 1769 -203 
L 3038 3250 
L 2466 3250 
L 1566 544 
L 1553 544 
L 656 3250 
L 75 3250 
L 1281 -3 
L 1216 -188 
C 1084 -556 894 -644 550 -644 
C 484 -644 422 -634 375 -625 
L 375 -1069 
C 444 -1081 559 -1094 666 -1094 
z
" transform="scale(0.015625)"/>
       <path id="SFProDisplay-Regular-3d" d="M 388 2350 
L 3481 2350 
L 3481 2856 
L 388 2856 
L 388 2350 
z
M 388 803 
L 3481 803 
L 3481 1309 
L 388 1309 
L 388 803 
z
" transform="scale(0.015625)"/>
       <path id="SFProDisplay-Regular-78" d="M 100 0 
L 703 0 
L 1488 1238 
L 1500 1238 
L 2278 0 
L 2881 0 
L 1800 1647 
L 2897 3250 
L 2291 3250 
L 1519 2031 
L 1506 2031 
L 725 3250 
L 119 3250 
L 1206 1625 
L 100 0 
z
" transform="scale(0.015625)"/>
      </defs>
      <use xlink:href="#FZHTK--GBK1-0-7406"/>
      <use xlink:href="#FZHTK--GBK1-0-60f3" transform="translate(100 0)"/>
      <use xlink:href="#FZHTK--GBK1-0-5173" transform="translate(200 0)"/>
      <use xlink:href="#FZHTK--GBK1-0-7cfb" transform="translate(300 0)"/>
      <use xlink:href="#SFProDisplay-Regular-20" transform="translate(400 0)"/>
      <use xlink:href="#SFProDisplay-Regular-28" transform="translate(420.507812 0)"/>
      <use xlink:href="#SFProDisplay-Regular-79" transform="translate(452.734375 0)"/>
      <use xlink:href="#SFProDisplay-Regular-3d" transform="translate(501.367188 0)"/>
      <use xlink:href="#SFProDisplay-Regular-78" transform="translate(561.816406 0)"/>
      <use xlink:href="#SFProDisplay-Regular-29" transform="translate(608.642578 0)"/>
     </g>
    </g>
   </g>
  </g>
 </g>
 <defs>
  <clipPath id="p77cc235e5c">
   <rect x="47.945" y="10.8" width="661.255" height="378.565"/>
  </clipPath>
 </defs>
</svg>
