<?xml version="1.0" encoding="utf-8" standalone="no"?>
<!DOCTYPE svg PUBLIC "-//W3C//DTD SVG 1.1//EN"
  "http://www.w3.org/Graphics/SVG/1.1/DTD/svg11.dtd">
<svg xmlns:xlink="http://www.w3.org/1999/xlink" width="720pt" height="432pt" viewBox="0 0 720 432" xmlns="http://www.w3.org/2000/svg" version="1.1">
 <metadata>
  <rdf:RDF xmlns:dc="http://purl.org/dc/elements/1.1/" xmlns:cc="http://creativecommons.org/ns#" xmlns:rdf="http://www.w3.org/1999/02/22-rdf-syntax-ns#">
   <cc:Work>
    <dc:type rdf:resource="http://purl.org/dc/dcmitype/StillImage"/>
    <dc:date>2025-04-20T20:04:45.784493</dc:date>
    <dc:format>image/svg+xml</dc:format>
    <dc:creator>
     <cc:Agent>
      <dc:title>Matplotlib v3.10.1, https://matplotlib.org/</dc:title>
     </cc:Agent>
    </dc:creator>
   </cc:Work>
  </rdf:RDF>
 </metadata>
 <defs>
  <style type="text/css">*{stroke-linejoin: round; stroke-linecap: butt}</style>
 </defs>
 <g id="figure_1">
  <g id="patch_1">
   <path d="M 0 432 
L 720 432 
L 720 0 
L 0 0 
z
" style="fill: #ffffff"/>
  </g>
  <g id="axes_1">
   <g id="patch_2">
    <path d="M 53.789375 389.528125 
L 709.2 389.528125 
L 709.2 10.8 
L 53.789375 10.8 
z
" style="fill: #ffffff"/>
   </g>
   <g id="patch_3">
    <path d="M 83.580767 62.444744 
L 194.690854 62.444744 
L 194.690854 62.444744 
L 83.580767 62.444744 
z
" clip-path="url(#p5dbdc25663)" style="fill: #ffa500; opacity: 0.7"/>
   </g>
   <g id="patch_4">
    <path d="M 84.969643 62.444744 
L 196.07973 62.444744 
L 196.07973 68.183049 
L 84.969643 68.183049 
z
" clip-path="url(#p5dbdc25663)" style="fill: #ffa500; opacity: 0.7"/>
   </g>
   <g id="patch_5">
    <path d="M 91.914024 62.444744 
L 203.02411 62.444744 
L 203.02411 85.397964 
L 91.914024 85.397964 
z
" clip-path="url(#p5dbdc25663)" style="fill: #ffa500; opacity: 0.7"/>
   </g>
   <g id="patch_6">
    <path d="M 96.080652 62.444744 
L 207.190739 62.444744 
L 207.190739 79.659659 
L 96.080652 79.659659 
z
" clip-path="url(#p5dbdc25663)" style="fill: #ffa500; opacity: 0.7"/>
   </g>
   <g id="patch_7">
    <path d="M 103.025032 62.444744 
L 214.135119 62.444744 
L 214.135119 85.397964 
L 103.025032 85.397964 
z
" clip-path="url(#p5dbdc25663)" style="fill: #ffa500; opacity: 0.7"/>
   </g>
   <g id="patch_8">
    <path d="M 109.969413 62.444744 
L 221.0795 62.444744 
L 221.0795 79.659659 
L 109.969413 79.659659 
z
" clip-path="url(#p5dbdc25663)" style="fill: #ffa500; opacity: 0.7"/>
   </g>
   <g id="patch_9">
    <path d="M 116.913793 62.444744 
L 228.02388 62.444744 
L 228.02388 73.921354 
L 116.913793 73.921354 
z
" clip-path="url(#p5dbdc25663)" style="fill: #ffa500; opacity: 0.7"/>
   </g>
   <g id="patch_10">
    <path d="M 123.858174 62.444744 
L 234.96826 62.444744 
L 234.96826 79.659659 
L 123.858174 79.659659 
z
" clip-path="url(#p5dbdc25663)" style="fill: #ffa500; opacity: 0.7"/>
   </g>
   <g id="patch_11">
    <path d="M 130.802554 62.444744 
L 241.912641 62.444744 
L 241.912641 73.921354 
L 130.802554 73.921354 
z
" clip-path="url(#p5dbdc25663)" style="fill: #ffa500; opacity: 0.7"/>
   </g>
   <g id="patch_12">
    <path d="M 137.746934 62.444744 
L 248.857021 62.444744 
L 248.857021 68.183049 
L 137.746934 68.183049 
z
" clip-path="url(#p5dbdc25663)" style="fill: #ffa500; opacity: 0.7"/>
   </g>
   <g id="patch_13">
    <path d="M 144.691315 62.444744 
L 255.801402 62.444744 
L 255.801402 68.183049 
L 144.691315 68.183049 
z
" clip-path="url(#p5dbdc25663)" style="fill: #ffa500; opacity: 0.7"/>
   </g>
   <g id="patch_14">
    <path d="M 151.635695 62.444744 
L 262.745782 62.444744 
L 262.745782 73.921354 
L 151.635695 73.921354 
z
" clip-path="url(#p5dbdc25663)" style="fill: #ffa500; opacity: 0.7"/>
   </g>
   <g id="patch_15">
    <path d="M 165.524456 62.444744 
L 276.634543 62.444744 
L 276.634543 73.921354 
L 165.524456 73.921354 
z
" clip-path="url(#p5dbdc25663)" style="fill: #ffa500; opacity: 0.7"/>
   </g>
   <g id="patch_16">
    <path d="M 179.413217 62.444744 
L 290.523304 62.444744 
L 290.523304 62.444744 
L 179.413217 62.444744 
z
" clip-path="url(#p5dbdc25663)" style="fill: #ffa500; opacity: 0.7"/>
   </g>
   <g id="patch_17">
    <path d="M 193.301978 62.444744 
L 304.412065 62.444744 
L 304.412065 62.444744 
L 193.301978 62.444744 
z
" clip-path="url(#p5dbdc25663)" style="fill: #ffa500; opacity: 0.7"/>
   </g>
   <g id="patch_18">
    <path d="M 207.190739 62.444744 
L 318.300826 62.444744 
L 318.300826 62.444744 
L 207.190739 62.444744 
z
" clip-path="url(#p5dbdc25663)" style="fill: #ffa500; opacity: 0.7"/>
   </g>
   <g id="patch_19">
    <path d="M 221.0795 62.444744 
L 332.189586 62.444744 
L 332.189586 56.706439 
L 221.0795 56.706439 
z
" clip-path="url(#p5dbdc25663)" style="fill: #ffa500; opacity: 0.7"/>
   </g>
   <g id="patch_20">
    <path d="M 248.857021 62.444744 
L 359.967108 62.444744 
L 359.967108 45.22983 
L 248.857021 45.22983 
z
" clip-path="url(#p5dbdc25663)" style="fill: #ffa500; opacity: 0.7"/>
   </g>
   <g id="patch_21">
    <path d="M 276.634543 62.444744 
L 387.74463 62.444744 
L 387.74463 39.491525 
L 276.634543 39.491525 
z
" clip-path="url(#p5dbdc25663)" style="fill: #ffa500; opacity: 0.7"/>
   </g>
   <g id="patch_22">
    <path d="M 290.523304 62.444744 
L 401.633391 62.444744 
L 401.633391 39.491525 
L 290.523304 39.491525 
z
" clip-path="url(#p5dbdc25663)" style="fill: #ffa500; opacity: 0.7"/>
   </g>
   <g id="patch_23">
    <path d="M 304.412065 62.444744 
L 415.522152 62.444744 
L 415.522152 28.014915 
L 304.412065 28.014915 
z
" clip-path="url(#p5dbdc25663)" style="fill: #ffa500; opacity: 0.7"/>
   </g>
   <g id="patch_24">
    <path d="M 332.189586 62.444744 
L 443.299673 62.444744 
L 443.299673 33.75322 
L 332.189586 33.75322 
z
" clip-path="url(#p5dbdc25663)" style="fill: #ffa500; opacity: 0.7"/>
   </g>
   <g id="patch_25">
    <path d="M 359.967108 62.444744 
L 471.077195 62.444744 
L 471.077195 33.75322 
L 359.967108 33.75322 
z
" clip-path="url(#p5dbdc25663)" style="fill: #ffa500; opacity: 0.7"/>
   </g>
   <g id="patch_26">
    <path d="M 387.74463 62.444744 
L 498.854717 62.444744 
L 498.854717 39.491525 
L 387.74463 39.491525 
z
" clip-path="url(#p5dbdc25663)" style="fill: #ffa500; opacity: 0.7"/>
   </g>
   <g id="patch_27">
    <path d="M 415.522152 62.444744 
L 526.632238 62.444744 
L 526.632238 62.444744 
L 415.522152 62.444744 
z
" clip-path="url(#p5dbdc25663)" style="fill: #ffa500; opacity: 0.7"/>
   </g>
   <g id="patch_28">
    <path d="M 443.299673 62.444744 
L 554.40976 62.444744 
L 554.40976 119.827794 
L 443.299673 119.827794 
z
" clip-path="url(#p5dbdc25663)" style="fill: #ffa500; opacity: 0.7"/>
   </g>
   <g id="patch_29">
    <path d="M 471.077195 62.444744 
L 582.187282 62.444744 
L 582.187282 171.472538 
L 471.077195 171.472538 
z
" clip-path="url(#p5dbdc25663)" style="fill: #ffa500; opacity: 0.7"/>
   </g>
   <g id="patch_30">
    <path d="M 498.854717 62.444744 
L 609.964804 62.444744 
L 609.964804 228.855587 
L 498.854717 228.855587 
z
" clip-path="url(#p5dbdc25663)" style="fill: #ffa500; opacity: 0.7"/>
   </g>
   <g id="patch_31">
    <path d="M 526.632238 62.444744 
L 637.742325 62.444744 
L 637.742325 286.238636 
L 526.632238 286.238636 
z
" clip-path="url(#p5dbdc25663)" style="fill: #ffa500; opacity: 0.7"/>
   </g>
   <g id="patch_32">
    <path d="M 568.298521 62.444744 
L 679.408608 62.444744 
L 679.408608 372.31321 
L 568.298521 372.31321 
z
" clip-path="url(#p5dbdc25663)" style="fill: #ffa500; opacity: 0.7"/>
   </g>
   <g id="matplotlib.axis_1">
    <g id="xtick_1">
     <g id="line2d_1">
      <path d="M 137.746934 389.528125 
L 137.746934 10.8 
" clip-path="url(#p5dbdc25663)" style="fill: none; stroke: #b0b0b0; stroke-opacity: 0.3; stroke-width: 0.8; stroke-linecap: square"/>
     </g>
     <g id="line2d_2">
      <defs>
       <path id="m35928d7371" d="M 0 0 
L 0 3.5 
" style="stroke: #000000; stroke-width: 0.8"/>
      </defs>
      <g>
       <use xlink:href="#m35928d7371" x="137.746934" y="389.528125" style="stroke: #000000; stroke-width: 0.8"/>
      </g>
     </g>
     <g id="text_1">
      <!-- 0 -->
      <g transform="translate(134.714903 403.573438) scale(0.1 -0.1)">
       <defs>
        <path id="SFProDisplay-Regular-30" d="M 1938 -75 
C 2975 -75 3597 822 3597 2253 
L 3597 2259 
C 3597 3691 2975 4584 1938 4584 
C 900 4584 284 3691 284 2259 
L 284 2253 
C 284 822 900 -75 1938 -75 
z
M 1938 416 
C 1250 416 850 1122 850 2253 
L 850 2259 
C 850 3391 1250 4091 1938 4091 
C 2625 4091 3031 3391 3031 2259 
L 3031 2253 
C 3031 1122 2625 416 1938 416 
z
" transform="scale(0.015625)"/>
       </defs>
       <use xlink:href="#SFProDisplay-Regular-30"/>
      </g>
     </g>
    </g>
    <g id="xtick_2">
     <g id="line2d_3">
      <path d="M 276.634543 389.528125 
L 276.634543 10.8 
" clip-path="url(#p5dbdc25663)" style="fill: none; stroke: #b0b0b0; stroke-opacity: 0.3; stroke-width: 0.8; stroke-linecap: square"/>
     </g>
     <g id="line2d_4">
      <g>
       <use xlink:href="#m35928d7371" x="276.634543" y="389.528125" style="stroke: #000000; stroke-width: 0.8"/>
      </g>
     </g>
     <g id="text_2">
      <!-- 1 -->
      <g transform="translate(274.417356 403.573438) scale(0.1 -0.1)">
       <defs>
        <path id="SFProDisplay-Regular-31" d="M 1516 0 
L 2059 0 
L 2059 4509 
L 1509 4509 
L 309 3647 
L 309 3081 
L 1503 3913 
L 1516 3913 
L 1516 0 
z
" transform="scale(0.015625)"/>
       </defs>
       <use xlink:href="#SFProDisplay-Regular-31"/>
      </g>
     </g>
    </g>
    <g id="xtick_3">
     <g id="line2d_5">
      <path d="M 415.522152 389.528125 
L 415.522152 10.8 
" clip-path="url(#p5dbdc25663)" style="fill: none; stroke: #b0b0b0; stroke-opacity: 0.3; stroke-width: 0.8; stroke-linecap: square"/>
     </g>
     <g id="line2d_6">
      <g>
       <use xlink:href="#m35928d7371" x="415.522152" y="389.528125" style="stroke: #000000; stroke-width: 0.8"/>
      </g>
     </g>
     <g id="text_3">
      <!-- 2 -->
      <g transform="translate(412.692464 403.573438) scale(0.1 -0.1)">
       <defs>
        <path id="SFProDisplay-Regular-32" d="M 366 0 
L 3341 0 
L 3341 500 
L 1138 500 
L 1138 513 
L 2209 1613 
C 3038 2459 3266 2831 3266 3325 
L 3266 3331 
C 3266 4038 2669 4584 1853 4584 
C 1013 4584 338 4006 338 3225 
L 338 3206 
L 881 3206 
L 881 3222 
C 881 3706 1300 4094 1863 4094 
C 2353 4094 2700 3763 2703 3303 
L 2703 3297 
C 2703 2922 2563 2678 1953 2044 
L 366 388 
L 366 0 
z
" transform="scale(0.015625)"/>
       </defs>
       <use xlink:href="#SFProDisplay-Regular-32"/>
      </g>
     </g>
    </g>
    <g id="xtick_4">
     <g id="line2d_7">
      <path d="M 554.40976 389.528125 
L 554.40976 10.8 
" clip-path="url(#p5dbdc25663)" style="fill: none; stroke: #b0b0b0; stroke-opacity: 0.3; stroke-width: 0.8; stroke-linecap: square"/>
     </g>
     <g id="line2d_8">
      <g>
       <use xlink:href="#m35928d7371" x="554.40976" y="389.528125" style="stroke: #000000; stroke-width: 0.8"/>
      </g>
     </g>
     <g id="text_4">
      <!-- 3 -->
      <g transform="translate(551.450385 403.573438) scale(0.1 -0.1)">
       <defs>
        <path id="SFProDisplay-Regular-33" d="M 1884 -75 
C 2788 -75 3450 481 3450 1234 
L 3450 1241 
C 3450 1881 3003 2291 2347 2347 
L 2347 2359 
C 2909 2478 3303 2859 3303 3416 
L 3303 3422 
C 3303 4106 2738 4584 1878 4584 
C 1034 4584 453 4094 381 3359 
L 378 3328 
L 919 3328 
L 922 3359 
C 969 3816 1347 4097 1878 4097 
C 2428 4097 2738 3825 2738 3353 
L 2738 3347 
C 2738 2897 2363 2566 1825 2566 
L 1284 2566 
L 1284 2091 
L 1850 2091 
C 2481 2091 2878 1781 2878 1228 
L 2878 1222 
C 2878 744 2475 413 1884 413 
C 1284 413 878 719 831 1163 
L 828 1194 
L 288 1194 
L 291 1156 
C 350 444 953 -75 1884 -75 
z
" transform="scale(0.015625)"/>
       </defs>
       <use xlink:href="#SFProDisplay-Regular-33"/>
      </g>
     </g>
    </g>
    <g id="xtick_5">
     <g id="line2d_9">
      <path d="M 693.297369 389.528125 
L 693.297369 10.8 
" clip-path="url(#p5dbdc25663)" style="fill: none; stroke: #b0b0b0; stroke-opacity: 0.3; stroke-width: 0.8; stroke-linecap: square"/>
     </g>
     <g id="line2d_10">
      <g>
       <use xlink:href="#m35928d7371" x="693.297369" y="389.528125" style="stroke: #000000; stroke-width: 0.8"/>
      </g>
     </g>
     <g id="text_5">
      <!-- 4 -->
      <g transform="translate(690.274713 403.573438) scale(0.1 -0.1)">
       <defs>
        <path id="SFProDisplay-Regular-34" d="M 2509 0 
L 3053 0 
L 3053 938 
L 3691 938 
L 3691 1431 
L 3053 1431 
L 3053 4509 
L 2222 4509 
L 244 1447 
L 244 938 
L 2509 938 
L 2509 0 
z
M 800 1431 
L 800 1444 
L 2491 4028 
L 2509 4028 
L 2509 1431 
L 800 1431 
z
" transform="scale(0.015625)"/>
       </defs>
       <use xlink:href="#SFProDisplay-Regular-34"/>
      </g>
     </g>
    </g>
    <g id="text_6">
     <!-- 实际相位 (deg) -->
     <g transform="translate(342.706563 418.892188) scale(0.12 -0.12)">
      <defs>
       <path id="FZHTK--GBK1-0-5b9e" d="M 3325 3725 
Q 3975 3725 4025 3600 
Q 4050 3550 3975 3475 
Q 3900 3375 3900 3325 
Q 3800 2150 3750 1725 
L 4800 1725 
Q 5525 1750 5925 1800 
L 5925 1225 
Q 5425 1275 4825 1275 
L 3650 1275 
Q 3175 125 975 -550 
Q 925 -475 875 -375 
Q 750 -125 475 50 
Q 2350 200 3125 1275 
L 1750 1275 
Q 1300 1275 525 1225 
L 525 1775 
Q 1200 1725 1725 1725 
L 3250 1725 
Q 3375 2225 3325 3725 
z
M 2025 3625 
Q 2675 3325 3050 2975 
L 2700 2575 
Q 2325 2950 1700 3250 
L 2025 3625 
z
M 1500 2825 
Q 2025 2600 2575 2200 
L 2175 1875 
Q 1800 2150 1125 2475 
L 1500 2825 
z
M 3875 1025 
Q 5100 450 5750 -50 
L 5275 -575 
Q 4625 75 3550 575 
L 3875 1025 
z
M 3525 5050 
Q 3600 4775 3625 4675 
Q 3650 4550 3675 4475 
Q 3700 4450 3700 4425 
L 5175 4425 
Q 5350 4425 5750 4475 
Q 5750 4475 5700 3975 
L 5700 3700 
Q 5700 3425 5750 3225 
L 5125 3225 
Q 5175 3375 5175 3700 
L 5175 3950 
L 1225 3950 
L 1225 3750 
Q 1225 3475 1275 3275 
L 650 3275 
Q 700 3400 700 3750 
L 700 3950 
Q 700 4300 650 4475 
Q 875 4425 1225 4425 
L 3125 4425 
Q 3100 4550 3000 4800 
Q 2950 4925 2925 4975 
L 3525 5050 
z
" transform="scale(0.015625)"/>
       <path id="FZHTK--GBK1-0-9645" d="M 675 4825 
Q 825 4825 1225 4800 
Q 1500 4775 1575 4775 
L 1725 4775 
Q 2075 4775 2625 4825 
Q 2675 4850 2650 4775 
Q 2625 4675 2400 4075 
Q 2000 2925 2000 2900 
Q 2000 2875 2075 2800 
Q 2350 2450 2450 2100 
Q 2725 975 1450 775 
Q 1450 1150 1275 1400 
Q 1850 1275 1975 1650 
Q 2100 2125 1500 2800 
Q 1450 2850 1450 2850 
Q 1450 2875 1525 3050 
Q 1800 3725 2000 4350 
L 1200 4350 
L 1200 975 
Q 1225 75 1250 -350 
L 625 -350 
Q 675 100 675 950 
L 675 3725 
Q 675 4500 650 4775 
Q 650 4850 675 4825 
z
M 2950 4700 
Q 3050 4700 3325 4675 
Q 3700 4650 3925 4650 
L 4500 4650 
Q 5225 4675 5575 4700 
L 5575 4175 
Q 5150 4200 4550 4225 
L 3925 4225 
Q 3425 4225 2950 4175 
L 2950 4700 
z
M 2500 3350 
Q 2900 3300 3400 3300 
L 4750 3300 
Q 5400 3325 5900 3350 
L 5900 2800 
Q 5450 2825 4825 2850 
L 4350 2850 
Q 4375 1800 4375 850 
Q 4400 25 4375 -75 
Q 4275 -375 3325 -450 
Q 3325 -125 3000 225 
Q 3675 125 3825 200 
Q 3875 300 3850 2850 
L 3425 2850 
Q 2925 2850 2500 2800 
L 2500 3350 
z
M 2950 2225 
L 3550 2025 
Q 3200 1000 2600 100 
Q 2375 300 2000 350 
Q 2725 1275 2950 2225 
z
M 5100 2200 
Q 5550 1500 6125 475 
L 5525 225 
Q 5150 1225 4625 1975 
L 5100 2200 
z
" transform="scale(0.015625)"/>
       <path id="FZHTK--GBK1-0-76f8" d="M 1350 5125 
Q 1875 5125 1975 5075 
Q 1975 5050 1950 4975 
Q 1850 4800 1850 4450 
L 1850 3800 
L 2150 3800 
Q 2600 3800 2725 3825 
L 2725 3325 
Q 2725 3325 2700 3325 
Q 2575 3350 2150 3350 
L 1850 3350 
L 1850 500 
Q 1850 -400 1900 -600 
L 1325 -600 
Q 1375 -450 1375 475 
L 1375 2475 
Q 950 1400 600 750 
Q 525 925 350 1175 
Q 300 1275 275 1300 
Q 1025 2200 1300 3350 
L 1000 3350 
Q 500 3350 400 3325 
L 400 3825 
Q 525 3800 1025 3800 
L 1375 3800 
L 1375 4500 
Q 1375 4975 1350 5125 
z
M 3550 4675 
L 5150 4675 
Q 5475 4675 5750 4725 
Q 5750 4700 5750 4650 
Q 5725 4450 5725 4225 
L 5725 400 
Q 5725 -350 5750 -500 
Q 5750 -525 5750 -525 
L 5175 -525 
Q 5175 -600 5200 -225 
Q 5200 -75 5200 50 
L 3475 50 
Q 3475 -250 3500 -500 
L 2925 -500 
Q 2975 -350 2975 450 
L 2975 4200 
Q 2975 4575 2925 4725 
Q 3175 4675 3550 4675 
z
M 3475 4225 
L 3475 3275 
L 5200 3275 
L 5200 4225 
L 3475 4225 
z
M 3475 2850 
L 3475 1900 
L 5200 1900 
L 5200 2850 
L 3475 2850 
z
M 3475 1475 
L 3475 500 
L 5200 500 
L 5200 1475 
L 3475 1475 
z
M 1900 2500 
L 2225 2700 
Q 2425 2525 2825 1900 
L 2425 1650 
Q 2100 2250 1900 2500 
z
" transform="scale(0.015625)"/>
       <path id="FZHTK--GBK1-0-4f4d" d="M 1575 5050 
Q 2150 4900 2275 4775 
Q 2275 4750 2200 4675 
Q 2100 4575 2050 4500 
Q 1975 4375 1775 3900 
Q 1650 3675 1625 3600 
L 1625 750 
Q 1625 -125 1650 -500 
Q 1650 -525 1650 -550 
L 1025 -550 
Q 1025 -525 1050 -450 
Q 1125 -25 1125 775 
L 1125 2675 
Q 950 2325 600 1875 
Q 575 1825 550 1800 
Q 425 2125 225 2350 
Q 1125 3275 1575 5050 
z
M 3900 5050 
Q 4100 4775 4350 4175 
L 3775 3975 
Q 3600 4450 3375 4850 
L 3900 5050 
z
M 5900 3900 
L 5900 3325 
Q 5875 3325 5850 3325 
Q 5550 3375 4900 3375 
L 3175 3375 
Q 2525 3375 2225 3325 
Q 2175 3325 2175 3325 
L 2175 3900 
Q 2175 3900 2250 3900 
Q 2650 3825 3175 3825 
L 4900 3825 
Q 5475 3825 5850 3900 
Q 5900 3900 5900 3900 
z
M 4525 3050 
Q 5125 2900 5275 2825 
Q 5275 2775 5225 2725 
Q 5075 2550 5000 2325 
Q 5000 2300 4975 2225 
Q 4725 1350 4450 300 
L 4925 300 
Q 5625 300 5975 350 
Q 6025 350 6025 350 
L 6025 -250 
Q 6025 -250 5975 -250 
Q 5550 -175 4850 -175 
L 3050 -175 
Q 2375 -175 2000 -225 
Q 1950 -225 1925 -225 
L 1925 375 
Q 1950 375 2000 375 
Q 2325 300 3025 300 
L 3950 300 
Q 4450 2075 4525 3050 
z
M 3025 2900 
Q 3225 2350 3600 875 
L 3000 750 
Q 2825 1950 2475 2775 
L 3025 2900 
z
" transform="scale(0.015625)"/>
       <path id="SFProDisplay-Regular-20" transform="scale(0.015625)"/>
       <path id="SFProDisplay-Regular-28" d="M 1481 -1094 
L 1938 -1094 
C 1488 -572 1147 666 1147 1709 
C 1147 2753 1488 3988 1938 4509 
L 1481 4509 
C 872 3734 594 2822 594 1709 
C 594 597 872 -322 1481 -1094 
z
" transform="scale(0.015625)"/>
       <path id="SFProDisplay-Regular-64" d="M 1575 -63 
C 2041 -63 2403 172 2606 550 
L 2619 550 
L 2619 0 
L 3163 0 
L 3163 4509 
L 2619 4509 
L 2619 2706 
L 2606 2706 
C 2403 3081 2025 3313 1566 3313 
C 750 3313 194 2653 194 1628 
L 194 1625 
C 194 600 744 -63 1575 -63 
z
M 1681 419 
C 1106 419 750 878 750 1625 
L 750 1628 
C 750 2369 1106 2831 1681 2831 
C 2228 2831 2622 2353 2622 1628 
L 2622 1625 
C 2622 897 2231 419 1681 419 
z
" transform="scale(0.015625)"/>
       <path id="SFProDisplay-Regular-65" d="M 1691 -63 
C 2400 -63 2931 363 3038 900 
L 3044 931 
L 2509 931 
L 2500 903 
C 2406 625 2116 419 1703 419 
C 1125 419 756 809 744 1478 
L 3084 1478 
L 3084 1678 
C 3084 2653 2544 3313 1656 3313 
C 769 3313 194 2622 194 1616 
L 194 1613 
C 194 591 756 -63 1691 -63 
z
M 1653 2831 
C 2128 2831 2478 2534 2531 1903 
L 753 1903 
C 813 2509 1181 2831 1653 2831 
z
" transform="scale(0.015625)"/>
       <path id="SFProDisplay-Regular-67" d="M 1728 -1156 
C 2609 -1156 3163 -663 3163 91 
L 3163 3250 
L 2619 3250 
L 2619 2700 
L 2606 2700 
C 2406 3063 2044 3313 1584 3313 
C 759 3313 194 2656 194 1647 
L 194 1644 
C 194 628 753 -31 1572 -31 
C 2038 -31 2413 200 2606 559 
L 2619 559 
L 2619 144 
C 2619 -359 2294 -675 1722 -675 
C 1278 -675 969 -531 866 -297 
L 853 -269 
L 306 -269 
L 313 -297 
C 419 -778 925 -1156 1728 -1156 
z
M 1691 450 
C 1113 450 750 906 750 1644 
L 750 1647 
C 750 2369 1113 2831 1691 2831 
C 2241 2831 2619 2363 2619 1647 
L 2619 1644 
C 2619 922 2244 450 1691 450 
z
" transform="scale(0.015625)"/>
       <path id="SFProDisplay-Regular-29" d="M 581 -1094 
C 1191 -322 1469 597 1469 1709 
C 1469 2822 1191 3734 581 4509 
L 125 4509 
C 575 3988 916 2753 916 1709 
C 916 666 575 -572 125 -1094 
L 581 -1094 
z
" transform="scale(0.015625)"/>
      </defs>
      <use xlink:href="#FZHTK--GBK1-0-5b9e"/>
      <use xlink:href="#FZHTK--GBK1-0-9645" transform="translate(100 0)"/>
      <use xlink:href="#FZHTK--GBK1-0-76f8" transform="translate(200 0)"/>
      <use xlink:href="#FZHTK--GBK1-0-4f4d" transform="translate(300 0)"/>
      <use xlink:href="#SFProDisplay-Regular-20" transform="translate(400 0)"/>
      <use xlink:href="#SFProDisplay-Regular-28" transform="translate(420.507812 0)"/>
      <use xlink:href="#SFProDisplay-Regular-64" transform="translate(452.734375 0)"/>
      <use xlink:href="#SFProDisplay-Regular-65" transform="translate(508.105469 0)"/>
      <use xlink:href="#SFProDisplay-Regular-67" transform="translate(559.326172 0)"/>
      <use xlink:href="#SFProDisplay-Regular-29" transform="translate(614.208984 0)"/>
     </g>
    </g>
   </g>
   <g id="matplotlib.axis_2">
    <g id="ytick_1">
     <g id="line2d_11">
      <path d="M 53.789375 349.359991 
L 709.2 349.359991 
" clip-path="url(#p5dbdc25663)" style="fill: none; stroke: #b0b0b0; stroke-opacity: 0.3; stroke-width: 0.8; stroke-linecap: square"/>
     </g>
     <g id="line2d_12">
      <defs>
       <path id="m49f3f78087" d="M 0 0 
L -3.5 0 
" style="stroke: #000000; stroke-width: 0.8"/>
      </defs>
      <g>
       <use xlink:href="#m49f3f78087" x="53.789375" y="349.359991" style="stroke: #000000; stroke-width: 0.8"/>
      </g>
     </g>
     <g id="text_7">
      <!-- −0.5 -->
      <g transform="translate(26.681563 352.882647) scale(0.1 -0.1)">
       <defs>
        <path id="SFProDisplay-Regular-2212" d="M 388 1575 
L 3481 1575 
L 3481 2081 
L 388 2081 
L 388 1575 
z
" transform="scale(0.015625)"/>
        <path id="SFProDisplay-Regular-2e" d="M 688 -44 
C 888 -44 1044 113 1044 313 
C 1044 513 888 669 688 669 
C 488 669 331 513 331 313 
C 331 113 488 -44 688 -44 
z
" transform="scale(0.015625)"/>
        <path id="SFProDisplay-Regular-35" d="M 1916 -75 
C 2853 -75 3519 556 3522 1459 
L 3522 1466 
C 3522 2331 2897 2959 2031 2959 
C 1594 2959 1219 2797 1006 2494 
L 994 2494 
L 1147 4009 
L 3266 4009 
L 3266 4509 
L 684 4509 
L 453 1938 
L 950 1938 
C 1009 2041 1081 2128 1163 2203 
C 1363 2384 1625 2475 1931 2475 
C 2528 2475 2956 2050 2959 1456 
L 2959 1450 
C 2959 844 2534 419 1922 419 
C 1381 419 981 759 925 1206 
L 922 1231 
L 369 1231 
L 372 1197 
C 438 463 1053 -75 1916 -75 
z
" transform="scale(0.015625)"/>
       </defs>
       <use xlink:href="#SFProDisplay-Regular-2212"/>
       <use xlink:href="#SFProDisplay-Regular-30" transform="translate(60.449219 0)"/>
       <use xlink:href="#SFProDisplay-Regular-2e" transform="translate(121.09375 0)"/>
       <use xlink:href="#SFProDisplay-Regular-35" transform="translate(142.578125 0)"/>
      </g>
     </g>
    </g>
    <g id="ytick_2">
     <g id="line2d_13">
      <path d="M 53.789375 291.976941 
L 709.2 291.976941 
" clip-path="url(#p5dbdc25663)" style="fill: none; stroke: #b0b0b0; stroke-opacity: 0.3; stroke-width: 0.8; stroke-linecap: square"/>
     </g>
     <g id="line2d_14">
      <g>
       <use xlink:href="#m49f3f78087" x="53.789375" y="291.976941" style="stroke: #000000; stroke-width: 0.8"/>
      </g>
     </g>
     <g id="text_8">
      <!-- −0.4 -->
      <g transform="translate(26.48625 295.499598) scale(0.1 -0.1)">
       <use xlink:href="#SFProDisplay-Regular-2212"/>
       <use xlink:href="#SFProDisplay-Regular-30" transform="translate(60.449219 0)"/>
       <use xlink:href="#SFProDisplay-Regular-2e" transform="translate(121.09375 0)"/>
       <use xlink:href="#SFProDisplay-Regular-34" transform="translate(142.578125 0)"/>
      </g>
     </g>
    </g>
    <g id="ytick_3">
     <g id="line2d_15">
      <path d="M 53.789375 234.593892 
L 709.2 234.593892 
" clip-path="url(#p5dbdc25663)" style="fill: none; stroke: #b0b0b0; stroke-opacity: 0.3; stroke-width: 0.8; stroke-linecap: square"/>
     </g>
     <g id="line2d_16">
      <g>
       <use xlink:href="#m49f3f78087" x="53.789375" y="234.593892" style="stroke: #000000; stroke-width: 0.8"/>
      </g>
     </g>
     <g id="text_9">
      <!-- −0.3 -->
      <g transform="translate(26.612813 238.116548) scale(0.1 -0.1)">
       <use xlink:href="#SFProDisplay-Regular-2212"/>
       <use xlink:href="#SFProDisplay-Regular-30" transform="translate(60.449219 0)"/>
       <use xlink:href="#SFProDisplay-Regular-2e" transform="translate(121.09375 0)"/>
       <use xlink:href="#SFProDisplay-Regular-33" transform="translate(142.578125 0)"/>
      </g>
     </g>
    </g>
    <g id="ytick_4">
     <g id="line2d_17">
      <path d="M 53.789375 177.210843 
L 709.2 177.210843 
" clip-path="url(#p5dbdc25663)" style="fill: none; stroke: #b0b0b0; stroke-opacity: 0.3; stroke-width: 0.8; stroke-linecap: square"/>
     </g>
     <g id="line2d_18">
      <g>
       <use xlink:href="#m49f3f78087" x="53.789375" y="177.210843" style="stroke: #000000; stroke-width: 0.8"/>
      </g>
     </g>
     <g id="text_10">
      <!-- −0.2 -->
      <g transform="translate(26.872188 180.733499) scale(0.1 -0.1)">
       <use xlink:href="#SFProDisplay-Regular-2212"/>
       <use xlink:href="#SFProDisplay-Regular-30" transform="translate(60.449219 0)"/>
       <use xlink:href="#SFProDisplay-Regular-2e" transform="translate(121.09375 0)"/>
       <use xlink:href="#SFProDisplay-Regular-32" transform="translate(142.578125 0)"/>
      </g>
     </g>
    </g>
    <g id="ytick_5">
     <g id="line2d_19">
      <path d="M 53.789375 119.827794 
L 709.2 119.827794 
" clip-path="url(#p5dbdc25663)" style="fill: none; stroke: #b0b0b0; stroke-opacity: 0.3; stroke-width: 0.8; stroke-linecap: square"/>
     </g>
     <g id="line2d_20">
      <g>
       <use xlink:href="#m49f3f78087" x="53.789375" y="119.827794" style="stroke: #000000; stroke-width: 0.8"/>
      </g>
     </g>
     <g id="text_11">
      <!-- −0.1 -->
      <g transform="translate(28.097188 123.35045) scale(0.1 -0.1)">
       <use xlink:href="#SFProDisplay-Regular-2212"/>
       <use xlink:href="#SFProDisplay-Regular-30" transform="translate(60.449219 0)"/>
       <use xlink:href="#SFProDisplay-Regular-2e" transform="translate(121.09375 0)"/>
       <use xlink:href="#SFProDisplay-Regular-31" transform="translate(142.578125 0)"/>
      </g>
     </g>
    </g>
    <g id="ytick_6">
     <g id="line2d_21">
      <path d="M 53.789375 62.444744 
L 709.2 62.444744 
" clip-path="url(#p5dbdc25663)" style="fill: none; stroke: #b0b0b0; stroke-opacity: 0.3; stroke-width: 0.8; stroke-linecap: square"/>
     </g>
     <g id="line2d_22">
      <g>
       <use xlink:href="#m49f3f78087" x="53.789375" y="62.444744" style="stroke: #000000; stroke-width: 0.8"/>
      </g>
     </g>
     <g id="text_12">
      <!-- 0.0 -->
      <g transform="translate(32.512813 65.967401) scale(0.1 -0.1)">
       <use xlink:href="#SFProDisplay-Regular-30"/>
       <use xlink:href="#SFProDisplay-Regular-2e" transform="translate(60.644531 0)"/>
       <use xlink:href="#SFProDisplay-Regular-30" transform="translate(82.128906 0)"/>
      </g>
     </g>
    </g>
    <g id="text_13">
     <!-- 差值 (deg) -->
     <g transform="translate(20.31875 226.952188) rotate(-90) scale(0.12 -0.12)">
      <defs>
       <path id="FZHTK--GBK1-0-5dee" d="M 4025 5100 
Q 4750 4950 4700 4875 
Q 4675 4825 4600 4750 
Q 4325 4550 4050 4125 
Q 5075 4125 5550 4200 
L 5550 3675 
Q 5175 3725 4500 3725 
L 3375 3725 
Q 3350 3650 3325 3525 
Q 3325 3425 3250 3225 
L 4175 3225 
Q 4750 3225 5325 3275 
L 5325 2775 
Q 5225 2775 4950 2775 
Q 4475 2800 4200 2800 
L 3125 2800 
Q 3000 2425 2900 2250 
L 4675 2250 
Q 5600 2250 5850 2300 
L 5850 1800 
Q 5450 1850 4725 1850 
L 2700 1850 
Q 2675 1825 2675 1800 
Q 2500 1500 2350 1325 
Q 2625 1300 3325 1300 
L 4150 1300 
Q 5025 1300 5200 1325 
L 5200 825 
Q 5100 825 4850 825 
Q 4250 850 3750 850 
L 3750 -25 
Q 5175 -25 5725 50 
L 5725 -500 
Q 5375 -450 4425 -450 
L 2625 -450 
Q 1725 -450 1400 -500 
L 1400 50 
Q 2200 -25 3250 -25 
L 3250 850 
Q 2575 850 2225 825 
L 2225 1150 
Q 1550 350 775 -150 
Q 675 0 350 175 
Q 275 225 250 250 
Q 1375 750 2150 1850 
Q 1100 1850 900 1850 
Q 625 1825 450 1800 
L 450 2300 
Q 675 2275 1275 2275 
L 2350 2275 
Q 2450 2425 2550 2700 
Q 2575 2775 2600 2800 
Q 1750 2800 1175 2775 
Q 1025 2775 975 2775 
L 975 3250 
Q 1150 3225 1450 3225 
Q 1650 3225 2750 3225 
Q 2750 3250 2775 3325 
Q 2825 3600 2875 3725 
L 1825 3725 
Q 1575 3725 1125 3700 
Q 875 3700 800 3700 
L 800 4175 
Q 1325 4125 2225 4125 
Q 2200 4275 1825 4825 
L 2300 5000 
Q 2625 4650 2800 4325 
L 2450 4125 
L 3525 4125 
Q 3625 4275 4025 5100 
z
" transform="scale(0.015625)"/>
       <path id="FZHTK--GBK1-0-503c" d="M 1450 5100 
Q 2175 4900 2150 4825 
Q 2150 4775 2075 4700 
Q 1975 4600 1925 4525 
Q 1875 4450 1775 4275 
Q 1600 3975 1525 3875 
L 1525 225 
Q 1525 -150 1550 -475 
Q 1550 -625 1550 -700 
L 1025 -700 
Q 1025 -625 1025 -375 
Q 1050 25 1050 225 
L 1050 3025 
Q 1025 2900 575 2275 
L 150 2650 
Q 1000 3750 1450 5100 
z
M 3575 5100 
Q 3650 5100 3850 5075 
Q 4250 5050 4225 5025 
Q 4225 5000 4200 4950 
Q 4100 4775 4075 4425 
L 4875 4425 
Q 5575 4425 5975 4475 
L 5975 3950 
Q 5675 3975 4900 3975 
L 4025 3975 
L 3975 3400 
L 4400 3400 
Q 5050 3400 5400 3450 
Q 5350 2900 5350 2425 
L 5350 0 
Q 5800 0 6100 50 
L 6100 -450 
Q 5800 -425 5150 -400 
L 2825 -400 
Q 2500 -400 2050 -425 
Q 1850 -425 1750 -425 
L 1750 50 
Q 1850 50 2025 50 
Q 2250 25 2425 25 
L 2425 2450 
Q 2425 2875 2350 3450 
Q 2650 3400 3225 3400 
L 3500 3400 
L 3525 3975 
L 2875 3975 
Q 2225 3975 2000 3950 
L 2000 4450 
Q 2100 4450 2400 4450 
Q 2750 4425 2875 4425 
L 3550 4425 
Q 3575 4775 3575 5100 
z
M 2900 3000 
L 2900 2525 
L 4875 2525 
L 4875 3000 
L 2900 3000 
z
M 2900 2175 
L 2900 1700 
L 4875 1700 
L 4875 2175 
L 2900 2175 
z
M 2900 1350 
L 2900 875 
L 4875 875 
L 4875 1350 
L 2900 1350 
z
M 2900 525 
L 2900 0 
L 4875 0 
L 4875 525 
L 2900 525 
z
" transform="scale(0.015625)"/>
      </defs>
      <use xlink:href="#FZHTK--GBK1-0-5dee"/>
      <use xlink:href="#FZHTK--GBK1-0-503c" transform="translate(100 0)"/>
      <use xlink:href="#SFProDisplay-Regular-20" transform="translate(200 0)"/>
      <use xlink:href="#SFProDisplay-Regular-28" transform="translate(220.507812 0)"/>
      <use xlink:href="#SFProDisplay-Regular-64" transform="translate(252.734375 0)"/>
      <use xlink:href="#SFProDisplay-Regular-65" transform="translate(308.105469 0)"/>
      <use xlink:href="#SFProDisplay-Regular-67" transform="translate(359.326172 0)"/>
      <use xlink:href="#SFProDisplay-Regular-29" transform="translate(414.208984 0)"/>
     </g>
    </g>
   </g>
   <g id="line2d_23">
    <path d="M 53.789375 62.444744 
L 709.2 62.444744 
" clip-path="url(#p5dbdc25663)" style="fill: none; stroke-dasharray: 1.5,2.475; stroke-dashoffset: 0; stroke: #ff0000; stroke-opacity: 0.7; stroke-width: 1.5"/>
   </g>
   <g id="patch_33">
    <path d="M 53.789375 389.528125 
L 53.789375 10.8 
" style="fill: none; stroke: #000000; stroke-width: 0.8; stroke-linejoin: miter; stroke-linecap: square"/>
   </g>
   <g id="patch_34">
    <path d="M 709.2 389.528125 
L 709.2 10.8 
" style="fill: none; stroke: #000000; stroke-width: 0.8; stroke-linejoin: miter; stroke-linecap: square"/>
   </g>
   <g id="patch_35">
    <path d="M 53.789375 389.528125 
L 709.2 389.528125 
" style="fill: none; stroke: #000000; stroke-width: 0.8; stroke-linejoin: miter; stroke-linecap: square"/>
   </g>
   <g id="patch_36">
    <path d="M 53.789375 10.8 
L 709.2 10.8 
" style="fill: none; stroke: #000000; stroke-width: 0.8; stroke-linejoin: miter; stroke-linecap: square"/>
   </g>
  </g>
 </g>
 <defs>
  <clipPath id="p5dbdc25663">
   <rect x="53.789375" y="10.8" width="655.410625" height="378.728125"/>
  </clipPath>
 </defs>
</svg>
